<mxfile host="app.diagrams.net" agent="Mozilla/5.0 (Windows NT 10.0; Win64; x64) AppleWebKit/537.36 (KHTML, like Gecko) Chrome/137.0.0.0 Safari/537.36 Edg/137.0.0.0" version="27.1.6">
  <diagram name="第 1 页" id="DdSgeaDcgc3K95dl30Hm">
    <mxGraphModel dx="810" dy="454" grid="1" gridSize="10" guides="1" tooltips="1" connect="1" arrows="1" fold="1" page="1" pageScale="1" pageWidth="827" pageHeight="1169" math="0" shadow="0">
      <root>
        <mxCell id="0" />
        <mxCell id="1" parent="0" />
        <mxCell id="A-Cyk1RoJ9tYtj40iDa4-1" value="用户端&lt;br&gt;（充值）&lt;br&gt;（进入云平台【单点】）" style="rounded=0;whiteSpace=wrap;html=1;" vertex="1" parent="1">
          <mxGeometry x="70" y="270" width="140" height="60" as="geometry" />
        </mxCell>
        <mxCell id="A-Cyk1RoJ9tYtj40iDa4-2" value="管理平台" style="text;html=1;align=center;verticalAlign=middle;whiteSpace=wrap;rounded=0;" vertex="1" parent="1">
          <mxGeometry x="110" y="90" width="60" height="30" as="geometry" />
        </mxCell>
        <mxCell id="A-Cyk1RoJ9tYtj40iDa4-3" value="管理端" style="rounded=0;whiteSpace=wrap;html=1;verticalAlign=top;" vertex="1" parent="1">
          <mxGeometry x="80" y="130" width="120" height="120" as="geometry" />
        </mxCell>
        <mxCell id="A-Cyk1RoJ9tYtj40iDa4-4" value="云手机平台（taisenphone.com&lt;span style=&quot;background-color: transparent; color: light-dark(rgb(0, 0, 0), rgb(255, 255, 255));&quot;&gt;）&lt;/span&gt;" style="text;html=1;align=center;verticalAlign=middle;whiteSpace=wrap;rounded=0;" vertex="1" parent="1">
          <mxGeometry x="550" y="90" width="200" height="30" as="geometry" />
        </mxCell>
        <mxCell id="A-Cyk1RoJ9tYtj40iDa4-20" value="" style="edgeStyle=orthogonalEdgeStyle;rounded=0;orthogonalLoop=1;jettySize=auto;html=1;" edge="1" parent="1" source="A-Cyk1RoJ9tYtj40iDa4-5" target="A-Cyk1RoJ9tYtj40iDa4-7">
          <mxGeometry relative="1" as="geometry">
            <Array as="points">
              <mxPoint x="470" y="225" />
              <mxPoint x="470" y="225" />
            </Array>
          </mxGeometry>
        </mxCell>
        <mxCell id="A-Cyk1RoJ9tYtj40iDa4-21" value="返回数据" style="edgeLabel;html=1;align=center;verticalAlign=middle;resizable=0;points=[];" vertex="1" connectable="0" parent="A-Cyk1RoJ9tYtj40iDa4-20">
          <mxGeometry x="0.1111" y="1" relative="1" as="geometry">
            <mxPoint as="offset" />
          </mxGeometry>
        </mxCell>
        <mxCell id="A-Cyk1RoJ9tYtj40iDa4-5" value="" style="shape=image;verticalLabelPosition=bottom;labelBackgroundColor=default;verticalAlign=top;aspect=fixed;imageAspect=0;image=data:image/png,iVBORw0KGgoAAAANSUhEUgAABaMAAAO5CAIAAACL/K71AAAgAElEQVR4AeydCZwUxd33n8/qG9crieZJRhQfMGFJxBiFJBhFMSjoS4yE+CoR0Ky6K3hhDOARjzxeURBEFC8QPIhyiAsIGwWDCkYMyKGIF4hy733N3dPnm+6arqnp7unpOben5zef/UBPd3V11bdrpru+86/q/1LwAgEQAAEQAAEQAAEQAAEQAAEQAAEQAAGvEPgvr1QE9QABlYAsywABAiAAAiAAAiAAAiAAAiAAAiBQzgRgOsr57Huw7rL28mDFUCUQAAEQAAEQAAEQAAEQAAEQAAFnBGA6nHFCqhIhQEwHfEeJnC4UEwRAAARAAARAAARAAARAAATyTwCmI/9MkWM3EmBNB0aydOOJwKFBAARAAARAAARAAARAAARAoLsIwHR0F3kctyAEDKYDsqMglJEpCIAACIAACIAACIAACIAACLiYAEyHi08OipY5AVEUITsyx4Y9QAAEQAAEQAAEQAAEQAAEQMA7BGA6vHMuURNFUURRlCTJIDtABgRAAARAAARAAARAAARAAARAoHwIwHSUz7kui5qK2guyoyxONioJAiAAAiAAAiAAAiAAAq4hYPi1FW/TEijoqYPpKCheZF5sAoIgkLAOyI5io8fxQAAEQAAEQAAEQAAEQKAsCZAuvSRJoihyMTES5QWPvkRRJB2u7OpHfpbuCCR12QrUZGA6CgQW2XYPAfKRk/QX6xG7p0A4KgiAAAiAAAiAAAiAAAiAgEcJyLJMBEdTO//3NcGbnuq84M72qppWL/61VF3TdMHdSu5VO3lcy7m3td/ybNeCd0J7m2LkJ+q8NxCYjrwjRYbdSSAWiyGsoztPAI4NAiAAAiAAAiAAAiDgXQLs74ieXM7o1BHNwcWEF98K/v5+rwoOYm1aqq5p7nP1wbyYDtaVXPa39vlrgoGwkPeHZsJ0ZNSYkdjtBAymwzCGxe2lR/lAAARAAARAAARAAARAwH0EZFkWRCnM8cEo7w/HvPoXjPJhjhdE9fkGaU8C0RxN7dz9L3exXXePLqsBHX2u2p9300FwPbDA7w/lWXbAdKRtw0hQSgRisRjP83ReUpiOUjp5KCsIgAAIgAAIgAAIgID7CMiyrDqOCB8TJFFKrwDcVwOnJRIlOSZIwYjqO+xlB9EcUY5/4JVy0BytVTXEdOwrkOmoqml9YIE/v5EdMB1O2z3SlQQBjuN4Xp0BiM5LmrvskGWFVx224NxehzmBV2VwSTBDIUEABEAABEAABEAABEDAmoCmOYRITLDe7NG1kZgQ5uxCDCRJEgRh/j8DHo3gMM8z0tLn6sY+VxXQdFTVtL70z4AoivaOyXmLg+lwzgopS4AAazqo7GDHEGZaB16UnAsOc0pelDI9ItKDAAiAAAiAAAiAAAiAgBsIkGiOctMchLwmO6wjO2RZFkVxx77IyPvaYDrySODSB9t2N0QlKT8dKJgON3yHoAx5IxCNRulUHbmbDo4XzfIi0zUcL+atesgIBEAABEAABEAABEAABIpCQJZlXhCDEb4oR3PjQYIRnhcsQgzUWUsE4aW3/Hns5Ls+q2LEdFTVtL68Jm9hHTAdbvxQoUxZE6Cmgx3AwsZ0OI+GyjGagxUiiOzI+oRiRxAAARAAARAAARAAgW4hIEnqFKQxIT8/sHdLFXI8aExQCRhCDOLPW+G4m58un4AOdZ6OIoxeqappnfBUuyDYjRtyfk5hOpyzQsoSIEBMB52qI+uwDllWWFWR+zLm7CiB1oMiggAIgAAIgAAIgAAI6AQkSQpG1ann9BVl978oycGohekQRTEajQ77C0yHeTqPXNcMvrWN4ziDXcqu5cF0ZMcNe7mUQCQSyctUHXkM6CCWBGEdLm0xKBYIgAAIgAAIgAAIgICJAJmKwh+OmbaU1wp/OGaYI5OQCQQjA27KtVfv+hErbAWLFNNx8riWaDRqYJ5dm/OC6QiFwkvqVoytvr7PyQOHDr/0gYce3bf/IIvjo23bx90w6U+T7tq9Zx+7Pu/L0Sg3bcZT426YNO+FV8yZv7nq7XE3TGL/bvvLfW+uejsUCtPEu/fs+9Oku8bdMOmjbdvpSiw4J5Av05HRk1acRHyEufKasNr5KUNKEAABEAABEAABEAABtxEgU1HAdPjDMcNgCkImHA6XlKdgnUV2y0UyHVU1rZFIBKZDkWW5/h9vffcHfSoqfYa/W++4LxKJkq+MlfWrKyp9Rx3be/PWbQX9EgkGQ0OGjayo9FXXTDAfaOr0WYZCkreHHd1z/suLyfwRm7duO+rY3hWVvpX1q805YE1aAqzpSDVVR9pMFCXPQ1eICnFyXKQBARAAARAAARAAARAAgW4nANNBTgFMhy50imc6wuEwTIdSt2zloUf0IL5gwMDzx90waeRl1Ycd3ZOsGXfDJJ5X5wp2lemo/HbPsdXXk8iOgWddQIp66BE9/rlmraIoMB05fq0XynS0t+zcfcD8t685pgd0BPapCVqaw3SNcSFV1aJRrqGxyfwXDIYsd+F5ftZTc9//YKPl1ryvDAZDzS2toljsJ8h0dnWxTHIsgyzLBxsaV7/1zsGGRuez0uYdJjIEARAAARAAARAAgZIgkNZ0iKLY3NLK3q01NDZFoxxZn+o+VlGUYDC0dt36jZu2RqOcAQXdZN5dluXmlta3/vnup599Sbp4hn0L9DaV6QgGg7oCyC5EIr7XiPs6RtzX4TCriXP87QGB40Xy99neWFVN67pPOLLAZmJISXdhF4IRceZy57WA6ShQE7PKdt/+g31P+VVFpe9YX981b6+jSdo7Oi++5IqKSh/VB64yHb2rBjQ0NtHSvv/BRhLEcdHIMdEoB9NByWS3EA6HDZOSStqLffyKk5x1f6HbirrxxEkZ/j156q54ytW3HqEGFv3m0a/0XUzKI9VxSfs05FxR6Zs6fZblLl/u2HXciafUXvdny615Xzl1+ixDo837IcwZyrI8tvp6lkkuZQiFwldfezPN7fIrxnV1+c0HxRoQAAEQAAEQAAEQAAFCIK3paGhs6l01gN5fkYWV9avJesv7WFmWH535NN3luz/o8+aqt8nheJ6//c776aZDj+gxbcZT9Je23Xv2DTr3Irr1uz/os3jJ8uL8dlVo0/H6hsjrGyKspLBZnjjHv6+FnzhHfbrtgnfDn+2NmY2GQ3+x7hNuXws/9pFOm8Mlbyqq6TCMGMruU1nC83Q8+fQ80txfXrDEUPmdX33t69mvotJ388Q7LWM6eJ5/cf6iniedRnI41tf3jrseoPNlWA5CMa+UZfnNVW9X9TuDZDJqTO3Or75OO3rF0GETBOHSy2sqKn1kPTUdK1auWrxkOanFoUf0GH/j5PaOTraam7Z8fO75I8ihDz2ix0Ujx+zYuYskYIu6Y+euswb/hiQ7Y9CFWz/+hM1kx85dF40cQ+JiDJmwyUpoOZXpkCSJyg4n1TGaDhrTse7Bkyt9I16Ix3fQmI76G/6nYuhVI77rS7gPx6aDxnSsfuudI4/pNf/lxcSOm2U2LXlXl79oMrtbTAdpw5eNrqE/FOQS0zF1+qxDj+ixeMlyURRXrX77qGN73/vANAoTCyAAAiAAAiAAAiAAAgYCDk3HPfdOoXdrJKbDxnR8sGFT5bd7PvDQozzP+/2BUWNq+502qKm5RVGUeS+88q2jTnhu3t95ng+FwvfcO+VbR51AYt6bW1pPHTC4V5/+S5fXt3d0fvHlV7+79I+HHtFjxcpVhjIX4q0LTceqLdF9LfyyDyKf7Y19tje27hOOKomxj3TuaojRSA3iQajRmLk8uKshNvaRzgXvhtsDAjEmdN90CzAdhWhfVnlGo9xFI8dUVPp+2v+c1rZ2QxJZltvaOxoam9raO2RZNsR08Dw/7oZJpPPP/jt0+KXkl17WFNCczSvZsTMkn3OGXNx/4Hn283QYTIeiKNU1E8ym44/X3EQH5pDML77kCjrziPnQJLZl46atJCSMCJfB543od9ogto4n9P7ZV7u+IZXauGnrsb6+7FY2E1rx0lowmw7zg2ad1MhoOqi22D7r5ErfqLrkwA3/u+NUx/HZa3/0VfR98EOaOHkh7XGJ52KnaPH7A4/PmnPmOcOHDr90waI60gA6u7ruuOsBosBlWd7w4Zaraif8tP85k2773/0HGuhR9h9omHTb//YfeN6fJt216+vdZP28F16ZNuOpzVu3XX7FuDPPGV63bCWR5WQq3A0fbnlm9gu/PHPYjX+6nWZFTMfGTVtv/NPtvzxz2NPPvkDboSiKdctWDh1+6ZnnDJ8zdz5dn+ooiqLQXYYOv3Th4qWpfE1rW/tP+59j+WuAk8zZ8pCsRl85XhDUSWH/8+Vw0y13WH5vUHRZLLyy8LWnnnnevONTzzy/YFGdeT3WgAAIgAAIgAAIgICbCTg0Hea7NWI6Hpo6s27ZyjPPGX75FeM++3wHqenK+tXszIns2+qaCWcN/g2Num1r77j9zvvJ7e6TT8+r/HbP997fQHF1dfnPPX/EmecMp+npJvNCjjdpbjYdHC+2B4THlgVpoIfBdBB5MXN5MBgRF7wbpqYjndSwHI+Tgen482z/PfMD5qPcMz9wy7NqQIr9XzgcLuuYDtJ7qaj0ja2+Pm3kksF0PDvnRdK9v2Xy3aFQmOf5x554lmiFWybfLcuyWWqw+oDMNvrN7r0n/vD0ikpfrz791//7Q0EQPtq2nWoFmxlJDaajrb3jjEEXVlT6Bp51QUdnF43pOPSIHrOfe6mhsWnDh1v6nDywotJX+e2eH2zYpCjKp599+YMTTia77Pzqa1mW/71xc68+/SsqfacOGNzc0krLT/js2bt/z979dCwA+T4icrSi0nfu+SNIn3b/gQYSJOLwW8P8PeKGNd1jOtSxLT+9dX2sef5VFZW/uHVzsgfRfUdaPgbT0dXlHzr80u/+oM/td95/88Q7Dzu6J2mfrClfsXLVt446YfSV42c/99KpAwaTBqAoCtFYpw4YPO6GSacOGHysry+xYNU1E/67x4/7nvKr6poJpw4YXFHpW/TqMjpBzMCzLvj10N/VjL+ld9WA43ud+vkXOxVFmTp9VuW3e/74p2f+Yey1g89Tw4hIQAQxhocd3fOy0TWXja457Oiev/ndaBKHkuoo5l3oZDoGOPQaeddfHxp3wyRqeYgZtKyCOXNSno+3ffqd7//olYWv0UMsXV7PXmXp+lwWyLfKlGlPsJlMmfZERaVv9nMvsSuxDAIgAAIgAAIgAALuJ5Cj6ehz8sCfnzG0umbCd3/Q58Qfnv7N7r2kF3Pciac8/MjjoihGItGraifQfgeJwJ0y7Qn6yxlBRH7eHjJspCHY+ZWFr33n+z/6eNunaUnmeJPmZtNBpucgw1iIO2BNx4J3wxwv0oAOOuDF3jKk3pqB6bjrpQDHi1NfTZoEZOqrQY4X73zRwoAYDlrupoN0hFJFTxhaPGs6qAWgnytFUQRBqL3uzxWVvpP6/vzAwQaahhUWhpWvLHyN6BLSUSRHfO/9DZXfVudDZXekhSHPXqGmQxTFXV/vHvPH60g+pPdITcftd95PDc6q1W8fcvhx9IEsJB8qPkj+S5fXkzQrVq6iRf35GUPb2jtIgqbmFiJiSNlWrFxFIji2f/oFLSGJKDvk8OPYeU/o1pJY6A7TEZj3/3wV//Pgv8Ixf/PiEZW+I27+wDIkJC1Ag+ngef6dd/9FByXdPPFOEonAmo7rbrq132mDWlrbFEVpbWtf/+8PeZ4XBGH0lePPPX8E8dzEppGghuqaCTSup629g1yBqOkYNaaWBFl8teubE3r/jAz+IqaDeHSe539/2VXkYvPBhk1HHtOLjh1btfptGkaY6igfbNj0ne//aPGS5QTFywuWHHlML+LvDHAIiiOP6fWHsdf+9vdjKyp9rEaxrEKq8hiokuFshWjkxGtQ2WF4a6gg3oIACIAACIAACICAmwk4NB2/PHMYedLCuBsmTZvxFBmU3btqAL2rfHft+9866gQas/zPNWtP6P2zo7930mFH9xx41gU07pidVW3gWRfQX7lIv8bct1rz9rpDj+hBp/mwJ2m4KzO8td8376ZjxH0dZG4O8u+eFn5PC8+usZmglMzTwY5eqapp/WxvjMiOdZ9wrOkg+mDm8mB7QCDjWSznLjVYhtRvMzAdVTWtxGtQ2WF4m/ooargHTEd8Chxzuzc3VtZ07D/QQGIx7vrrQ2zKpcvrKyp93zrqhH+t30BNAZu5YeVdf32ootJ3fK9Tv/5mD82HRpqwO9KtqZ4yW1HpowNnqOlYurye7khXrqxfTWdqJDEgNA1bL1pUNuCFriRle2jqzIpKX8+TTnvhpYWvLV1J/p6b93cynmXG48/QnEtroRtMh2Y3etyxRbMbmvX47q31fouwjrQkzX1yURQ//2LnKwtfu/FPtx/f61SiyVjT8eprrx9y+HEDBp4/+7mXdn29mwxFaWpu6XPywLHV19Mz+5vfjR583ohAIFhdM4FKcdIkSHsgh6atjujzocMvDYXChnk6aA4zHn+Gbf+k8RM5QtPQYChylBmPP3Osr+9z8/5OCvb4rDlHHtOLHtTAJxrl6IzcLy9YcugRPVatVuesssncsjxmqivrVxfCdCiKQi+cdMFQKbwFARAAARAAARAAgZIg4NB0HP29k3r16U/+Lr9iXCgUZu9U6c9pxHTs2bv/xz89c8DA8+e98MoTTz53fK9TaSeIMGlqbpn3witkGP6pAwbv2bufvV9lub25Sv2Nzfmvs/TejC6wudksu9N0ULtB5yglFoOajs/2xtjHrKRaNj+0JbWDyMx0sLIjI80B06EEAkESSE86Yzat0zAjKbUGhkFlxIaQuAmDFCCZG1ayk2vQoxvS0PVkwdJ0HOvre/ud9/v9AZKGFo+KT/oFYSgb7a+SHdkgF8tiGFaS8hsm6aBvDXAMFXHzWyemgwbL2FTEMihDXWmap6N5/uWUm77wP+NW58F07Nm7/9QBgw87uufIy6pv+8t9ZFAJmfOpd9UAco7IPB2XXzHue8epU66cM+RimoBV7ONumHTHXQ90dnWl0gQGHUCEGmljqUyHYT35SBKjkeooJDyEPmWZ/ALgRMYTkUeqbJM5DZhSlPhXRHXNhM+/2PnfPX7MDiFxHu5o00JSbSKXz/8MN6PBHalSYj0IgAAIgAAIgAAIuJaAQ9Nh7jXYmI6bJ95JpyBVFIWEw7M3aZQGGYh9118fIk9vMPzEqyjKk0/P++8ePyZDrele9gvZ3aTl3XQYVEIWz15ZtSVKTce6TzgyIymZg2PiHD87Iyl7rKxmIWUn1MjYdFDZYR7JwhbMvFzuMR2Kotw88U7z+AvSvru6/BdfckWvPv1rxt8Si/FsTMfX3+w5vtep/wnfeGjqTPbDQNKQX3oNUoAkM6wkMR0n/vB0OnHjf4rU0dk18KwLHI5eYY9Ol9OaDvqsFvITPd2Rmo6bJ95pKKpN+U8dMPiLL79iJ0wmy4aBcPQo7l8ouuk48ORQX0Xf8Y8uWP5K/G/6hd/1VfxxldmVpKVn0A2zn3vpWF9fOrzorr8+ZI7pEEUxEAiSnP+5Zi0JDiQN4Oprb6ZOhwZHpNIE5ND0iSRkYAvJwWA0aA4rVq6q/HbPf62Pzw61/dMvjvX1JdFANI0hpmPFylXf+f6PNm/dRgosaC9LLB9t237zxDtpQCMpHrkQ2mRuWZ6uLv+Z5wz/vxdfToZ98jw/akyt+XppWYzsVs54/JnSjYrKrsrYCwRAAARAAARAwGMECmE6qmsmsPdgpF82dfosvz/w+8uuuu6mW8n88YqikHH3tdf9WVGURa8uIw/Ro4RJbAi9u6Pr0y5kcZPmKtNBpACJ11jwbnjsI537WngarxGMiHNXhSxNBxnDsuFLjuNF9lktZsuQek02pqOqpvWBhcEHFiZN2JH6EHGxAtMRt4AVlb6raicYpq5ZvGQ5mbTiyafnGWI6qIxgPxvkcQx0NAo1BaxNOHCw4aS+P6cWY/ZzL1VU+g45/DgSUU8+V2SeC5rG8GEzzNNh2ErepjUd/5lVhEgWtg+sKAqdy+OVha/R8pMf2EnOhpVknhFDJqIohsMRy4KVyspim46vnvtVpe+kuz9jvYb6xNnKq+Y1G8M60jI0mA4y2yh5QMmbq94+1tfXYDrIfBx9Th740bbt4XDksSee/dZRJ6xdt15RlGfnvPito06Y/dxL7R2dH27+qM/JA2+65Q5RFFNpAnJoX89+9f94a/+BBvJkL/LsrlSmg0xqe+75Iz7/Yueur3f/vz9cQ6fPSHUUusuOnbuaW1rvuXfK947r+8n2z81kyIy/g8696ONtn3687dNB517U95Rf7dt/0Gb0Cs3cXJ5n57x4yOHH3XPvlD1799/34LRDDj/u2TkvkoP+441//vinZ77/wUZFUXbs3DXwrAueePI5ImguGXX1uBsmGb5bzEXFGhAAARAAARAAARDwHoFCmA56S7b/QMPOr77+w9hryUNVZFm+ZfLdhx7R474Hp+3Zu//jbZ/+7tI/fuuoE8i9aDAYuuCiUYcd3fOuvz60eeu2l/6+uKrfGXS6/UKTd5vpmLk82NTBP7BAfd4K6yyI9Vi1JdrUwdOnzBKnQJ+9Qt5+tjeW+SNmW6tqsjQdab2GOQFMh8I+LPaMQRe+9/6GhsamnV99TT4n9EEkBtNBniVBJMWMx58RRVGW5dVvvUPmp6CPoiQBI4ccftz0x57ieb6tvYM+u4Togy937DruxFMqKn0//umZ5LmtzS2t5114CRm/wCoG+vHLl+mgNuTiS65o7+hUFIU+NoXMbGyQGqQAhpX02TFjq68nY2dkWZ73wiuHHH7c8b1OXf/vD2mxS2uhyKZj52O/sXjYyupbj6j0XTg/wOoPfziWlqTBdHR1+S+/YhxpUeQpKgbTQU79oHMvImkOO7rntBlqc1UU9dPxtymP0QcVXzLq6samZhtNQA79+Kw55IEshx7RY9qMp8isH6lMh6Ion3+x87Rf/JocvarfGWvf+4DUMZXpMOzy3R/0WbxkOQ08MfBZ+94HVf3OIJn3O23QR9u2Z5Q5Wx6e56fNeOqwo9XZgg89osffpjxGn25L2vyrr72uKMq/N24+6tjek277X0VR2to7Tv/lEDqrq6FseAsCIAACIAACIAAC3iZQCNMhiuKTT8878phe5AaP/MZGbgVDoTDtxFVU+o48ptczs1+gd4mGrWcMunDrx58Uh7+rTMfEOf72gLDg3XBVTSudkoM1BcSDTJwTf5IrSW/2GuSxLCQfdnfbZZiO4rQ4/ShdXf7hI0aTj4rh3159+tOuETt6RVEU8vBOkv7o751EJjggzmLP3v0kb/oUFZrtqQMGDx1+KY3XkGX5kUefpFvJJ/a0X/yadBQLajrYQx96RA8yGId04eqWraTjBWhRSY0MpkNRlLplK0lP+NAjepz4w9Mph1QP/tSpu/r/gpsO/ZGxBovh5G124ILBUFt7B/2it8wkGAw1t7QSMcEm4Hm+qbmFDl1hNxmWqWQRRbG5pdXJLjSHzq6utCWkickCuwsdeEU/TRWVPjrms7OrK9OxVGzm7HFFUWxta6eOg92EZRAAARAAARAAARAAAZZAWtPBJs5o+T/R9G3tHZY3eORGNNWNZRa3qRkVzDJxoU3HiPs6bB62YlAPZHoOw0rDGBY6bUcwIpodB92X7JWJ7IDpsGwghVzJ8/yL8xf1POk02k067Oiet0y+m87xaY7pUBTF7w/cPPFO+ot3RaVv1JhadsYNWZbr//GWr2c/ku0Zgy7csXMXmcWTWgye5x+d+TS1koPOveiT7Z+TuYJpGrbq+YrpUBRFFMWFi5fS4lVU+vqdNuidd/9F+sNmqWGpP2RZfufdf5FHz5JqHnlMr2kznirpcH3vmQ62CRVumZqOwh0iVc7komWYLMby4pcqB6wHARAAARAAARAAARDIL4HCmY78lrPQuRXadFD14PoFmI5Ct7XU+QeDoYbGplQK0HI/8ot3Q2OTzS/YaX9StlePlsfN10oiRBsamzq7unLJs7Orq6GxyTIoIJdsu2XffJmOMCc4CdNwnibMCd0CxOFBP9n++Wm/+LXzJ3U5zBbJQAAEQAAEQAAEQAAESpEATAc5azAduoIpqukgU0zk+MH5rxz3x+4g4CoC+TIdvCg5txhOUvKi5CpQKAwIgAAIgAAIgAAIgAAIpCIA00HIpDId/kB4wE3sQ1g9v1wk03HyuJZwOAzTkeqDifXlSyBfpkOWFSf+wnkaWS7fk4KagwAIgAAIgAAIgAAIlBYBYjqCUV6UyvcuVpTkYJQXBIGdMo+QCYfDQ+/wvN1gK1gk0zH41rZIJALTUVpfFyhtMQjky3Sojy/JX1gHAjqKce5xDBAAARAAARAAARAAgTwRkGVZFMUwx8eE8g1MjglSmOMNvW5CJhKJ3PRkiz6ygzUCXl0ukum4cVZrNBo1MM+uUWP0SnbcsJdLCeTRdCiKwvGi86iNVCk5XnQpLBQLBEAABEAABEAABEAABFIQkCSJi/HBCJ9iu/dXByM8F+MlKcn1ENMRjUbn/qMNpiPvBJ5/o43jOEmS2Dia7JoaTEd23LCXSwnk13TkHtmBaA6XNhQUCwRAAARAAARAAARAwJaAJEk8z4eisUjM1TPr21Yi+42RmBCKxnjewnSoDojjPvmq8+K/Nue9q+/WDIsR0/H7+5q/3N1lZp7dWYTpyI4b9nIpgbybDkVRZFkdyZLR01jCnKAOaizfUY0ubR4oFgiAAAiAAAiAAAiAgEMCJHiB47gwJ5Sb7IjEhDAncBxnOYyCTtUxZ2X5DGAphumYU9+ar0k6FEWB6XD4SUey0iBQCNNRGjVHKUEABEAABEAABEAABEAgrwRIl57juFA0Foyoc3Z4e4JSUZJjghSMqJEsHMcZ5iKlaKkDamvvvGtek1ujMPI7Y0jBTcddzzc3tfpJQEfuQ1dgOmhzxYJHCN7KOFwAACAASURBVMB0eOREohogAAIgAAIgAAIgAAIuIEBlRySq+Y4on2pyOg+sD0a10TpRzkZzkHMiSZIgCJFIZNfetjvnloPsKKzpuHNe08GmznzNRUrOEWI6XPD9gSLkjwBMR/5YIicQAAEQAAEQAAEQAAEQUEgIA8/zHMdFo9GId1/RqCo5eN74vBVzI5BlmcxjEg6HW1rbn1zaeNHdjZ4O7mipuqapz1X7LrhbyW81R97b9MzrTQ3NedYciOkwN1qsKW0CMB2lff5QehAAARAAARAAARAAAfcRIB17SZJEURS8+xJFUdJeTkZPUNkRiUQ6Ozu/2NXyzPLG2kcbz7vNk9OUEtOxPy+m4+RxLYMmNl83s2n2643bd7YGg8FUU6Lk8lFATEcu9LCv6wjAdLjulKBAIAACIAACIAACIAACXiEge/2V0YkiskMQ1LlLw+FwV1dXe3t7S0tLU1NTo+dezc3NHR0dbW1tzc3NuVSuqamppaWlra2ts7MzGAxGo1EnQTQZnReSGKYjC2jYxb0EYDrce25QMhAAARAAARAAARAAARDwFgEiO0ioCx3dE9ZfQU+89NqEI5EIXc5lIRKJkIFCgiCQOBonQTSZNhyYjkyJIb2rCcB0uPr0oHAgAAIgAAIgAAIgAAIg4DkCJNKFjO7x/AAfoieyG8MkMi9Jkgi3AjUHmI4CgUW23UMApqN7uOOoIAACIAACIAACIAACIFDeBLw+sifP9St0Y4HpKDRh5F9UAjAdRcWNg4EACIAACIAACIAACIAACICA+wjAdLjvnKBEORCA6cgBHnYFARAAARAAARAAARAAARAAAS8QgOnwwllEHSgBmA6KAgsgAAIgAAIgAAIgAAIgAAIgUJ4EYDrK87x7ttYwHZ49tagYCIAACIAACIAACIAACIAACDgjANPhjBNSlQgBmI4SOVEoJgiAAAiAAAiAAAiAAAiAAAgUigBMR6HIIt9uIQDT0S3YcVAQAAEQAAEQAAEQAAEQAAEQcA8BmA73nAuUJA8EDhw4sHv37m+++Wa39tqjvfZqr33Maz9eIAACIAACIAACIAACIAACIAACniPQ0NDQ3t4O05GH3jWycA+BZubV0tLSqr3atFc78+rACwRAAARAAARAAARAAARAAARAwFsEOjs7/X5/MBiE6XBPJx0lyQOB9vb2jo6Orq4uv98fCASC2iukvcLMK4IXCIAACIAACIAACIAACIAACICAFwlEo1GYjjz0rpGFewhQhxcKhcLhMPnYRrUXx7xieIEACIAACIAACIAACIAACIAACHiUAEyHezrpKEkeCHR1dQUCAao5WMfBfoR5vEAABEAABEAABEAABEAABEAABDxKAKYjD71rZOEeAjAdHv2mQrVAAARAAARAAARAAARAAARAwCkBmA73dNJRkjwQgOlw+tFHOhAAARAAARAAARAAARAAARDwKAGYjjz0rpGFewjAdHj0mwrVAgEQAAEQAAEQAAEQAAEQAAGnBGA63NNJR0nyQACmw+lHH+lAAARAAARAAARAAARAAARAwKMEYDry0LtGFu4hANPh0W8qVAsEQAAEQAAEQAAEQAAEQAAEnBKA6XBPJx0lyQMBmA6nH32kAwEQAAEQAAEQAAEQAAEQAAGPEoDpyEPvGlm4hwBMh0e/qVAtEAABEAABEAABEAABEAABEHBKAKbDPZ10lCQPBPJuOmJ4gQAIFICA02sU0oEACIAACIAACIAACIBA5gRgOvLQu0YW7iGQF9NRgG4dsgQBEEhJIPMrF/YAARAAARAAARAAARAAATsCMB3u6aSjJHkgkKPpSNUV4/ACARDIE4FUnzK7KxW2gQAIgAAIgAAIgAAIgEAmBGA68tC7RhbuIZCL6aAdMNKhi+IFAiCQVwJmVUI/dGQhk4sX0oIACIAACIAACIAACIBASgIwHe7ppKMkeSCQnemg3S2O43ieF0VRluU8lAZZgAAIaARkWRZFMRaLRSIRIk9Y60E/gPAdKa/V2AACIAACIAACIAACIJAJAZgOdEQ8RSAL00E6V8RxQHB4qjWgMu4jIMsy6zui0ShVHqzvyOQqhrQgAAIgAAIgAAIgAAIgYCRQcNPx8bZP165bb/577/0NsRjvvvtwlKi0CWRqOqjmEAShtGuO0oNA6RAQBCEcDtP4Duo7IDuMl2i8BwEQAAEQAAEQAAEQyIpAAU2HLMunDhhcUelL9Xf0907a8OGW0rk5R0lLgEAWpoPjOGiOEji1KKK3CFDZQX0HCe6gsiOrKxp2AgEQAAEQAAEQAAEQAAGVQAFNx/sfbDz0iB67vt5teX8ei/FnDLrwT5PustxKVzY0NvWuGpDKlVRU+qZOn0UTmxdW1q+m+66sX00TTJ0+i+5YXTOBpqmo9LHJaHoslAqBjExHLBbjOC4Wi5VK7VBOEPASAY7jQqFQRHuxk3dAduD2BARAAARAAARAAARAIEcCBTQdfn/APmTjD2Ov/cPYa/Ny4x4MhoYMG8kKC7JcXTPBMn+D6aB2o7pmAl223BErXU7AuekgvaloNIq5OVx+TlE8rxKQZTkQCJBhLIjsyPFajt1BAARAAARAAARAAARYAgU0HZ9s/3xJ3Qr6V7dsZTgcYW/ZLxtdM2pMLbsmj8usy2CzNUdwsHaDXWb3wnKpEMjIdCCgo1ROK8rpVQLRaDQYDJplB8I62Os0lkEABEAABEAABEAABDIlUCjTUbes3hxhcfLPBrGyo1tMh6IoJACEHb1C4zhgOkq9Q+XQdNCADszQUepnHOUvaQKCIAQCgVAoxMoOTNiR6YUc6UEABEAABEAABEAABAwECmU6Lr9i3CWjrmZvwds7OisqfXXLVtKV+TUdhmANs2ehamPz1m1HHdubvmXtBrtMy4mFEiLg3HRwHBeJRDB0pYROLorqPQKSJHV1dQWDQSo76IQdCOswXK3xFgRAAARAAARAAARAwDmBQpmOUWNqzSNTKip9S+pW0Jv1tKaDnU/UbC7omiHDRgaDIZotWUg1ekVRlKnTZ5F9ySwerN1glw0Z4m1JEMjIdITD4ZKoFAoJAh4mYPjMkgk72LAO59czpAQBEAABEAABEAABEAABQsDVpsNwc19dMyHVDKOGlERn0KgNdmtDY9OQYSMn/PkvRIVMnT6LtRvsMrsXlkuFgKHXRH8fJlNy0F+JyVNXQiGjICuVaqKcIOAZAp2dnWQACxvWAdOBexQQAAEQAAEQAAEQAIFcCJSM6VhZv7p31YCGxibL+/u0Q1dIEMeQYSMfeOjR6poJNOIjGAyNvKx689ZtJFuYDku8JbTSiekg1oM84dJ51SRJ+tfGT15asvrZ+a8vXvHup19aPz7ZeYZICQIgoChKR0dHIBDAAJZcLuTYFwRAAARAAARAAARAwECgNExHQ2NT76oBdN5Qe+tBOg/UZRj6EvfcO6WhsYlu3bx1W/+B51GBQkyHYaUhB7x1M4ECmY5N276cfP8ztZOnPTp78bN/X3H/Y/NrJ0977Lkl7Z0BN9MoStkOLpsyZ1ljUQ6Fg3iRgNl00AEsNAjLcN3CWxAAARAAARAAARAAARCwJ1Bw07Hlo21XXHUDuT/PdJ4OeldPojDoW0VRGhqb+g88j8ZisJvIMnUZ5k3s2BYyeoWmoaZj5GXV5rk/aDIsuJaAc9MRjUYdjl7ZtO3L2snT5r+2OhBMzOvx1TcH7n9s/j2PPB+ORDOiseH5abWTU6iBxjV3TJ5Wm/rv8a30UFsfn7x4Q+Ld4trJi5e9MeeONw7SdZYLDTZp0h29lj0im/tW9eiJwrCb6LKaeYpa0zRYKEsCHR0dfr+fxnSQh7BEo1EMYLG/eGMrCIAACIAACIAACICADYESMB2sjCCPTaFzkVZU+migh6GP4MR0bN66rVef/qwuIaZjZf1qy1lODYfAWxcSyLvpkCRp8v3PzF+y2lzZQCh8+99mv/TqKvOmFGsOLpsyrXbKmgZVDVh1+xvX3DFlTUOKnTc8P83KdGx9XDUjizcoBzc8P+eON9Zob8kaRVHIVjt7kpAUhqNvXawWlRZGVRW6zkjrRJ5PKBk1g9Tp06oZenwseJUAazowVYfN1RqbQAAEQAAEQAAEQAAEnBMolOlI+5TZWIz/1dn/90+T7rK/fTc8fsUgIMj0onTsCftclaOO7c0qDMNRiAcxh4rQx7JYzmZqyARvXUgg76bjXxs/qZ08jY3mYGtNtjoK61DtxrREx17r/CfekkxTGwES6EFMhxYVEpcXmtqICwgmXiM54oMpMZOGWUuPzqqNNKZDtx6mbBremFPLmg61UhZaR60Fm8yUD1aUCQGYDucXbKQEARAAARAAARAAARBwSKBQpqNuWT0beUGWT/7ZoHA4MuPxZ8jbo7930sZNyb/9lsmtPapZMAJ5Nx0vLVn96LOLU5XXHwzXTp722Q7b2Unj/sJCDRhHshiiKpKPahvToQZxaKNXtqphI/EoD0XR9IrNcBhWoNhEXug56FVQa6QvJxdSHVnGmA51WU1pMC9qbIvR8pjywYoyIQDT4fBqjWQgAAIgAAIgAAIgAALOCRTKdCiK8sn2z5fUraB/dctWhsMRRVH27N2/dt36997fEIvxZXIrj2oWjUDeTcez819/9u8rbMpfO3na5m07UiXQXIbqIHRZYBpI8vya+JAWMsqDjapIlam6nroDuqAqBl0f6CvZuAxmWS1V/ECqdIgPijF4Fia9ekDWbrDLpkJS06Eu0OpozuXxrZoHsQrxMGWDFeVCgJoOOlUHnZGUPhza+SUNKUEABEAABEAABEAABECA5/kCmo5yuU9HPd1EIO+mY/GKd+9/bH6qKjY0t9VOnrZrT5p5QNndGR/BrtaW49EfJhuSmKOURlJoLmPrYmZiDsNeWsq4rTDN1pEYNpK16TAcLvltIn+mjobxO8wWLJYzAZgO3IuAAAiAAAiAAAiAAAjknQBMRzl3MTxY97ybjk+/3F07edpX3xywhFX3j/cm3/+M5aZUK9OYDhoEYbG/HqmhKFqoiHGeC7uctdysQznogZx7FkP0B81BW6AxHfpqk2dJiBs9nERPiv/LkABMR96v68gQBEAABEAABEAABEAApqMMexZernLeTYeiKI89t+T+x+YHQolHzBKCy1e9Xzt52j/f25wOqF1XP+khLPEQDO0RLYwOiKfRx4xoE3bo1iOFntCHscSLps2XYdAKpFQ0SESb1IONxbAZvWLYlKL+cR1DJw0xJUueecS0GSvKgwBMB25EQAAEQAAEQAAEQAAE8k4ApqM8OhNlU8tCmI72zsA9jzx/x0Nz/rXxk0BInWumobmt7o33yNQbb767MSO6NpEXejQEM6JEzfrgsinas0t006EdTjcd6putj7MzX6jJ2GedmL1J8kgTPYrEWDCDzmCObkyZpv5sUZOSwnQk4SjXNzAdeb+uI0MQAAEQAAEQAAEQAAGYjnLtXni03oUwHYqihCPRl15dxc4qOvn+Z/753uY3391YO3laRrIjtSaggsPsJnTToVsJZkZSciLVAA2b+T43PK8/60T3F2rABRvBoY2IiU9NGs9ycWI+0aQZSWk5HbYhmA6HoMo0GUwHbkRAAARAAARAAARAAATyTgCmo0x7F16tdoFMB8EVjkQ/27F787Yd7BSkmcqOlKZDnbCTGUtiOkN6xAfZYNAHVI6w0RxqSjJuJTGYJW46DjY0xjfFdQYTshE/su5E4m9pAsP6+Gab/+wG7yS5FZs8sMm7BGA68n5dR4YgAAIgAAIgAAIgAAIwHd7tQJRlzQpqOlIRffPdjSnDOlRBkDxaxOrtHW8cTDGUg9UEcYtB5IVmKOhWKjio8lCfI7sq+WmyJCYlYT20+pDgDgv/ojsR9SG4pMxaDEiKcqZiwz4Q15gm86yMOeC9BwjAdOBGBARAAARAAARAAARAIO8EYDo80FNAFRIEusV0JA6PJRAAgQwJwHTk/bqODEEABEAABEAABEAABGA6MrwrR3J3E4DpcPf5QelAwEgApgM3IiAAAiAAAiAAAiAAAnknANNhvO3G+5ImkKnpkCSppOuLwoNASROQJImajpD2CofDkUgkGo1y2iumvfJ+5UOGIAACIAACIAACIAAC3iYA01HS3QQU3kggI9MRDod5njdmgfcgAALFIsDzfGdnp9/vDwaDMB3evttA7UAABEAABEAABECgmARgOop1R4/jFIVApqYjEokUpVw4CAiAgAWBUCgE01HMSz6OBQIgAAIgAAIgAAJlQgCmw+LmG6tKl4Bz08FxXCQS8fv9GMBSuqcbJS9pApIktbW1kc8siekIay+MXimT+w9UEwRAAARAAARAAAQKRwCmo6R7Cii8kYBz0xGLxaLRaDAYRFiHESLeg0BRCIRCITpJBzUdEe1F5ukgk3TEYrHCXQKRMwiAAAiAAAiAAAiAgCcJwHQU5Y4eBykWgYxMB8dx4XDY7/dzHFesAuI4IAACKoFoNMoGdLCmI6q9OI6D6fDkbQcqBQIgAAIgAAIgAAJFIADTgV6Hpwg4MR20+8RxXDQaJTMFQHZ4qh2gMu4mEI1GW1tb6QwdmI60CBd7HAIEQAAEQAAEQAAEyooATIe7OwQoXYYEMjUdZLaOYDDY2dkZCoUwZ0eGvJEcBDIjIElSMBikmiMQCAS1VygUIs+XxSQdZXULgsqCAAiAAAiAAAiAQIEIwHRkdpuO1C4nkJHpiMViJKwjEokQ2dHW1hYMBmOxGJSHy080ildaBCRJisViwWCwpaWlra2NRHOwmoOaDgxdKdDFHtmCAAiAAAiAAAiAQFkRgOkorf4CSpuGQBamg8iOcDgcCoX8fn9HR0d7e3tra2uL9mrGCwRAIGcCLS0tra2tbW1tHR0dXV1dfr+fhHIYxq2YAzowHWlZ3ZGgsiAAAiAAAiAAAiCQLwIwHWl6zthcWgQcmg6e5w2zdUSj0UgkEg6Hg8GgX3t1Mq8OvEAABHIgQD5MBsdhqTnw1JV8Xd2RDwiAAAiAAAiAAAiUMwGYjtLqyKO0aQhkZzpIWAeRHZFIJBQK0R+cA3iBAAjkiQD9WFHHQQetkGgOojnw1JVyvilB3UEABEAABEAABEAgLwRgOtL0nLG5tAg4Nx2GsA6D7Ahrr5DpxXbVsAwCIOCcgOnDpE5Bys5CCs2Rl4s6MgEBEAABEAABEAABEOB5HqajtDryKG0aAhmZDnvZQQazkM4YmcXD3FXDGhAAgYwI0A8UdRyI5sC9CAiAAAiAAAiAAAiAQN4JwHSk6Tljc2kRyNp0kOew0MgOOpIlor3Y7hmWQQAEciFAPlPkX/KkFXM0ByYizfvFHhmCAAiAAAiAAAiAQFkRgOkorY48SpuGQKamgw3roLKD9R0G5cF20rAMAiCQHQEqOKjjYOfmgOYoq7sQVBYEQAAEQAAEQAAECkEApiNNzxmbS4tAFqbDIDtY32FQHmz3DMsgAAK5EOCYF30QElkoxKUOeYIACIAACIAACIAACJQVAZiO0urIo7RpCGRnOshn3tDdYjpiWAQBECgIAcOHrqyuvqgsCIAACIAACIAACIBA4QjAdKTpOWNzaRHIxXSYgztoN6wgnTxkCgJlSYB+rAwLhbvOIWcQAAEQAAEQAAEQAIFyIwDTUVodeZQ2DYEcTQf5/Bs6YHgLAiBQUALldt1FfUEABEAABEAABEAABApNoICm48GHZ4waU2vz9+DDM9J0W7EZBDIkkBfTwX7qCtrBQ+YgULYE2E8ZlkEABEAABEAABEAABEAgvwQKZToefHhGRaXPRnOMGlNbUelzIjuqayZMnT6LdniDwdCQYSPZNXQTXTDsQtdjwfME8m46bIa0lG0fFRUHARAAARAAARAAARAAARAAgUITyMV9FMp0EMdh3692kqa6ZkJFpY/9M68ZMmxkMBhijwXTwdIoq+U8mo5Cf26RPwiAAAiAAAiAAAiAAAiAAAiAQFoCWSgPV5uO6poJxGJMnT6LLDQ0Ng0ZNrKhsamhsal31YBUkR3VNRNW1q8uqx4+KksI5MV0pPqkleX0kag0CIAACIAACIAACIAACIAACBSPQKruWEa+w9WmQ1EUMlaFjelgl3tXDWhobFIUhYgPdpN5ubpmAnSA5wnkaDrMH6rifaBxJBAAARAAARAAARAAARAAARAAAYaAuYPm0HeUgOkYeVn15q3bzF10Gt9h2ETkiCGmY+r0WTAdBlCefJuL6aCfIp7nBUGQJEmWZU9SQqU8ScAfjnmyXqgUCIAACIAACIAACICA5wnIsixJkiAIHMdF9RdjPDjaWYvFYk5kRwmYjiHDRpoDNMgaGtPBnvhgMGSWI5i5g0Xk4eXsTAf92PA8L0mSh/mgah4mANPh4ZOLqoEACIAACIAACIBA+RAQRTF331ECpsOsLcg5ThXTYbkepqNMPhhZmA6qOQRBKBNKqKYnCcB0ePK0olIgAAIgAAIgAAIgUJ4EeJ6PRCJ6eEeUxnfQ7pt9cEcJmI5MYzpW1q+2fBqLYTxLeTYXz9c6a9MhiqLn4aCC3iYA0+Ht84vagQAIgAAIgAAIgEC5ESCyw+w7qOywGcZSKNMx/sbJv/jV0CV1K2z+fvGroeNvnOzkbJkHpKSad4NMTWqQGpYzdzg5LtKUHIFMTQf5kCCao+RONApsJgDTYWaCNSAAAiAAAiAAAiAAAiVNIBaLhcPhiPYi8R0kuCOt7CiU6fj6mz1nnjM81fwaZP2Z5wz/+ps9NtyraybY50C20ggOojnMM4+aRYnNQbGppAlkZDrIx4Pn+ZKuMgoPAoQATAdaAgiAAAiAAAiAAAiAgPcIRCKRLGRHoUxHfvmurF9tmHzUHNOxsn51RaVv6vRZ5kNv3rqtV5/+lg9wMSfGmpImkIXpwBSkJX3GUXhKAKaDosACCIAACIAACIAACICAZwgIghAKhWxkh+UYlgKajiuvvvHKq29UFGXajKdGjand8tG2LR9tGzWmdtqMpxRFoVvtTwDxFzRqgyY2mI6p02cZVAiJ76AhIZYGhOaGBc8QcG46ENDhmZOOihACMB1oCSAAAiAAAiAAAiAAAp4kEIlEDLIj7RgWt5sOT54nVKpwBDI1HZiho3DnAjkXmQBMR5GB43AgAAIgAAIgAAIgAALFIRCLxULai0R2mCfsMId1FNB0FKfOOAoIsAQcmg46gQ2GrrD0sFzSBGA6Svr0ofAgAAIgAAIgAAIgAAKpCIiiGAwGSVgHlR32YR0wHalgYn1JEsjUdMiyXJL1RKFBwEQApsOEBCtAAARAAARAAARAAAS8QECW5aD2omNYaFgH/Q3bENYB0+GFE486UAIZmQ6O4+iOWACBUicA01HqZxDlBwEQAAEQAAEQAAEQSEWANR2WYR0wHanQYb0XCDgxHRzHEfMH0+GFU4466ARgOnQS+B8EQAAEQAAEQAAEQMBrBAKBABnA4jCsAzEdXmsBZV4fmI4ybwDlXH2YjnI++6g7CIAACIAACIAACHibADEddLaOSCRiP4AFpsPb7aHsald80yHjBQL5IJD7ZzUvpiMfVXF7HrmjRg4gAAIgAAIgAAIgAAJFJmA2HUR20ID9WCzGDmCB6SjyCcLhCkvAuekgU/XmUhrSn5MkSdReAl4gkDkB0ngkSSLNKZcGmaPp8Hx7zhdqt4mcXNoM9gUBEAABEAABEOhGAoW4qci9Ou4slaIoAe1lHsDCPoEFpiP3BoAcXEqgOKaDfP5FURQEYfHa4HVPdAye3PaTa1uravAHAhkQ+Mm1rYMnt133RMfitUFBEERRJE0ru09X1qajHNpzXlDLshzjhXA05g9xXcFot//5Q1w4GovxAp4hld1HBnuBAAiAAAiAQHcRUJ8kEuZaOoIHWwP7mrry8newNdDSEQyGuaxvDNxZKnqOYDooCiyUI4EimA5ZliVJIo5j8OQ22A0QyAuBwZPbiO8g8R1ZfHqzMx1l2J6zQE0ch2YW+JggaiE4WZyifO4iy4okyTFBDEd5f4iD78gnXOQFAiAAAiAAAgUjQGyCaiU6Q6FoTPudKw8Hk2VFFOVQNNbSGTrYGsjUd7izVAYuMB0GIHhbXgQKbTpot/Celzrz0r9FJiDAErjnpU5BELKTHVmYjnJuz85Ry7Ic4fhQRFUc7vw+FUQpFIlFOD7r33DcWS+UCgRAAARAAAQ8RkCW5faucFN7kIsJhasaFxOa2oPtXWGHNwbuLJWZDzUdhklJMXrFzAprPEigoKajnLuFbG8cywUl4LwHbvgAZ2o60J6doCaaIxzlZdnA211vZVkJR3nIDnedFZQGBEAABEAABBgCRCi0dIaKcFMhy0pLZ8iJ7HBnqRhsiUWYjgQLLJUhgUKbDkEQFr7jL2hHF5mDwMJ3/IKQ8eQLWZgOtGd71GTQSigSK8IdSe5f17KshCKYtiN3kMgBBEAABEAABPJPQJblQCja1B4s2k2FLCtN7cFAKGoT2eHOUqWiD9ORigzWlwWBwpkOWZZFUeQ47pxJGUw5iU47CGRB4JxJrRzHkQlKnX9uMzIdaM/kvNijlmXZH+JcO2jF3DYEUfKHsp+HzJwh1oAACIAACIAACOSFgCRJB1sDBR20Yi4nFxMOtgYkKeXwW3eWylwRsgamIxUZrC8LAgU1HYIgLHi7K4uOK3YBgUwJLHi7K9OwjkxNB9ozOSmpUOtPWuFL66szHOUxO2lpnTKUFgRAAARAwPMESOhES2eo+DVt6QylCutwZ6lsEMF02MDBJu8TKJDpIDMacBw3biYetoKQlmIQGDezjeO4jKYmdW460J5Z8ZQKtSzLoQgXE8TS+t6MCWIogrCO0jppKC0IgAAIgIDHCUiS1NweCEVjxa9nKBprbrcO63BnqWwQwXTYwMEm7xMonOkQRTEajWLoCttFxHLhCJwzqTUajWY0gCUj04H2TM+dJWoig/whTpLcPROp6UtdktQRNxk5MlMeWAECIAAC/lS2PQAAIABJREFUIAACIJA3AmTI8MHWgCh2w02FKMraoUXDbB3uLJU9dJgOez7Y6nECBTUdkUjkJ9cW4/d82gfDQtkS+Mm1rZFIpKCmA+2ZtC5L1MR0dAWjRZs2LF9fzbKsdAWjMB354ol8QAAEQAAEQCBHAsQp7Gvq6pabCllW9jV1mW8p3Vkqe9QwHfZ8sNXjBApnOgRBCIfDZdvxRsWLTyAcDmc0VUdGMR1oz+wJNaOmpqMUvzFhOkrxrKHMIAACIAACXiUgy7IgCPuaurqrgvuaLGZ/c2ep7BHBdNjzwVaPEyio6QiFQmzvCMtFJbAuxu0vL9MUCoUKajpKvz0H3+sS3luQhzArM2qYDo9fKlA9EAABEAABECgWAXc6hVxKtXHT1kceffLyK8ZdfsW4KdOeeHft+4TlywuWLHp1mUOulv7Ffl+YDns+2OpxAjAdTuzDiPs6RtzX4SQlSfPgdoHjLbqUC/aLLduDVTXhz3mRi//FFtTEe57qXlZuYsF+mth6QcvT3H0NvtdFDmfe1KqVwaKEzuvowpTm7rf9pzfTmI6sTEf4c14/xeti+klPPo9d3INMG0hxNpNP4gKuJdGEknMztaukM6WWQS+PftCkBM5WmlHnYjoONjT9bcpj9z4wzfJv2etvpDqPy15/4/31G1Ntdb4eMR3OWSElCIAACIAACBSaQNZOYeHipaPG1P5p0l2btnycSyEtnUJ2pQqFwtfddGtFpa+i0lfV74yqfmeQ5d/+fuzBhsbLRteMGlPrsKiWpbLfF6bDng+2epxAQU1HMBjMohPlwl1e3xB5fUPEacFIZ1Lri36+Tu2gPrhdIN1X3XTEe62qwtgfrrLstTK93wX7RZKPVgDVXzBvW9k80zmRhNqgRSLFM/XAEymd1tpZD7mguQWDwYLGdGTTnhcEF5i1l3rGrXUDe17sWC3gWpgWUrUuxrFv2fwtWxdrSazkmt2htRNtRp2j6Vj46rJYzGJ+9ffXb2RNx44du16cv5CmZE1HLBZ7cf7CHTt2ZfGVDdORBTTsAgIgAAIgAAIFIpCdU3j+xQU9TzrtuXl/v/Oev33n+z/avWdf1sWzdApZlCoa5U4dMPjw75x47wPTDjY0kvI0t7TOnDX7ByecfIyvasiw38N0ZH2asCMIpCEA05G2U1dV05qB6Uj6zVyN3WjZHqTdV9ZKqBEcbO9UEyLxmI7kjmtGpiN1RED480SYSfhzcmittO8ZY0nYlMmhBC7QGTbny9z9tm/9mcZ0ZGM6NGKGaB3aHsx1MW1iw3/ERKBQZqbD2qrEJZc7TIfDmA6YDvsmja0gAAIgAAIg4AECmTqFG26+fciwkf/d48d0JMjY6ut//NMzhwwbyf7ddMsdDuHky3TcPPHO73z/R7u+3m047s6vvn7jzTWDfv3bQ4/sMXT4pYatqd5alipVYrIeMR32fLDV4wRgOsy9TfMah6bDLC/IIJHP95tiOhIuQ43RMIVUxNeQ2I10kRqJISqsSTHVIuEvFuwnIRvx8BBDP7x0B7a40HQkzIVdbIVqItSzwIZa8Fq8jzrQiXoKZpYNu9xI49H3YuM7TKLKdOqdii0z6oLGdNDIDpgOj1+QUD0QAAEQAAEQUJRMTceHmz9au279yMuq//f+Rwi/n58x9G9THlu7bj3753xIi6VTyLRUwWDo/xx5/AsvLTSf0lNOP5uMYamo9A069yJzAss1lqWyTElXwnRQFFgoRwIwHSYjYNHZc2Q61J/ZY58btUW8E5s8eoW1G3qPtHgxHUyYgPZ7vkUfOxH9YUHDCbFuSWPuftt/pIsQ0/HgAk6dk4WJm4gPWUpSGAnI1FXpDiK16WADghLiTMuKtRvssotNx7NzXgwEg5bnix2WsmPHLsu5POhKjF6xZIiVIAACIAACIFBCBDJ1CqRq+w809OrTf2z19WeeM/ziS66QJCnrKls6hUxLVf+Pt448plfWZTDvaFkqczJ2DUwHSwPLZUcApsOyTz7ivg5iN8i/e1r4PS08uybFBKXJk2jonUz6wz7tx+oH1fqxajJTWAfTj81o9IoxLiApZ2b2DWb4g96ppv3tRPSHXk66ydULLjQdGsAET00q6W7LoCc0DUFbiN5m8mI6TK2LbRWMhXF+us2oc4npIC6D2grzAjs3B/sdjXk6WBpYBgEQAAEQAAFvEMjUKdBad3R2Pf3sC/9445+yLNOVWSxYOoVMSzXptv899/wR9kfHs1fs+WArCOREAKbDsneXN9OhCQu910pnD9W7voxusJk0IaPRK+xkpclV0w9a06rNgar3t9lYkvhv/kxKUxRAcp7uEh/m7rf9Z6MIMR0sLu08xmN8SJRHkvjI1HSwtsJiWT+/yW2MLY9NkzMkM781o87FdKQ6TYaxKoqiLHv9DTZqgzUdiqLQQS6pMky1HjOSpiKD9SAAAiAAAiBQfAKZOgXLEgaDoaXL659+9oUDBxssE9iszIvpuHninWlNx+DzRtwy+W6bkrCbLEvFJjAvI6bDzARryogATIe5F2de42j0itpTTY7p0H+0N5mOuPKIB1Oo04Kaf3Wn8RfM7AzmQ9RQe2I6empJwaoTMmGqqQD06O5yGeZTw64xd7/tP8lFMh2aa3iPPGdHOynaeY/FJ4jVInp0P5VoP3qbSRHTsS7Gjoixe/aK3ghZULkvm1FnZzrSRnPQ+A4S1gHTYd+ksRUEQAAEQAAEPEAgd9PR0dl14g9PP/vXv738inGHf+fELR99khEWS6eQaaleeGnhUcf2tj/ukcf0mv/yYvs0dKtlqehWywWYDkssWFkuBGA6nPT6MjQdiWk4SA9W77UyVkLtf6qTeuhdXFUoxMWH0VCwfV0LnUHHO2gzieq/5BszsRMWpuMipsP48SfXtuyevcLiJSeLrFGX98eSHjerD3cijUGb24U9+wnnRVtUvPUadIZFPnYNwMlHwJAmX6bDCDr5PWI6knngHQiAAAiAAAiUBYFMncKOnbvYmUfXrlt/x10P/OZ3owmsv0157OJLrli7bv3Or752iM/SKWRaqq0ff1JR6Xv+xQWpDjr3+ZcrKn3bP/0iVQLDestSGdIY3sJ0GIDgbXkRgOkwdOEs32ZoOpheZfLYAcZKqNZDe8psQosYAyvIVB3JORjDRtiYDkN3N43s0Ocl3R9mu+Ja9WE6jF8COZiORJiGGnmhPUglDlw7XwuYhw2zJ0J3GdamI3nqltbUMR3M0dO0B6bROkiZd9MRCAYfe+LZ99dvZNHDdLA0sAwCIAACIAACZUIgU6cwtvp69mmyQ4aN7HvKr669fiLB9crC175//E+GDBt55dU3OgRo6RQyLZUsyxdfcsV3vv+jr7/ZYz7uN7v3fvu/f3jJqKvNm1KtsSxVqsRkvUtNx9Ll9UvqViypW7F0eb19BbAVBHIhANNhqTYMK7M2HWzftYq1EswspDSsw5CYlIGVI9oaY99VT2Bcb6gC81ZNSbrcZKXpuDAdxo9U9qZDPdFkKJCqlmiMjzb2hHBWT4cavpFIqUoH3WXoQio+vknLignZiJ9Wg+SiCQzrHSgMpp3YuY+8mw5FUchIlmWvv0HpW5oOOp7FcoHdneaTdgHzdKRFhAQgAAIgAAIgUDQCmToFc8F27Nx1fK9TV6xc9fY77w0YeP4rC18zp7FZY+kUsiiV3x84+WdnHevru+z1f7CHW7q8/hhf1Smnnx0Mhtj19suWpbLfxY2m45bJd9NH7FZU+pzPU2JfVWwFATMBmA4nXbsR93WkeNiKsTeoWoOkSTfUrimzkvZUSe+XTA5qnqQjvubzdexP+uRYutFIzO6h58k8rsVJpbQ0ho50UkmognGcm5FGkXc0d7/NDZ5dU4R5OtRTz5wX2hJMbPXTqj59lpwFMhCJbQDx0St6uAdDO240iMPSdteeqKLrEiZlnmSHGXV283Swp4MuH2xo+tuUx4jIMER50DSWC5iR1BILVoIACIAACIBAaRHIwimYK7jm7XXnXXjJkGEjZ86abd5qv8bSKWRXqlAofN1Nt1ZU+o719R141gWn/3LIMb6qikrfDTffHg5H7Ith2GpZKkMaw1s3mo5RY2pHjaklBWWXDUW3eVtdM2Hq9FmKojQ0NvUfeN7mrdtW1q8eMmwk8UbBYGjIsJFUpvSuGjDhz3+hb+lC76oBDY1NNkfBJg8QgOkocm8chyscAXP32/4TWgTTUbjKdm/OZtR5NB32Z60QWxHTUQiqyBMEQAAEQAAEsiOQnVPI7liWe1k6hVxKteHDLY88+uTlV4wbfeX4aTOe+nDzR5bHtV9pWSr7XTxoOjZv3dZ/4HlEUhCpsbJ+taIo1TUTqOxQFCUYDI28rHrz1m2KokydPqu6ZoKiKFSINDQ2DRk2EqbDvvV4YGtBTUcoFOre/hiOXlYEQqGQIAjOn6CeqelAe6bNyYwapsMDlwNUAQRAAARAAATcQCAXp5CX8ls6BXeWyr6+7jUdWz7atuWjbVnEdNCADqIzhgwbSUwHkR0k1sNsOmgoB11ATId90/HG1kKbjp9cm//IedrdwgIIUAI/ubbV3P22/5BmYTrQnqtqWi1RU9Mhy/bUXbdVlhXEdLjurKBAIAACIAACZUyAOoVuuamQZcXedLiqVPbNxI2mY87c+d866gRiHL511Alz5s63rwO7dfPWbUcd25uqDWI3Tv/lEOovKip9RHYgpoPlVrbLBTUd4XD47IkttC+KBRAoHIGzJ7aEw+GCxnSgPZPTZ4mamA5/iJOkElMdkiRrxZacRwOV7fUCFQcBEAABEACBIhAgpuNAi18Uu+GmQhTlAy1+8y2lO0tlfzrcaDpIibOI5qATcCxYVGeYicM8DgWmw75llMnWwpkOURQjkUjtDJgORLUUg0DtjJZIJCKKovP+akYxHWjP1FJZoiamIxThYoJYWl+eMUEMRThJgukorfOG0oIACIAACHiWgCzLoig2twdC0VjxKxmKxprbA+ZbSneWyp6Pi0xHOBy54qob6NOAfT37+Xr2o2+vvvZmQRDsKzN1+qz+A8/rP/A8NqaDzsHB7ltdM4FGeWBGUpZMuS0X1HREo9H5q9toBwkLIFA4AvNXt0WjUfNlyeYTnanpQHsmp88SNTEdXIwPRbrhpsTmLKfdFIrEuBgP05EWFBKAAAiAAAiAQHEIEKfQFQg3dwSLc0T2KM0dwa5A2HxL6c5SsSU3L7vIdLz9znsVlT6qNvqcPLDPyQPp24pK39r3PjBXgF1zz71Tdn71NTsxBzvJKJvSPE8HZiQ18CmTt4UzHZIkcRzn9/sxgKVw3XvkTAicPbHF7/dzXGa/zGdkOtCe06ImdwD+ECeIUql8fwqi5A9x5ruZUik/ygkCIAACIAACniQgSVIsFjvQ4udiaX7pz2/1uZhwoMUfi8UkyeJmxp2lsiHgItPx6muvV1T6UpW1otK3pG5Fqq10PfuwFbKSPmiWpiEL7OgVuok+e4WuwYK3CRTIdCiKQgazhUKhF95oRoccBApK4IU3mjOdjlRRFOemA+2Znj4b1CSsI8rFQpFYt0zWlel3tSwroUgsyql3M84HPWV6FKQHARAAARAAARDIlADpR3T6Q41tgaLdVMiy0tgW6PSnfJafO0tlw9YVpmPvvgNV/c6gw0lGXzmeLfHoK8fTTVX9zti77wC71bBsNh1kUlISssGGeFDTQWf3oEehC+woGMOB8NYbBApqOkRRJGEdt81poj0lLIBAfgncNqeJBHRk+st8pqYD7TktahLWEYpw7pcdRHOEIgjo8MalDLUAARAAARDwGgESQNHSHmjuCBZBdsiy0twRbGkPpAroIHzdWapU594VpmNJ3YqKSp/fH9jw4RZFUQyRHeTtvzduDgSCaSM7LE3H5q3bevXpv3nrNkVR6LQdVHCwT5NFTEeqhuLV9YUzHfRn8Egk0t7eDtmR3+49ciMEbpvT9J/WFYlEzFNkp/3MZmQ60J6doCZhHYIgENnh2mEsgiiFIrFQhBMEAQEdaT8pSAACIAACIAACxSdAfj7hOK6lPdDYFijoMBYuJjS2BVraAxyX5icQd5Yq1dlxkemgRbQ0HWRrdqaDCA5iNKprJix57XXyZBYa6EEPDdNBUZTJQqFNhyRJgiCEw+H29vZ59Y2D/oyRLMV4EEk5eJBBf26eV9/Y3t5OHi6bRX81C9NRnu05I9RUdkS5mD+kBnfEBNENo0NkWZEkWXvSilqwKBeD5iiTyxyqCQIgAAIgUKIEqFbo6AoeaPE3dwRD0Vgmz9mzq7csK6Ioq09a6VAz7+gKptUcJDt3lsqyquViOojsqKj0sREchMjU6bPocBXDwpBhI4PBkCU4rPQGgYKaDvIzOOkcRiIRv9/f3Nw8d2XD1dNU5fGTa9HnB4HMCPzk2tZBf26+elrj3JUNzc3Nfr+fRHNkoTkynaeDfN5pN97z7TkX1ISSKIqCIGjTdnD+ENcVjHb7n2Ze4o5DFMXsmo03vvlRCxAAARAAARAoCQJEK8RisWg02tEVbGrzH2jx72vqysvfgRZ/U5vqOKLRaCwWcz4O2p2lMp9QV5iOtevWs4qhqt8ZbEHZKTzUJ7CsW89uxTII5EKg0KaDlR0cx4VCIb/f397e3tzc3IQXCGROoLm5ub293e/3h0Ihjstp9EGmMR3kg0Zlh+fbcy6oZe0lSRLxHYIg8C54CdqLOg7MQprLtQP7ggAIgAAIgEBxCNBbr1gsxnFcNBqN5OkVjUY5jovFsgnzdGepDGfEFaZDUZS169YvqVtB/gxzju7dd4BuguYwnD+8zZFAEUwHkR3EfQqCQL+hwuFwSHsF8QKBdARIUwmHw5FIhFyWBEEg6j3r/mp2psPz7TmPqKnvkNz0IqXK8ZsTu4MACIAACIAACBSTAI0YpT+ikB8wcvlX1F65xHi6s1T0vLjFdNACYQEEikmgOKaD1Ih2e8jXSi5fTNi3bAmw16SsHQdpkFmbjjJpz/lCTT747vm3mF+wOBYIgAAIgAAIgEAeCRTidiL34rmzVIqiwHTkfnKRQwkTKKbpIJgK8V2APMuQQO6fuhxNR/m059xRIwcQAAEQAAEQAAEQAIEiE4DpKDJwHM5dBIpvOtxVf5SmjAnkxXSUMT9UHQRAAARAAARAAARAwL0EYDrce25QsiIQgOkoAmQcwp0EYDrceV5QKhAAARAAARAAARAAgdwJwHTkzhA5lDABmI4SPnkoem4EYDpy44e9QQAEQAAEQAAEQAAE3EsApsO95wYlKwIBmI4iQMYh3EkApsOd5wWlAgEQAAEQAAEQAAEQyJ0ATEfuDJFDCROA6Sjhk4ei50YApiM3ftgbBEAABEAABEAABEDAvQRgOtx7blCyIhCA6SgCZBzCnQRgOtx5XlAqEAABEAABEAABEACB3AnAdOTOEDmUMAGYjhI+eSh6bgRgOnLjh71BAARAAARAAARAAATcSwCmw73nBiUrAgGYjiJAxiHcSQCmw53nBaUCARAAARAAARAAARDInQBMR+4MkUMJE4DpKOGTh6LnRgCmIzd+2BsEQAAEQAAEQAAEQMC9BGA63HtuULIiEIDpKAJkHMKdBGA63HleUCoQAAEQAAEQAAEQAIHcCcB05M4QOZQwAZiOEj55KHpuBGA6cuOHvUEABEAABEAABEAABNxLAKbDvecGJSsCAZiOIkDGIdxJAKbDnecFpQIBEAABEAABEAABEMidAExH7gyRQwkTgOko4ZOHoudGII+mQ5IkQXvxeIEACIAACIAACIAACBSFQCgUCofDkUgkqr04jovpr6IcP88HEQSB53lRFHO7w03sDdORYIGlMiQA01GGJx1VJgTyYjpEUczzVQ7ZgQAIgAAIgAAIgAAIOCDAmg5Oe+miI+Zgb1cnEQQh9zt2mI7cGSKHEibQnaZD6FCEjhJmh6KXOIEcTYckSa6+QqJwIAACIAACIAACIOBpAqlMh2cqnWN8B0xHiXdWUPzcCHSj6RD33i7u+0tuxcfeIJA9gVxMBzSHZ+4hUBEQAAEQAAEQAIESJeB505HjYBaYjuz7CdjTAwS6zXRIEX7r//Af/VCRIh7AiCqUIoGsTQc0R4neD6HYIAACIAACIAACXiJQDqYjF9kB01GKPRSUOW8Eust0SC0v8Ju/z2/+vtT6UtaV+WbG2RXXrHG8+5qxlb5TZux1mF7NvPLsR3clJ6+/3mJlchK8KxUCWZsOL90ioC4gAAIgAAIgAAIgUKIEysR08Dyf3d01TEd23LCXRwh0l+kQPj2bmA7hs7OzRsmaDk1M+Coqk/9+/vQ3eu5qAvJWtRXJybS3SRJk19OnmNNcc/1Y88qfP/3CNcm5XbPmDcMauhdTHiVFMfSymSSLXhH8ny8C2ZkOTEFaojdDKDYIgAAIgAAIgIDHCJSP6chuglKYjnz1GpBPSRLoFtMhB9YTzUH+lYMfZshOjc7QjQBZ0L1A/fVxnaEoqkpImIU1Y5MCNPY++nPf2Hp6WDVDw9uKa9Zo9uT6N/RU38w4W7UhKcI6WO3yxjU0eIQ5blJ5tOJVJjLXD0L+Z/ZK3oB3eSSQnenw2C0CqgMCIAACIAACIAACJUqgfExHdmEdMB157Dggq9IjUATTIYe3y12rpfalUuvLUvMcqfEx4YsLWdMhfDFcanxM3dT6stS+VO5aLYe2OEHJygWSPmkNYxbikkJRdHmRZDrUlQknoqgRGXRQTP312rLmVvSVhvTmQ8N0ODl93Z4mC9OBGTpK9E4IxQYBEAABEAABEPAegbIyHVk8hwWmo9u7GyhAdxIogukQv76G9RpOlsWvr3ECJclrqDskhWYktu56+hQiMtQxKST6QzUd+nCVpL3UbCyHrhijSEgsSSIoI3E4RXMllukZn4LRK05OcUHTZGE6BEHw3l0CagQCIAACIAACIAACpUigrExHFmEdMB0F7Uogc7cTKILpUGRR3H2jE8FB0oi7b1Rk0Qk4Vi4oxC/8/OlvEp4iPqRFTaZ7B32IihajkdAf8bEwcfeh5pBQGClLkpyMLQxiOlJCc9MGmI5SvKdBmUEABEAABEAABECAECgr05HFVB0wHW7qeaAsRSdQDNOhVUpqmOFAdvxAanwsLQPL+T7HXnN9ha2eYOxDPPqjImlujqTxLGoZbGcM1Y2JmpA1KapS0WYkZQJGrOYQSVtJJCg8gSxMB24sQAAEQAAEQAAEQAAEXEKgrEwHYjoK3znAEbxFoGimQ1EUqX0pv+X4lL5jy/FSZ2KOUGeY2Zk7VVVBYzfiC/pokaSpN+LjU85+dAYzZWlygIZ6dGaaj+TCmJyIttkQ02EsCQkq0cvjbICMg7iS5JLhXUYEYDpccpuCYoAACIAACIAACIBAFgRgOuxvfRHTYc8HWz1OoJimQ5UdzXNSmQ6pZZ5z1rpWMJoOPZJCy4mqisR4Fk2FXLNGf34KnaGDnbZDL4XjmA6yg14k9R0TP8KUkJYnrlqSRAazi5af2bzo5cL/+SIA05HFLQV2AQEQAAEQAAEQAAGXEIDpsL8rhumw54OtHidQZNMhHvhbKtMhHnzYOWtdK2jTbWjhEqfMWMNMMqrlxJqF5KzVEA8SXqHqjOsfVSfySPIOavLUuydnFn+nF8mwkTEd7BaTyIDpYPEUZxmmwyW3KSgGCIAACIAACIAACGRBAKbD/p7ZLabj422fjr5y/KgxteTvlsl3k3LfMvluunL0leM/3vapfX2wFQQyIlBk0yF8+dtUpkPY8TvnJde9AOsR7EavxOcrVZ3I2Y/uUv0Ijf4gs36w827Ei2Eb00Hm42ALzJiOhH8xjWHR5+wwmg7TiBhjAvZQWM4PAZiOLG4psAsIgAAIgAAIgAAIuIQATIf9PbFbTMfoK8cPHX4plRoVlb6ly+uXLq+vqPTRlUOHXzr6yvH29SFbRVFsbmltbmlln7sry3Jbe0dDYxP5a2vvkGWZpLfZ5ORwSFO6BIpqOiSO33IcNR3Cp78Stp9B3/Jbeyoy74wkkRrEWejuQFFXUn+h5qMHZRCXQTdpb+MRHKqeiD+WJbOYDsZrxIucyOqaNUwtWBfDrDaIDPWtPrKGpDIkYHbFYr4IwHS45DYFxQABEAABEAABEACBLAjAdNjfFbvFdBCdQctaUelbUrdiSd2KikofXWlIQ9ebF1atfvuQw4871td3+6df0K3BYGjIsJF6v07tVlX1O+OjbdsVRbHZRHfHgicJFNN0yMEP4l5ja2/1GSsSp0ic+kyWrb3Jejm40RlkVR+MvYZICmo6nO2qRmqQXUjkRXx3gw1R89JFiWW+rOkg+1qMf1H3TGE62Ew1zaGJGGJwfCmyYvfBch4IwHRkcUuBXUAABEAABEAABEDAJQRgOuxviD1oOv4ToHHTLXcMGHj+SX1/PnX6LFp/ojMuG11DYjo2fLilz8kDTx0wuLml1WYT3R0LniRQTNMhNTzKb/aJe25RhNYkmEKruPtmfrNPanw8aX2KN6pl0B9iolsG01NX4pEa6jNfmWxUlaAOVEnIBWYjCayg6TMcvaJnRG1FiiLpJVfTkyPGzYueAZEsavlNYSZMEizmTgCmwyW3KSgGCIAACIAACIAACGRBAKbD/n7Yg6ajqbml32mDpkx74uprbz7znOFdXX6CgOiM6poJlMjS5fWHHH7cmrfX2WyiibHgSQJFNR1tr8qRz1NhlMOfSO1LUm1NWl9/vcW0GkkpXP0mMc6FtR7mIlvqGHMyrMmWgLtNx966h2fX7c/ioo9dQAAEQKDECWxaVDt3U4nXAcUHARAoBgGYDvu7YLeYjlsm382OK6mo9K1dt37tuvWGlXSmUptarVi5qvLbPf+1fsOiV5cdeUyvDzZsIonNOmNl/eqKSt+bq9622WRzIGzyAIFimg4P4EIVvESgSKZj/1u3T55Wa/e3aL3lzcCmRbWTrTaxGaqdgU0zLTJP2nH9XK0AD7+1j+f31c+lJ3PbAAAgAElEQVRGF8KStydXxk89bSFzNzENYNPMyUk2zZiY7qUuJFpUcjIth/1v3a61LsJwX/3s2+v3xnmqzThV+086uif5o1LJrcWiJSSaShKsvXUPT0uxide+9NB4kniV3hvTl4Z+YUq2/JbOS70ILlrPq41kZmohtn6u3dYEMe2SmrqxJRJiyZ0EsjEd8SakVki9JhovUoavF+Zaadkgi8sl0/twt5gORVGWLq8nc3MsqVuxdt16UpO169bTlUuX16etniAIo68cP/CsCzo6u77ZvffEH55+88Q7yV4GneH3B0aNqT3xh6d/s3uvzaa0R0SCkiYA01HSpw+Fz4VA8UwH0wnkNy2qZd8yl1teu98yXXGZvgH5kZPeIMavuJtmMr1Q7YIbX0Ov38w9HHPBLu61GUfrbgKqEdN6BVSNza7bv3efo7ihpDbG9B/0Pgltk+SukW3hhgafoKDvm1iDJQ8SYFoLz5u6puvnJnRGOieS6HuwKo1+yzHfnImUHgTqmSrpXxp251275KkJDAE+8evm3n377WRHcttjwNnpV3rBTbhdZk8supFAHkxHUgMz3SYlrmJ27a1oaDK97/Wa6SB2466/PqQoCrEe/U4b1NTcQqcdPezonr369Pf17FdR6Tvs6J4vL1DHCxDTYbkpU6BIX1oEYDpK63yhtHkk4ErTkfLuKvFTvH6DqEoT9fKc1AvVrrVJa9L1ChI9jaJdp3GgYhFQb8v0RsL0FpLv22gvwqrTaHHfr/UfyA2fbiv0Nqn2SVjNof76jpiOYp1tVx4nubdp7CcYTAfjZA2VYfsem2aSNqZFvdUZg9TYlIZM8NYlBLTvpfiv6HEtlbjAqTrM4KpMa9hfCBJ1YrOlX1xJC/EAkMTP8uoutNWpZYh/fSVdQxNHwJIrCWRqOli5dnv9XqsLX1ILTHxNpbqcGa56BaaU6W2wW0xHvkavvLLwNcOAl0MOP27V6repzjj3/BGvLV352tKVK+tXt7V3EF7EdFhuyhQo0pcWAZiO0jpfKG0eCRTPdBgDI5PuvRLjAqzv3uLXzMSNoN6rZEyHIcOksQaM6TD3Aejv/AW+MiP77iMQv42bu8hqlJOz6O5km5bSdCT6D0xtE1aFWakumnovhu146wkCbKeCCbtIfGXRfmaiO2FR8cR31/q5pBMSlyaJL8b4XomUFtlglXsI0AuZ0yLRYLRE49FbVFKT0POLtxD9LZ8s3dS3tUyYW7wdkq5s0i/8NAMsuJRApqZDrYbt7VZSPdUmkdzAUl7UkvYr3JtMb4PdYjoMT5DN7imz0Sh30cgxpw4YvGBRHdEZL85f1LtqwNXX3izLsmGICkvKZhObDMveIwDT4b1ziho5JFA808H6fsM1kr3cssumi2Tihp7eIKaJ6bD4gSt+M6fnkMjTdDis8AgB7cbdcii7ZkD0X67UtmfuP5jXqOlTmg6PIEM18kkguXtp0fnM0HQw3V2tO6o1Y0ND1Vt1PuuBvPJNQL8MpR62GZ+JQ9UZ7DVUGwOV+IUgUS5D6zI6L6Ypqq0ocTVUlzcZgzsgOxJg3b6Uk+lgwjRmbor7L82gkQBbch+lfqUk7pcMd3FFx+PwFpcm85Tp2P7pF8f6+t77wDRaPfLEWcvJOGgaGu7BPpaF3YplDxOA6fDwyUXV7Am40nQYbtmT35J7L7ZTqq4hcbYpo23VX0ofpkG52jWZ3mIW/QqNAxaTgHpn9vBb+9gGY9AZDy+a+fA0/Qer5KKl9m5G07HJ0pIs+ofFNG/J7VkvjKWISS4N3pUqAaZ7mbd5OtS+sd71TXQ/4oSM/dtSBef5cse/l2bXbUqczURrYb9/kjuW2hC52ZqZNSitZNNhis5IZK6zJZqMfv9oOavzduNVWgSyNR3ata9+EXFepHnojWRv3cOq6dBayOzb1eFU8TUqGUaOkKgi2oSKw83+zta81VOm48mn51V+uyd92Aqp7arVbx9y+HGvLHzNJnDDZpMZGdZ4iQBMh5fOJuqSEYHimQ69R6eH2hr6e/rcHMztu/l6mbihp8lITEf8bcJ0aNfmRJ4zH9YehLFJvZyrm0jX9+G39qlXaz2Z+XhY4xkCtMEYamRcn9xF1PohiRs4JrF2L0jGnugjUMhWtnPCHCvRdJmVWCwTAhmNXkm0NyMdpnEmNzNT62JSGjPBe5cQIL+T65Eaxu8WrZDsWWZMh9qc5m6KDz0wfEclzXcbH5ipNb/4ZU7vxGr5k86q7ssSXLQ86dRFifVYcjGBTE2H/qWkNQxGW5hjOrSxcvpljhJgGiRdV8yFjG50FUVxi+kYfeX4ocMvJWNYRo2praj0LV1ev3R5fUWlj64cOvzS0VeOz7SGSA8CNgRgOmzgYJO3CRTJdBgmLzBcI1Pcz9ldNel9oYXpIHeQ1F/srZv71vrEIz/jN3/0F9H4XaPdwbCt9AnQBmOoinm9dpfPBnXHg8bVe8HZdZv2kl87tQ4D6U/qt4B6Vkl9ifjh9DSGo+NtWRAwnP3kX915NVZcH71i3JQKj95LUX2xk9kEU+WD9d1MQP/SsB29opVRv2iqp564icR1UxvNFB9pojchre+qt6v4z/L6sLt4YFHt5Nm3q+Fs1n8z56rzKNMcuhkUDp+OQKamQ80v0YQSuVtdv6ymlNIbZGLP4i5lemfuFtPx8bZPR185nkqNWybfTWpyy+S76crRV47/eNunmdYQ6UHAhgBMhw0cbPI2geKYDmZCUO1iaLhGMpdbY8pU1056g0hMR9ykaDd8k5nna2iBl6QnQO7Y4gEd5Bof/y1Ldx+pjoX1HiCg+Qvre3rzT5rq76KL6upn3z530e2T1QVtR+rOdBwkT7o7bZNMe9aT6i3TqlOBvoROyav/J2LNtBrqfVG9uozpMKTUU6T7HzEd6Qi5dTv7paF/kyS6muw3iXbRXM8+ZIfdmgjlUFuX9feVlkPd3KQJmJm2xyIyNlF2G5bdSSAH02F3edJDewy61mL0SpEvZJnembvFdGRabqQHgbwQgOnIC0ZkUooEimM6Erdu5B4hpelwfINFOpmk3zh3k+5HkvsJ+9+aWb93/Vy1gxpPoO6lj2qmt5hkGKp+l+nOmxiUKh8EkpsHOe+WU+6RUF4aH6796q7f8CUKQjoJaieTDIAytChHo6IcN/jEYbFUagSYhqEV3XjSE71Nwxdjmorq/RPtCzC5fWL0Shp2btlM2wZd0L5t4iOYWJdhbhvs1kR9jK0rsUVbMlyLE20vKV2aTJLS4o07CORgOhIVWD9XDfO5/eHZpjF0VqajW++aMr3fhunIlBjSe4oATIenTicqkwmBYpgO8w2Z4aaNJjCsT1x/TUvMfaE2HSnxF8ldWWbIjK5CmHyScmDWY9HDBMgIlP1qDROGgq0vcRz0Bo62zHj6xM+hieAgMjfb3E3qDG0Pq+Ok4n1O5ljsEZKX0SNN5uHFd6bOpLEbqScwrk8NQ03JTjCEmI7UrNy9hV6G1K8ay1EkWigZ3WppZpOqmKYVmU2HdaRb/NGzSVnjjZsJ5Gg6tAuieoEjLUQbH8eGMcJ0ZHJjjbQg4DYCMB1uOyMoT9EIFMF0WFiGuNEg9+va7Z12A2e4CXN4V8Hc5Sf3G1OZDtKbTR7k4vBYSFZ6BOjptu5I0N7F7Lo1qqqg03DEOwBJXQvSYpNSUiDkTjFNBC/tseiFSZOe5o6F/8/evYDHUR12/++j5P9GSUmfhvb5i7wljZsnpk9ISYC2JIQ3yetQSJM0rUkLbWj6UCKRlBITSJUEB0oIIQRXjmOwwYBrIECICRhjZMsYbGP5KnyRLRtsMLZ8ka3brvZ+v83b3SMdj2Z3R7OrnZ3LfvfZx8zOnDlzzudItvTjzBmnCkyOX/O9mPhd9MxXZiGolb/0VtbTiZkdE19R6l9ci/7HbGVVU9pMgYl//sTfMCVHfzxplb9kTpxSaqwn1tSY+Oqa3HTxt1PxXS0TKdvk0vJLVLObjzYWqDDpmPhaEhm9akEW1Y9hhb9bxv9NlF+EEwTG/7/UxBm1/W+lPyQzp6NSMcq7SoCkw1XDSWcqEahD0lHbf96Kapv0D7B6ob7Szw0tOp8dCCCAAAIIIICAcwUqTDqc29Hxllfyc26+LElHpWKUd5UASYerhpPOVCLg/KTD8f9g0wEEEEAAAQQQQKBqAZIO/Z98STr0fTjqcgGSDpcPMN0rL0DSUfUPFpyIAAIIIIAAAghYLkDSUf7n3PwRkg59H466XICkw+UDTPfKC5B0WP4DCg1AAAEEEEAAAQSqFiDpKP9zbv4ISYe+D0ddLkDS4fIBpnvlBUg6qv7BghMRQAABBBBAAAHLBUg6yv+cmz9C0qHvw1GXC5B0uHyA6V55AZIOy39AoQEIIIAAAggggEDVAiQd5X/OzR8h6dD34ajLBUg6XD7AdK+8AElH1T9YcCICCCCAAAIIIGC5AElH+Z9z80dIOvR9OOpyAZIOlw8w3SsvQNJh+Q8oNAABBBBAAAEEEKhagKSj/M+5+SMkHfo+HHW5AEmHyweY7pUXIOmo+gcLTkQAAQQQQAABBCwXIOko/3Nu/ghJh74PR10uQNLh8gGme+UFSDos/wGFBiCAAAIIIIAAAlULkHSU/zk3f4SkQ9+Hoy4XIOlw+QDTvfICJB1V/2DBiQgggAACCCCAgOUCJB3lf87NHyHp0PfhqMsFSDpcPsB0r7wASYflP6DQAAQQQAABBBBAoGoBko7yP+fmj5B06Ptw1OUClSYdM1s98u1yGrrndgGSjqp/sOBEBBBAAAEEEEDAcgGSDv2f1kk69H046nIBkg6XDzDdKy9A0mH5Dyg0AAEEEEAAAQQQqFqApKP8z7n5IyQd+j4cdbkASYfLB5julRcg6aj6BwtORAABBBBAAAEELBcg6Sj/c27+CEmHvg9HXS5A0uHyAaZ75QVIOiz/AYUGIIAAAggggAACVQuQdJT/OTd/hKRD34ejLhewJOnYcSj1cFfs4a7YjkMpl/vSPRsLkHRU/YMFJyKAAAIIIIAAApYLkHTo/6BN0qHvw1GXC9Q56YjEc99+ICjXNJ3Z6vn2A8FIPGeq8sAK78xW77JTky/yuq/EzslF+ORuAZIOy39AoQEIIIAAAggggEDVAiQd+j+rk3To+3DU5QJ1TjpEzPH0xngknovEc09vjIuwoxLl8PdUz39RhyaqbVWucSrwd8XlH/CVqGRu4PkHzjxZJl/bA+FNmj2yqrmBAdnofGgy+cRJH1WNkaewYQMBko6qf7DgRAQQQAABBBBAwHKBcklHMpm0vG1mNKDSH59JOioVo7yrBOqZdOw4lJrZ6nl6Y1wtKMKOWt3GIoKJv1sRm7hEIRZ5IFyY1uHbNLF3YIU3X6bMtI584QfCouymBzwTtYW/JyeGvO6bqU06zlQ+cRHxX9VZkw/wyXIBkg4z/g2mTgQQQAABBBBAoD4C6qQjHo8nEonkxKs+DajzVSr94Zmko1IxyrtKoJ5Jx8NdsZmtHs29KpF4bmar5+EumU1UyyvmbqgDCEXJBx8TmUU+18hvj2cf4jL5UGPyKYqikHRUOwYOO6+KpCMYTfJGAAEEEEAAAQQQQKD+ApX+qE3SUakY5V0l4I6kQ0zl+N7rRUNT8taVSbeWyLtOzkzK0CQdpe9MUecj3L1SBO+IHVUkHY7oF41EAAEEEEAAAQQQQICkg6+BhhaoZ9Jh0t0rJedljA9qPuk4E2GUHenJxTRJB3evlHVz+AGSDocPIM1HAAEEEEAAAQQQKCtA0lGWhgONIFDPpENRlFqsSKodFr2kQ5TVnXOhngmSr0o946OwIunUSYe2RXx2hgBJhzPGiVYigAACCCCAAAIIVC5A0lG5GWe4SKDOScdYKPvFOyY9qeSv7/D7w0afMlv2SSjqeEJuyxtMNAuInhm+2LK5HnXSIY5o5nRMyj6KKzd0g4yBeSVnWsVWnQRIOuoEzWUQQAABBBBAAAEE6i5A0lF3ci5oJ4F6Jh37j6Uvvy0fc1z6vbGv3ROYfbf/0lvzcyi+eLvvwPF01So1nNMh2qBJOqaY0zH5zhelsAzqxCmF+ooKVN1TTqytAElHbT2pDQEEEEAAAQQQQMA+AiQd9hkLWmKBQN2SjmPDmQtu9P7VXN+WN1Lqfm7an5z1Q98FN3qPDWfU+41vG0o65PwOA/Wqkw5V8TLPiy0KMlQPpi2cXVRAVSebVgqQdFipz7URQAABBBBAAAEEzBQg6TBTl7ptL1CfpCObU66623/Zf4yFYyVuVAnFcpfeOva1n/qzJQ5OLWgo6ZB3nZTckE+iLVxNlXQUHklb8pRW77JThdLaIKPojhhtgal7RIn6CJB01MeZqyCAAAIIIIAAAgjUX8B2ScfwyOizz704b/6iZ5970ecPVCoyODQ8Y+bFTc0t5d7z5i8qrnN3b99Fl3xhcGi4+BB73C1Qn6Tj9bdSM1s9G/Yly2G+sic5s9Wz8+1J0z3KFdbsN5R0lJ/Toco1xivO7xHpxqQExNicjnyuUXhyrTyXpEMzYLb5SNJhm6GgIQgggAACCCCAAAI1FrBR0tG3/80v/e3X3/2+D8qQ4g/OOW/VS2tr3GNVdTqxyKwrZofDEVVZNt0pUJ+k46HV0Y99y6MzZSOdUT72Lc8jXbEqlGuYdEyseFpyAdEySYe6xYWYo7BIR35mRyEuKVmV+hy2LRMg6bCMngsjgAACCCCAAAIImCxgl6Rj246dv///f/Rv//5ftmzryeVysVj8lVdfu+zzX3nf7//xvr43TEIYHBqedcXswaHhztXr1NGG5qNJV6daOwjUJ+n49weD//Azv35/r7rbP+ehkH4Z1VEZJeQDheLnp6hKKoruU2bzeYScfzHptEmXKPEEFvU8kfGpHBO3tMh6xi9N3iFFbLRB0mGjwaApCCCAAAIIIIAAAjUVsEXSkc1mP37h//mbq/45m82qexcOR877+Kevuvpf1TtruK2+aUWdbqi3a3g5qrKhQH2Sjt4j6d4jUzxdxUgZuwGeuc9FnXoUt/LMXI/iY+yxTICkwzJ6LowAAggggAACCCBgsoAtko6enXuamlt69+0v7mzX2vVNzS3veu85H/nTv/jOLbcFg8b/p3dxZWf27O7tO+vsGfI2mXIb17XOOXMOW24UqE/S4UY5+uR4AZIOxw8hHUAAAQQQQAABBBAoI2CLpOPV9ZuamlsikWjJRu7re2PDxs13/2z+Rz92yawrr8rlyj6gonP1unKZhXq/vFFFzumYN3/RjJkXyxVJmdNRciBcuZOkw5XDSqeMCJB0GFGiDAIIIIAAAggggIATBWyRdLzy6mtNzS1TrgD65NPPNjW3HHrrHYPQ17XO0ZmUIZYj7Vy9TtS2u7dv9tXXPbN8hchESj6ixeB1KeYgAZIOBw0WTa2tAElHbT2pDQEEEEAAAQQQQMA+ArZIOsZ8/qbmlvUbuvVdhoZHmppb1r2yUb+YONq5ep16mobmlHA4MuuK2TLm0BzlY+MIkHQ0zljTU40ASYcGhI8IIIAAAggggAACrhGwRdKhKMoFF3/uy3/3dX3W1zZtbWpu6dm5R7+Yoiia+RolUw+dR8w2NbecdfaM3b19U16IAk4XIOlw+gjS/qoFSDqqpuNEBBBAAAEEEEAAAZsL2CXpeG3T1ve8/9zv/sftJVfrSKfT3Vt2XPmVa8750Mfj8cSUpte1ztHcfjI4NHzRJV9Qhxdyj87GlBeigNMFSDqcPoK0v2oBko6q6TgRAQQQQAABBBBAwOYCdkk6FEV58+Dbl33+K+qlQzXb7/v9P16xsnNK0HnzF8nlOYqfsSLvWNEJOOShKa9FAacLkHQ4fQRpf9UCJB1V03EiAggggAACCCCAgM0FbJR0CCmPd2zP3v2burcVvwdODU6pqXn8inzMijhxcGh41hWzB4eGr2udo4lRSn7UnD7l1SngOIFKkw7HdZAGI1BOgKSjnAz7EUAAAQQQQAABBJwuYLukw+mgtN9ZAiQdzhovWltDAZKOGmJSFQIIIIAAAggggICtBEg6bDUcNKbeAiQd9RbnerYRIOmwzVDQEAQQQAABBBBAAIEaC5B01BiU6pwlQNLhrPGitTUUIOmoISZVIYAAAggggAACCNhKgKTDVsNBY+otQNJRb3GuZxsBkg7bDAUNQQABBBBAAAEEEKixAElHjUGpzlkCJB3OGi9aW0MBko4aYlIVAggggAACCCCAgK0ESDpsNRw0pt4CJB31Fud6thEg6bDNUNAQBBBAAAEEEEAAgRoLkHTUGJTqnCVA0uGs8aK1NRQg6aghJlUhgAACCCCAAAII2EqApMNWw0Fj6i1A0lFvca5nGwGSDtsMBQ1BAAEEEEAAAQQQqLEASUeNQanOWQIkHc4aL1pbQwGSjhpiUhUCCCCAAAIIIICArQRIOmw1HDSm3gIkHfUW53q2ESDpsM1Q0BAEEEAAAQQQQACBGguQdNQYlOqcJUDS4azxorU1FCDpqCEmVSGAAAIIIIAAAgjYSoCkw1bDQWPqLUDSUW9xrmcbAZIO2wwFDUEAAQQQQAABBBCosQBJR41Bqc5ZAiQdzhovWltDAZKOGmJSFQIIIIAAAggggICtBEg6bDUcNKbeAiQd9RbnerYRIOmwzVDQEAQQQAABBBBAAIEaC5B01BiU6pwlQNLhrPGitTUUIOmoISZVIYAAAggggAACCNhKgKTDVsNBY+otQNJRb3GuZxsBkg7bDAUNQQABZwh0LFne1t6heb915KQzWk8rEUAAgQYTIOlosAGnu5MFSDome/CpgQRIOhposOkqAgjUQoCkoxaK1IEAAgjUSYCko07QXMaeAiQd9hwXWlUHAZKOOiBzCQQQcJMASYebRpO+IICA6wVIOlw/xHRQT4CkQ0+HY64WIOlw9fDSOQQQqL0ASUftTakRAQQQME2ApMM0Wip2ggBJhxNGiTaaIkDSYQorlSKAgHsFqk463jpysvjtXid6hgACCNhCoOKkIxhN8kbANQIkHbb4e4hGWCFA0mGFOtdEAAEHC1SddGgWMRUfHQxB0xFAAAEnCFScdDihU7QRAaMCJB1GpSjnOgGSDtcNKR1CAAFzBUg6zPWldgQQQKCmAiQdNeWkMqcJkHQ4bcRob80ESDpqRklFCCDQGAJmJB1V19kY5PQSAQQQqF6ApKN6O850gQBJhwsGkS5UJ0DSUZ0bZyGAQMMKVJ1K6Ny9UnWdDTsKdBwBBBAwKEDSYRCKYu4UIOlw57jSKwMCJB0GkCiCAAIInBHQSSVWrdvasWS55r1q3VZxMknHGUS2EEAAgXoJkHTUS5rr2FKApMOWw0Kj6iFA0lEPZa6BAAIuEtBPOorjDJIOFw0+XUEAAecJkHQ4b8xocQ0FSDpqiElVzhIg6XDWeNFaBBCwXKBWSceNt/3yZw88LbrTsWT5LXcu1qQkbx05aXlnaQACCCDgdAGSDqePIO2flgBJx7T4ONnJAiQdTh492o4AAhYITDPpuG/xM+s27Tr4zgl/IKxufSQaf/vowMZtexc99oKIPEg61D5sI4AAAtUJkHRU58ZZLhEg6XDJQNKNygVIOio34wwEEGhogaqTjo4ly/e9ecSI3VtHTj781EskHUasKIMAAgjoC5B06Ptw1OUCJB0uH2C6V16ApKO8DUcQQACBEgJVJx2yrmMDQ2vW7+hYsvz2ef/9ndvvv+n2++f+fOnPF/+6a0PPiVPDstio1y+32UAAAQQQqE6ApKM6N85yiQBJh0sGkm5ULkDSUbkZZyCAQEMLTCfpGBz2Ln1mtWY9Ds3Hh3616nD/QEMT03kEEECgdgIkHbWzpCYHCpB0OHDQaHJtBEg6auNILQgg0DACFSUd37nj/iPHTwub7bvf+O6dizS5RrmPz6xc3zCidBQBBBAwUYCkw0Rcqra/AEmH/ceIFpokQNJhEizVIoCAWwUqSjq2vL5fODyzcn25UKPc/h/9fKlbDekXAgggUDcBko66UXMhOwqQdNhxVGhTXQRIOurCzEUQQMA9AsaTjmdXbRTdfvjJl0rGGd/+4YL//K/H7vrFEzfO/WXJAvctfsY9cPQEAQQQsEKApMMKda5pGwGSDtsMBQ2ptwBJR73FuR4CCDhcwGDScfcvnxQd3brzQHGKsXLtlhOnhtOZjMQYGh1b+9rO4pIvrN0iy7CBAAIIIFCpAElHpWKUd5UASYerhpPOVCJA0lGJFmURQAABxWDSsWFrr6IowVDkRz9fqs4v5v586eCIt5zjydMj7T9doi7f1t5x4FB/ufLsRwABBBDQFyDp0PfhqMsFSDpcPsB0r7wASUd5G44ggAACJQQMJh2JZEpRFM3yHP8+95claiza9Z3b71eHHfMe/E1REXYggAACCBgSIOkwxEQhtwqQdLh1ZOnXlAIkHVMSUQABBBBQCxhJOsQKHZlM9tYfL1ZnFq9t36uuqtz2W0dOqs9qa+944+1j5QqzHwEEEEBAR4CkQweHQ+4XIOlw/xjTwzICJB1lYNiNAAIIlBZ468jJkm9FUeR+XyCkKMqhd06oA4tlv+kqXWOpvb/67cvqc5/r3FSqFPsQQAABBKYQIOmYAojD7hYg6XD3+NI7HQGSDh0cDiGAAALTEVjRtVmdVmzdecB4ba/vPaQ+995FvzZ+LiURQAABBKQASYekYKMRBUg6GnHU6XNBgKSDLwQEEEDAoICcsjHlhqjwseVr1WnFsZNDBi+UX8o0HFWf+8OfPWr8XEoigAACCEgBNycdix9fufjxlbKrRjZ69hwsecrh/oE75i0b8wcVRenZc/CehU/F4gkjFVLG5gIkHTYfIJpnngBJh3m21IwAAi4TUEcP+tui4wsefU5dTKxRatzkrl88IU//9g8XGD+RkggggAACUsBtSUfPnoPy34aSGz17DiqKMuYPtt896VFeK9ZsFilGyaRDHZpoko7Fj68UdUpTNhwkQNLhoMGiqbUVIGDYNM8AACAASURBVOmorSe1IYCAiwVK/khZcmc8kVQU5cEnXlQf9fnzi3cYf91614Py9Lk/X2r8REoigAACCEgBGyUd2Wz21JAnEIrIxsmNQChyasiTzebknnIbmhhCXSwWT9yz8Cn9VKLknI7D/QP/cfdDh/sHRG3qS6xYs7n97iV9B4+oL8S2gwRIOhw0WDS1tgIkHbX1pDYEEHCxgMwdptwQ83+fWvGKuuSblTw/5eTpEfW5Dz7xooth6RoCCCBgnoBdko6tOw/MueOBtvaOG77fcd+Dz8jsYN8bR+5b/MwN3+9oa++Yc8cDPb35GRk6L3UMoSmmn3SsWDNp7Sjxb4yIRdQTOtR3ryx+fGX73UvEP2maa/GxIoGePQc3bustPmXjtt4pR7z4rIr2kHRUxEVhNwmQdLhpNOkLAgiYKqCOHvS3T54eURRl1bqt6mIbtpb4Iadcgzft2Kc+d9W6reVKsh8BBBBAQEfAFklHLJ646UcLH37ypaGRsRGPf/X6HTd8f/5r2/Zu2Np7w/fnr1nfM+LxD42MLXly1XfvXJRMpXT6Y/DulXI1rFizWdy9ImMRUaH6lpaePQfvmLfsjnnLiDnKMVa6f9P2/D/qXRt71Cd2bexpa+/YtGOfemfNt0k6ak5KhU4RIOlwykjRTgQQsFxgyoVI1QUURTk15FGnFfc+8LTxLmjW+Og9cNj4uZREAAEEGlAgV+Zli6RDPHV8aHRMDsyGrb3iX4hN28/8ont62NvW3vFO/ylZrHjD4JyO4hkcN92+8HD/gCbpWL9lT/vdS4rndLS1d7AoaTH+dPaIXEOGHZqP06lZ/1ySDn0fjrpYgKTDxYNL1xBAwHKBnz3wtDrsWPrMaiNNemXzbvVZd/3iCSNnUQYBBBBoKIEyyYZ2d7DwknlHNBqNxWLxeDxReCULr5Tq9TtmIB48fKKtvWNo5EzS8dzqTeIv+udWb5JXHBzJJx2HjpyQe4o3DCYd4sTiVTkWP75SLE065g/eMW/Ziy9vXbFms7rY4f6Bm25fSMxRLD/9PTLdkBvTr3PKGkg6piSigFsFSDrcOrL0CwEE7CCwffcb6syirb1j/6Gj+g3rPXBYc0r3jj79UziKAAIINJSANszQ/axJOiKRSDQarXfSEQxFv/WD+Q8/+dKIx3fk2OnFj69sa+9YsWbzc535vOPBJ1YeGxg6PexZ8uSqf/vhgnA0pjOcxu9eicUT85c8K9cZVRRF3rEiHs5yx7xl4qhMOlas2XzPwqde276XpENnCKZzSGQcxXeyTKdO/XNJOvR9OOpiAZIOFw8uXUMAATsILFz6vCa5ePK5dZ6xQHHborHEQ7+a9LiWtvaOG+f+srgkexBAAIHGFNDNNPIHs6qXKFwy6ZDTOuo0p0NRlM09+8WKpOKfhDXrx5dsWLl2i/xHYs4dD2zb9Yb+0Bqf06HOL8QyHIf7B+6Yt0ysMCrmdKiTDnlji+YS6pL6beOoEYFXune90r3LSMmalCHpqAkjlThRgKTDiaNGmxFAwEECBw8flz/Eyo1bfrz48WfXbtq+b9Tr9wVCu/reenbVxrt+8YQsoN7oPznkoP7SVAQQQMAMAZ2MQ1GUXG7S41nFRxF8BAqvYDAYCoXC4bCY0yGSDjGzI5lMqm5eSZly94oQyWZzA4OjJ0+PxOIJtVEsnjhxauT0sLeGT5mNxROLH1855g+KOSA33b6w7+CRexY+JW5dURRF/WRZmYmIVmmSDnU+om42244QIOlwxDDRSDMESDrMUKVOBBBAQC2wfssedXJRxfbgsFddIdsIIIBAQwmUjDkMCsTj8XA4LGd2hMNhuVSHvIelTkmHwRbrFzN494osJmZziI/qe1LU+YV+0qEJPvSbx1G7CZB02G1EaE/dBEg66kbNhRBAoJEFDrzVX0XAoT6FsKORv37oOwINK1Ay49DM4NDHEfeniLxDPa0jXngVr0tq4pwO/YYaPKqTO6iX4dDUps41xCohbe0d8smymqRD1KP+F6hnz0FNhXx0igBJh1NGinbWXICko+akVIgAAgiUFDhxavgXj/xW/aNjue3b5y0rLnnD9+cTdpSEZScCCLhVQBNzZLPZKnoqkg7xZywWK9zCMj6tIxaLqZMOcRuL3ZOOKgg4pZEFSDoaefQbvO8kHQ3+BUD3EUCgzgLrNu360c+Xlss4Fjzy2607D4gmPfLUS5pit/54MWFHnceLyyGAgFUCNYk5FEVRJx2pVCqRSEQi0Ugk/6xZzbqkoiRJh1UjznVNESDpMIWVSp0gQNLhhFGijQgg4DaBI8dOr1q39cnn1y167IVHn+5ct2nXgbf6vb6gpp9Pv/CqJuy447+WEXZolPiIAALuEyiOOSq6Y0UNokk6UqlUMpmMRmOFd/5xs/F4XF2GpEOtx7bjBUg6HD+EdKBaAZKOauU4DwEEEKiHwIsvb9WEHXfOf5ywox70XAMBBCwSKI45ptMQdYohVh5Np9PJZDISFSuTxuQTWJjTMR1nzrWpAEmHTQeGZpkvQNJhvjFXQAABBKYlsGrdpLBj1bqt06qOkxFAAAF7C6iTjmw2W/VsDtHLkklHOp3O38YSjcZi8Vgsrl6tgzkd9v7qoHUVCpB0VAhGcfcIkHS4ZyzpCQIIuFdAhh3EHO4dZHqGAAJ5AU3MUd0qpGrKcklHJpOJxeOF5Trk02YTyWSSpEOtx7bjBUg6HD+EdKBaAZKOauU4DwEEEKirwKp1W4k56irOxRBAoO4CxTFH1RM60ul0PB4vXpE0lUqlC69MJpNKpfL3sMRi8XhCph0kHXUfdi5opgBJh5m61G1rAZIOWw8PjUMAAQQQQAABBBpGQCYd2YlX1V0/fvz43r179ZOOTCYTj8fz97DklyUdDztIOqo250Q7CpB02HFUaFNdBEg66sLMRRBAAAEEEEAAAQT0BGTMkcvlRNChU7qvr2/b5FcwOOnxVVu2bHn55ZfF4qPyBha5Imk6nc4UXvlpHeKRs4WwI5FIkHTosHPIeQIkHc4bM1pcIwGSjhpBUg0CCCCAAAIIIIBA9QIy6ZiYz5HTqauzs3Pjxo0y6+js7Ozv75flDx8+/FLhtXv37kQiv/qGeBUnHZlMRjyCRS7YQdIhGdlwgwBJhxtGkT5UJUDSURUbJyGAAAIIIIAAAgjUTEDGHGJCRyaTyWanSDpOnDghL7927VqRdJw8efK1114TMYf4s7Ozs6+vTyfpiMfj4w+cLUzrIOmQqmy4QYCkww2jSB+qEiDpqIqNkxBAAAEEEEAAAQRqJiCTjmzhlclM8XDZzs7OkklHMBjcv39/V1eXjDm2b98+MDCgk3TkHzcbya9Mmp/WEY+TdNRsUKnIDgIkHXYYBdpgiQBJhyXsXBQBBBBAAAEEEEBACMiYQ67QUXXSISqMRqMi7BgZGRm/caXwn5J3r6RSqXA4LFfrIOngy9JVAiQdrhpOOlOJAElHJVqURQABBBBAAAEEEKixgCbpyGQy6XRG/xr663QoitLX19fd3T3ls1fEuqTjSUdhWgdJh748Rx0mQNLhsAGjubUTIOmonSU1IYAAAggggAACCFQsIJMOeetKOjNF0jHls1eGhoYOHTpkMOkIhULhcFjcwELSUfH4cYKdBUg67Dw6tM1UAZIOU3mpHAEEEEAAAQQQQEBfoIqkQ79C9dEp717JZDLBYFDewELSodZj2/ECJB2OH0I6UK0ASUe1cpyHAAIIIIAAAgggUAMBddJRuJ0km0qna1BvoQqDSUcoFBLrkpJ01EqeemwhQNJhi2GgEVYIkHRYoc41EUAAAQQQQAABBPICMuaQz5dNpzOpdDqX03vK7MaNG8XTVeSfIyMjiqJ4vV65R2ysWbMmkUiIvKPciqTBYJCkgy9HdwqQdLhzXOmVAQGSDgNIFEEAAQQQQAABBBAwRaAo6cimM/mkI5vN6lyvs7PzzTff9E68urq6+vv7FUU5efJkZ2fnxG7vW2+99fzzz8diMZ2kIx6Pi18GxVIdzOnQYeeQ8wRIOpw3ZrS4RgIkHTWCpBoEEEAAAQQQQACBigVk0pEtvDKZ8aQjo7soaWdn54kTJ+TFurq6jh49qijKiRMnOjs75f7Tp09PmXREIhGSDinGhtsESDrcNqL0x7AASYdhKgoigAACCCCAAAII1FigXNKR1l2qo4ZJR6Dwko9fYU5HjQeY6qwVIOmw1p+rWyhA0mEhPpdGAAEEEEAAAQQaXKBc0pFKpXRuYKlV0pFIJMbGxpjT0eBfhG7uPkmHm0eXvukKkHTo8nAQAQQQQAABBBBAwEQBnaRDZ1pHV1eXZuXRkydPKopy+vRpzf4XXnhBZ0XSUCjkpKRj5ao1z614SfNeuWqNieND1Q4XIOlw+ADS/OoFSDqqt+NMBBBAAAEEEEAAgekJyKRj4tkr4+t0pFKpRCJRblpHOByWy46KDfGsllwup9nv9Xrlg2Y1z15JJJJe75jP53PMnI4//OCfNjW3aN5/+ME/nd4QcLabBUg63Dy69E1XgKRDl4eDCCCAgKIovfe3P7pySFKcXnlfR1u76n3f+sH8wd771TtLbD/bU6ij57GO+3vz/+tx5X2FaofW31aoYbDr0du6TsvLjG/0Ptv2WL70YNejky4q6y8c1Z7FZwQQQMAhAkVJR0Y8ZTaVSiWTyVQqNc1+yJhD1JZKpdKFVyaTCQQCIulolKfM7u7tu+iSLwwODSuKMm/+Ik1ictbZM3b39knuwaHhiy75gtjTuXrdda1z5CG5EQ5HZl0xW1OP5uOsK2aHwxF5itxQN0buZKPmAiQdNSelQqcIkHQ4ZaRoJwIIWCAwtP42GShMbNzW1TueUOg3aCKhKFVKZByFP3vHYw5FUXoeU+cpE+dN1KOfg0yU5r8IIICA8wRk2JHNZjP5VzaVToukIx6P69zDYqSr5ZKOSCQyOuoZy0/p8Dkg6dizt++aa9t03nv2ngkpyrmow4V58xepwwt1riFO71y9ToQUIs7oXL2uuFqdQ5pKij+qG1NcM3tqJUDSUStJ6nGcAEmH44aMBiOAQF0FxidcTMy/yF+7aE5Hu5ijMaldpYOJfJFSUz/yczq0++/vVe959P7HmNMxSZgPCCDgGgF10lEIO8ZvYEkmk4lEIhaLlbuHxYhAyaQjFouNjno8Hu/Y2Jjf7w8Gg+FwOBKJRGMxmz57ZfpJx3Wtc+Rsi3nzF005p+O61jnz5i9SFKVz9Tp5onpj1hWzh4dHZ10xu2QIIsZGxiXFH3f39p119gx1heJyRgaVMsYFSDqMW1HSZQIkHS4bULqDAAK1Feh5THWXSn5ax6Mrh3rvbxf3oeQjj8J9KCWu2fNYR4lbUc4UFHHJmUkc+ZtTJu5Dmbi9pVCaOR1n0NhCAAF3CpRLOsRSHfF4fDphR3HSEY8nPB7v6KhH3Lri9/vlI2btm3TUZOSNT6PoXL1O3MwiZ21oMgvRHnH04UefmDHzYnVmIbZnzLz44UefUN+9oq7EeGNq0veGrYSko2GHno6TdPA1gAACCBgQkHM6Tvc8JiMJddKhnn+hCUfUHwsRibgp5rH14+t95AOO3vvve/S28aRDXqvQrpJJR++zbeOLgxhoO0UQQAABewvIpGNiUdJJS3WIaR2xWCyTyVTRD03SEY1GR0ZGR0ZGPZ780qV+vz8QCIxP6IhGbZp0HO0/fulnv1QcJaj3XPrZLx3tP64PJMMF9TQNsQaHzCYGh4ZFfiGSDnmTizqkkFeROYjco9nQnKX+KBujOYWPtRUg6aitJ7U5SICkw0GDRVMRQKDeAqXW6Wgbn9AxfhtL6Tkd+RPH1x/Vtjl/SEzlGE80xLSRwvIfMgdRndv7bGEh0mdXlluRtNS9M9qL8hkBBBCwsYAm6Si+gSUej0ej0UgkUsUCpeqkIxgMDg0NDw+PiAkdxbeuxOJxO9698u2b2v/i03+lebis5uNffPqvvn1Tu/4oixtGzjp7xh0//rm4VeS61jki6ehcvS4cjlzXOmdwaHje/EVnnT3jwr+ctal7m9hT8h4WcYq4e0VEHurkZcbMiweHhmW0UXyzjLqw3FYvHaLfF44aFCDpMAhFMfcJkHS4b0zpEQII1FigdN4xPlOjZNIxcSuKvM+luEWa57nkC4ibVibOVRR53cJcj0kLfzCno1iUPQgg4GQBGXZkC69M5syzZuVqHSLsiMfjmUzWeF9F0hHNL8wxOjg4NDQ0PDIyWliL9MzzZfMrdBQmdNg06RALker3ecoyYp0OGUDIcKF4TsecW+du6t42++rr1I9ikZmFuhlyTkc4HFGXl/M1is+Sj3HRHBJLh6grZ7smAiQdNWGkEicKkHQ4cdRoMwII1FVg4imwRRdV372iPihTjFJJh8wvJh7m0iYnZeTzi0dvkx9FlRN3r+RzkK6Sz4IpejCtui1sI4AAAk4QkEmHvIFFE3aI1Tqi0Wg4HA6FwoW8w9DNLOFw2OPxnDp1+vTpwcHBoeHhkcKtKx6fzyfXIpUxRzyesOOcjilTDEVRjJSRAYT6S0JM61DvURRFk1yIOR3qFTdE+UqTjt29fR/+6EXyybWywnnzF4kIRtMMPk5fgKRj+obU4FABkg6HDhzNRgCB+gmUyiYKd5Tkp3UUzekoLDU6vuKGJumYWIBDPSMjX7m8V0V97kT/xpOOwrm96sL5ApMmekycwX8RQAABJwrIsOPMtI50JpXOv8S0Dk3YEQrll9eIx+OpVCqTyeZyOdHrXC6XyWaTyWQsFgsGQwMDpzQxx+joqLhvRfwOGA6HY7FYNBaLxeINkXTs2bu/5AKiYpaHuH+kZNIhp4GIjXnzF6mTjllXzFYXkJNHZJyhjjnkF6i4oYabViRIzTdIOmpOSoVOESDpcMpI0U4EELBMoJI5HflFN86sFapJOsY/9vT2KuOrb4iHuYz3LH/fyvjjXVR9FUmHCEQmxSL5MiQdKik2EUDA2QIy6RDTOtSrdaRSKU3YEYlEwuFIKBQOBkPBYCgQCIq33x+Qb7FHxhwT962Mer1en88XCATUD5fNpxzxRCLRYHM65tw698MfvejCv5yleVJsyaRDZhbyC02ddKjvXpEF5C0qg0PDF13yBfXtMHLREPVOeSIbtRIg6aiVJPU4ToCkw3FDRoMRQKDeAkbndBQevzI+m0O0Ud7GUvioyinGQ437nr3/vo7CEqeF2RxickchBDkzVaSQdIw/s7ZUS3SfZVtvKq6HAAIITEdAhh0T0zoymntYEomEnNlRCDvy0zpk3qFOPcR2MBiSN60MDw/n1+fweORCpKFQKFJYokPEHCLqaJS7V8QSoXI50uta56jvH6k06Sg36jLpkAXk0qTqy8mjbNRcgKSj5qRU6BQBkg6njBTtRAABywSMzOkoZBBn4omJtornqshbXfKphEgrtIFIR1vRnvt7x59ce1vX+vtFCKLKSsQVmNMxIc1/EUDADQIy6VBN69ALO8QapeH8K593lHwPDQ0PDQ3lF+covOSEjpC4+6WwEGk8ng9Q8jM67Dmn45++8a2vXXO9/gh/7Zrr/+kb3ypXRky+aGpuEatyNDW3iGevKIoi1+kYHBqeMfNiMXFjmkmHmK8hb3JRP7qFG1XKjZFJ+0k6TIKlWvsLkHTYf4xoIQIIIIAAAggg0CACpcKOrGZmh+ZOFpF35Gdn5G9pOfMSe4bFGqSTYw5x30o4EpHLc4iYI5lM2nFOx4qVq9VLYJTbXrFydYN8ldBN4wIkHcatKOkyAZIOlw0o3UEAAQQQQAABBBwtoB92pNNpuWyHvJklv5xoLJZ/hMrkV6zwcFlx04rX65X3rRRmgeQfLRuLxWOx8dkc4nm0dkw6FEXZf+Dgcyte0nnvP3DQ0aNO400SIOkwCZZq7S9A0mH/MaKFCCCAAAIIIIBA4wiok47St7FMhB1icofIO/IripZ6qWOO8YVICzeuRPKZyMQDVxIJEXPYdE5H44w9Pa25AElHzUmp0CkCJB1OGSnaiQACCCCAAAIINIiAXtiRzqQz+afP5t+FlwwpxB0o6j+TyaS38PIVXv7CA1fyT6cN5+dzRKNRkY3IGkg6GuQLrIG6SdLRQINNVycLkHRM9uATAggggAACCCCAgPUCJcMO8ehZsWyHyDuSqVT+Xf6VDzrGxsZ8vjGfbzzpyEcdhSkdhUkdci1SEZHY9O4V6weEFjhTgKTDmeNGq2sgQNJRA0SqQAABBBBAAAEEEKi1QLmwI51/ZdLpTCpVmNmRTo/nHSL1mPyniDl8fn8h6AgGgyHxcFmxoIeY0yGngTCno9ZjSH1WC5B0WD0CXN8yAZIOy+i5MAIIIIAAAggggICuQHHYkVG9ZOSRTmeSycLkjskxRzKZGhvz5Wd0+Pzji3QUoo5wOCySDrGUqTrvYE6H7oBw0GkCJB1OGzHaWzMBko6aUVIRAggggAACCCCAgAkCcl3S7MRLxB3ZbFZEIXJDk4zkcjk5XyMxsexoIR9JqwKTzESt+f+SdJgwgFRpnQBJh3X2XNliAZIOiweAyyOAAAIIIIAAAgiUF5BZhsgjROqRy+XEGcXRhmaPTDqSyaRYwZSkozw2R1wnQNLhuiGlQ0YFSDqMSlEOAQQQQAABBBBAoL4CmthCzN3QaYK6vCimXquUpEOHjkPuFCDpcOe40isDAiQdBpAoggACCCCAAAIIIFBvAXVskc1mq7s8SUd1bpzlEgGSDpcMJN2oXICko3IzzkAAAQQQQAABBBAwV0Adc8h7VYovmfEEUgePJ7YfiK3fFevakX+v35XYfiB18HjGE1AUhaSjGI09DSRA0tFAg01XJwuQdEz24BMCCCCAAAIIIICAxQLqmENRlJJJR/rEcLx733i6ITKOoj/j3fui75yUYQd3r1g8rly+/gIkHfU354o2ESDpsMlA0AwEEEAAAQQQQAABkWvIpKPkTSvZQCQ/iaMo1yi5J/Bid2jTnviojxVJ+epqRAGSjkYcdfpcECDp4AsBAQQQQAABBBBAwCYCMuMQz1gpblVm0Fsy0Si3M/Bit3jHjg8yp6PYkz0uFyDpcPkA073yAiQd5W04ggACCCCAAAIIIFA/gZrHHLGuHTLpCLzYHT8xlEqleMps/UaUK1kuQNJh+RDQAKsESDqskue6CCCAAAIIIIAAAmoBmXRkCy/N8hzZQKR44kZi+4H4Zr3VOtRJR3DV5oTHT9KhNmfb5QIkHS4fYLpXXoCko7wNRxBAAAEEEEAAAQTqJKAfcyiKUnJtDkVRNPezxDfvSx0eyL8PHU/0vKlJOsLdvSQddRpRLmMHAZIOO4wCbbBEgKTDEnYuigACCCCAAAIIIKAW0CQd6kOKoqRPDKsndKTePJYdC2bHgvkVTJMpsZ0dC8a6diR731afGx/2yrAjuGpzcNXm+NFT6XQ6o3qJKSTiz99Rn8w2Ak4XIOlw+gjS/qoFSDqqpuNEBBBAAAEEEEAAgZoIaGIOzX0riqKoHygbf6233EXzacj6XYmeNxM9byb7jmQj8WQyGdq+X4QdIukIb9hN0lEOkP1uEyDpcNuI0h/DAiQdhqkoiAACCCCAAAIIIGCKgDrpyGQymqQj4wmoJ3Qkdh1SFCXZ+3asa4e8eyUz6FUURV0s1rUjsetQMpmM9B1WJx2hl7YkhryqKR0Z5nSYMqhUagcBkg47jAJtsESApMMSdi6KAAIIIIAAAgggIAVE0iESh0wmq0k6UgePqyOMZO/hEknHUImkI755Xz7peOOoJumI7T9C0iHx2XCzAEmHm0eXvukKkHTo8nAQAQQQQAABBBBAwFwBzYSOTCaruZ5mLVKRdGQGvanDA4qiZMOx1OGBbDhWPKcjtn5X5I2joc17NUlHZPNekg4NMh/dKUDS4c5xpVcGBEg6DCBRBAEEEEAAAQQQQMAsAU3Skc5kNFeKrd81eU7HpDVH1YVlsfTJkexYML5xj8g4NElH6OUdJB1qN7ZdK0DS4dqhpWNTCZB0TCXEcQQQQAABBBBAAAETBTS3rpRIOrp2yAgjvzGx5mii5838Oh3eoFiCNNHzpigW794nmps6fLJ00vHSFpIOE0eUqu0jQNJhn7GgJXUWIOmoMziXQwABBBBAAAEEEJAC6gkd2Ww2k8mm0ml5VGxMijkmpx5yRVJ1mXT/YP7EbDYXS5B0aDD52FgCJB2NNd70ViVA0qHCYBMBBBBAAAEEEECgrgLqpCOTyaTTmRJJx+S7V9ShRnYsmDo8oN4TW9uTS6WzkVjqyClFUUJb98mwQzxlNvTSFu5eqesYczELBUg6LMTn0tYKkHRY68/VEUAAAQQQQACBRhbQJh2ZfNKhefaKZkXS/ONje97MBxylEpDkvncURUm9eSy+cU9+jdITQ8VJByuSNvKXXGP1naSjscab3qoESDpUGGwigAACCCCAAAII1FVgctKRTZdKOjRPmY117RBPXYl375s0m6NwY0vGG8jfuRIIZ8eCuUw2mUgEu7aLsEPO6XDqU2Z37t77v876o6bmlqbmljt/Mq+igcrlct4x3+DQsHh7x3wyT9I5JC6RyWRGRj0jo55M0WqxFbWBwvUXIOmovzlXtIkASYdNBoJmIIAAAggggAACDShQnHSk0+lsdtKDZjOegCbRSB06rihKYscbmv3xTXs1hslkMrL/HU3SkRjyOnJF0mAwtKl726bubbOuvOof//kGTVf1P4bDkVlXzBYpifhz5vmf2rR5u6IoJQ/t7TsgK3x53YZ3vfecs1vOO/DGIbmTDUcIkHQ4YphopBkCJB1mqFInAggggAACCCCAgBGBkklHumhRUs30jeSet/JrkY76E7sOiQeviDtZ0v2n8wnI6+MPYYmt7UmEIgl/UJ10hDfsTqfTzks6Xnn1tedWvCTen/nclz/z+a/Ij6+8+tqU1iLOuPrrrWJOx+7evosvufz8T142PDKqOdSzc89HP3bJBRd/bmTUoyjK/8z4+M4tt118oNYWpAAAIABJREFUyeV/ct6fz5u/aMoLUcBWAiQdthoOGlNPAZKOempzLQQQQAABBBBAAAG1QMmkI5lMylsrROH0iWHN9I1sIKyuJ9n7dn4t0mQqG4mrS0YP9kcPn1AnHfGjp5yXdHz7pnb1dIzi7W/f1K7mKN4WccZ1rXPkoRdeXN3U3LL25Q0lD73rvees39CtKMrwyOj5n7zsvo4Hrr/h5ks/+6VAIChrYMP+AiQd9h8jWmiSAEmHSbBUiwACCCCAAAIIIDClQLmko3hFCO26pGt7Um+dSB0eEO/45n3xjXtShwcSOw+qk47Amq0i5gi82B1ctTnc3ZsuvBw2p+Pd7/vg0888V07z6Weee/f7PljuqNhfMs4ol3R0rl4nDimK8lLny82/d+6WbT3Lf7vydz/w4e09u/QvxFFbCZB02Go4aEw9BUg66qnNtRBAAAEEEEAAAQTUAsVJRyqdThZeuZy6oJINRNQRhsFtGXOIpCPh8Tsy6WhqbnluxUuTPFQfnlvxUlNzi2pHiU3NLSqbt/ZcfMnl53380ycHTmtCkGAwdM21bR/6yIX9x06k0+mv/8u3L/nMlT5/oP/YiQ995MKbv/ejErWzy64CJB12HRnaZboASYfpxFwAAQQQQAABBBBAoIxAuaQjkUgUr9aRGfQaDDhkMXXSET8xlEqlnJd0iCBDJB3/cv1N/3L9TQJTbqsLlHEuvezozt35FVxF0vGe95/74Y9e1HLu+U3NLe95/7liColIN26/815FUUTqIZb2KHcV9ttNgKTDbiNCe+omQNJRN2ouhAACCCCAAAIIIKARmJx0ZNLpTCqdTqVSiUQiHo9nNfM6FKXSsEMmHbHjg6nCy2FJx8pVa8SqHD+Ye5eiKNdc23bNtW0CUW7/YO5doszKVWs0vvKjek7HwUOH/+yiz371a9+IxeIy6fj85X/7/Audz7/Q2bl6nXfMJ0789W+e16wJ8q73nvPyug2yWjZsLkDSYfMBonnmCZB0mGdLzQgggAACCCCAAAL6AuqkI5vNZjJZkXQkk8l4PJ5IJDRLkypK/jYW7ZodXTvkJA7NRuDF7tCmPfFRXzKZdGTSIfjk3SsdCx7sWPCg2Cm3jd+9IlckffjRJ979vg++8OJqmXTIQ3LA4vHEV2Zfe8HFn3tm+QoRgjzx5PIZMy++/oabi0dFnsWGrQRIOmw1HDSmngIkHfXU5loIIIAAAggggAACGgERdmQLr0wmm85k0oWlOhKJRCwWy4cdmhMKH9MnhjWPntVkHLGuHfHufdF3TopVP1ySdJSiUKpIOrxjvk9d9sVPXfZF75hPs06HvMSBNw6d3XLeXT/tkHvEE2fFEh5yJxt2FiDpsPPo0DZTBUg6TOWlcgQQQAABBBBAAAF9AfW0DpF0qG9giUajJWd2iDoznkDq4PH8FI/1u8aTjvW7EtsPpA4ez3gCiqLImMPZSUfLuef/YO5PnlvxUsn3D+b+pOXc8/WVi+OMF15cLR7pUnxIVLX4oWXNv3eu5mErL6/b8K73nvPr3zyvfzmO2kSApMMmA0Ez6i9A0lF/c66IAAIIIIAAAgggIAUmJx2Z8bAjlUomk2JaRyQSya/Zkc3KU4xvuCTpePxXvxFrhWpWzRAfW849//Ff/cY4CiUbR4Cko3HGmp5qBEg6NCB8RAABBBBAAAEEEKingDrpEEt1pDOT1iWNRqORSCQcjiSTqUoXiHBJ0lHP8eBabhIg6XDTaNKXigRIOiriojACCCCAAAIIIIBAzQXUYUcm/8qv1pFSTesQYUcoFA6HI6lU2njeQdJR88GiQicJkHQ4abRoa00FSDpqykllCCCAAAIIIIAAAhULqJMOzbQO8RCWWCwmw45gMBQIBOPxeCqVzmaz+qkHSUfFg8EJbhIg6XDTaNKXigRIOiriojACCCCAAAIIIICAGQLGw45wOBIKhUXeEQgE/f6A3x/w+f0l3ycHBk4ODAycOjVw6tSp06dPDw4ODg0NDQ+L9/DIyPDIyMjoqHz/jhl9o04ErBIg6bBKnutaLkDSYfkQ0AAEEEAAAQQQQACBoqRj/B6WdDqdSqUSiUQ8HpczO8LhsAg7ZN4hIw8RfMg/ZcahjjlEwCEzjlGPR75JOvhSdJUASYerhpPOVCJA0lGJFmURQAABBBBAAAEEzBIoCjuy6XR+aVIRdmhuYxFrlIZCZyIPdeoRCATF+9Sp02Iux5npHIWEY2RkND+XY9QzOurxeLzyTdJh1uhSryUCJB2WsHNROwiQdNhhFGgDAggggAACCCCAgEw6crlctvDKL01aCDtShZkd4rmz6skdhbwjv0ypiDzUfwaDoWAwdPr0oMg4xu9amYg51BmH1zsm3yQdfB26SoCkw1XDSWcqESDpqESLsggggAACCCCAAAImCpQLO+RzZ2XYIfMOsVJpZOIVnvwaKryGC6/Cihyj+YkcHo+38BorvHyqF0mHiaNL1fUXIOmovzlXtIkASYdNBoJmIIAAAggggAACCCiKUjLsGH/ubGFmh3z6rFi8Q0QeYgmPaNFrpPDKxxuFl8g4xsbGRLjhL7wCqhdJB1+ErhIg6XDVcNKZSgRIOirRoiwCCCCAAAIIIICA6QKlwo6JBUoz+ZU7UoVXsvBKFF7xoles8BIBh/hTHXOoM46g6kXSYfrocoF6CpB01FOba9lKgKTDVsNBYxBAAAEEEEAAAQTKzOzIhx1nJndMrFQqpniI1EPc2yKyD/Gnp/CS96r4fD6/3x8IBES4ESq81Pe7kHTw5ecqAZIOVw0nnalEgKSjEi3KIoAAAggggAACCNRJoHhmRzabzeRf43nH+OId6bR8PouY66H+U70Sh8w4QqGQSDfE4h7qW15IOuo0ulymPgIkHfVx5io2FCDpsOGg0CQEEEAAAQQQQAABzcwO+UAWdd4hpnikMxnxzt/YMvk95vPl1+Tw+8/M5RA5RyQSjkQi0WgkGo3GYvJN0sEXnqsESDpcNZx0phIBko5KtCiLAAIIIIAAAgggUFcB9cwOsV14/uz4H4UpHuOzPMRcj/EZH+lMuvD2+fzihpWJe1Ymco5INJ9zRGP5nCMWl2+SjrqOLhczW4Ckw2xh6retAEmHbYeGhiGAAAIIIIAAAggIgeK8Qz3FQ519TMz4GM9A/IVXoPAKBoNnco7CLSti1VL1YqYkHXzJuUqApMNVw0lnKhEg6ahEi7IIIIAAAggggAAClgmUzDvETk3YIT8GCi+5/mg4LO5ZyU/kyM/lKLzUK5iSdFg2ulzYDAGSDjNUqdMRAiQdjhgmGokAAggggAACCCAgBHTyjuJDMuNQz+bQZBzyuS3JZJKkgy8zVwmQdLhqOOlMJQIkHZVoURYBBBBAAAEEEEDARgLF0YZmD0mHjUaLptRfgKSj/uZc0SYCJB02GQiagQACCCCAAAIIIFBzgVDhJZ8pW3jQSv6mFXHHipjNoX4qLXM6aj4EVGilAEmHlfpc21IBkg5L+bk4AggggAACCCCAgIkCJB0m4lK1/QVIOuw/RrTQJAGSDpNgqRYBBBBAAAEEEEDAcgGSDsuHgAZYKUDSYaU+17ZUgKTDUn4ujgACCCCAAAIIIGCiAEmHibhUbX8Bkg77jxEtNEmApMMkWKpFAAEEEEAAAQQQsFyApMPyIaABVgqQdFipz7UtFSDpsJSfiyOAAAIIIIAAAgiYKEDSYSIuVdtfgKTD/mNEC00SIOkwCZZqEUAAAQQQQAABBCwXIOmwfAhogJUCJB1W6nNtSwVIOizl5+IIIIAAAggggAACJgqQdJiIS9X2FyDpsP8Y0UKTBEg6TIKlWgQQQAABBBBAAAHLBRoo6diyrSccjlguTgNsJUDSYavhoDH1FCDpqKc210IAAQQQQAABBBCop4Cbk441Xa9+7Zrr581flEqlvvf9O5uaW17f1VtPXK5lfwGSDvuPES00SYCkwyRYqkUAAQQQQAABBBCwXMC1SceC+5c0Nbd8/ML/8//97v+ecd6fNzW3LHv810a4M5nMyKhnZNSTyWRk+Vwu5x3zDQ4Ni7d3zJfL5cRRccgfCMjCbDhIgKTDQYNFU2srQNJRW09qQwABBBBAAAEEELCPgDuTjkeW/qqpueWn9/5CUZTtPbve9b5zPn7hZ1OplBH3l9dteNd7zzm75bwDbxyS5cPhyKwrZjc1t8j3zPM/tbfvgKIo4tB1rXNkYTYcJEDS4aDBoqm1FSDpqK0ntSGAAAIIIIAAAgjYR8CdScfDjz5x3sc//fQzzwnobTt2nnX2jAcWL53S/X8maHznltsuvuTyPznvz+fNXyTLizjj6q+3ijkdPTv3fPRjl1xw8edGRj0kHVLJiRskHU4cNdpcEwGSjpowUgkCCCCAAAIIIICADQXcmXQoinJfxwNNzS33dTwg0C/7/Ff+/eYfTjkAwyOj53/ysvs6Hrj+hpsv/eyXAoGgOKU4znjhxdXveu856zd0Fx+a8ioUsI8ASYd9xoKW1FmApKPO4FwOAQQQQAABBBBAoG4CLkw6nlm+wjvmU4cdix9a1tTcsuP13VOyvtT5cvPvnbtlW8/y36783Q98eHvPLnFKcZzRuXpdU3PL2pc3FB+a8ioUsI8ASYd9xoKW1FmApKPO4FwOAQQQQAABBBBAoG4C7kk6Fj+07MElj3UseLCpueWZ5SuEoJjZIdfs0GdNp9Nf/5dvX/KZK33+QP+xEx/6yIU3f+9H4hRNnBEMhq65tu1DH7mw/9gJzSH9S3DUbgIkHXYbEdpTNwGSjrpRcyEEEEAAAQQQQACBOgu4JOm48yfz5FqhHQseVBRly7aecDiiKMqC+5f88oGHjbCKdOP2O+9VFEWkHud/8rLhkVG57Oh73n/uhz96Ucu55zc1t7zn/eeKdUBIOozY2rYMSYdth4aGmS1A0mG2MPUjgAACCCCAAAIIWCXghqRj5ao1Tc0tC+5f8uW/+7pYm2PuHfc0Nbe8vqu3ItZf/+Z5GZeIjXe995yX122QScfnL//b51/ofP6Fzs7V68QNMvIQz16piNo+hUk67DMWtKTOAiQddQbncggggAACCCCAAAJ1E3BD0vHNb333i3/zj4JM3q6y5JHHK0KMxxNfmX3tBRd/7pnlK0Sc8cSTy2fMvPj6G27O5XI6Ezd0DlXUAApbIkDSYQk7F7WDAEmHHUaBNiCAAAIIIIAAAgiYIeCGpGP+Lx98/x/8iVw99OqvtzY1tzz6309W5HXgjUNnt5x310875FniibNTLsZB0iHFnLhB0uHEUaPNNREg6agJI5UggAACCCCAAAII2FDADUlHMpn6+IWffff7PiieriLW7Fi67KmKuBc/tKz5986VcYk49+V1G9713nN+/ZvndeIMnUMVNYDClgiQdFjCzkXtIEDSYYdRoA0IIIAAAggggAACZgi4IelYuuyppuaWGef9+fv/4E8+ddkXm5pbFi56xAws6nSfAEmH+8aUHhkUIOkwCEUxBBBAAAEEEEAAAccJOD7p2N6zq6m55XvfvzOVSt07b+HXrrm+a+16xw0DDbZKgKTDKnmua7kASYflQ0ADEEAAAQQQQAABBEwScHzSEQqFt2zrMUmHal0vQNLh+iGmg+UESDrKybAfAQQQQAABBBBAwOkCjk86nD4AtN9aAZIOa/25uoUCJB0W4nNpBBBAAAEEEEAAAVMFSDpM5aVyuwuQdNh9hGifaQIkHabRUjECCCCAAAIIIICAxQIkHRYPAJe3VoCkw1p/rm6hAEmHhfhcGgEEEEAAAQQQQMBUAZIOU3mp3O4CJB12HyHaZ5oASYdptFSMAAIIIIAAAgggYLEASYfFA8DlrRUg6bDWn6tbKEDSYSE+l0YAAQQQQAABBBAwVYCkw1ReKre7AEmH3UeI9pkmQNJhGi0VI4AAAggggAACCFgsQNJh8QBweWsFSDqs9efqFgqQdFiIz6URQAABBBBAAAEETBUg6TCVl8rtLkDSYfcRon2mCZB0mEZLxQgggAACCCCAAAIWC5B0WDwAXN5aAZIOa/25uoUCJB0W4nNpBBBAAAEEEEAAAVMFSDpM5aVyuwuQdNh9hGifaQIkHabRUjECCCCAAAIIIICAxQIkHRYPAJe3VoCkw1p/rm6hAEmHhfhcGgEEEEAAAQQQQMBUAZIOU3mp3O4CJB12HyHaZ5oASYdptFSMAAIIIIAAAgggYLEASYfFA8DlrRUg6bDWn6tbKEDSYSE+l0YAAQQQQAABBBAwVYCkw1ReKre7AEmH3UeI9pkmQNJhGi0VI4AAAggggAACCFgsQNJh8QBweWsFSDqs9efqFgqQdFiIz6URQAABBBBAAAEETBUg6TCVl8rtLkDSYfcRon2mCZB0mEZLxQgggAACCCCAAAIWC5B0WDwAXN5aAZIOa/25uoUCJB0W4nNpBBBAAAEEEEAAAVMFSDpM5aVyuwuQdNh9hGifaQIkHabRUjECCCCAAAIIIICAxQIkHRYPAJe3VoCkw1p/rm6hAEmHhfhcGgEEEEAAAQQQQMBUAZIOU3mp3O4CJB12HyHaZ5oASYdptFSMAAIIIIAAAgggYLEASYfFA8DlrRUg6bDWn6tbKEDSYSE+l0YAAQQQQAABBBAwVYCkw1ReKre7AEmH3UeI9pkmQNJhGi0VI4AAAggggAACCFgsQNJh8QBweWsFSDqs9efqFgqQdFiIz6URQAABBBBAAAEETBUg6TCVl8rtLkDSYfcRon2mCZB0mEZLxQgggAACCCCAAAIWC5B0WDwAXN5aAZIOa/25uoUCJB0W4nNpBBBAAAEEEEAAAVMFSDpM5aVyuwuQdNh9hGifaQIkHabRUjECCCCAAAIIIICAxQIkHRYPAJe3VoCkw1p/rm6hAEmHhfhcGgEEEEAAAQQQQMBUAZIOU3mp3O4CJB12HyHaZ5oASYdptFSMAAIIIIAAAgggYLEASYfFA8DlrRUg6bDWn6tbKEDSYSE+l0YAAQQQQAABBBAwVcB2ScfuvrcfW9712PKu3X1vi57v2POmPxg2VYHKG1aApKNhh56Ok3TwNYAAAggggAACCCDgVgF7JR0ruja3tXf8cunzv1z6fFt7x4quzYqizH/42ZtuX7hz36Epx2DMH2y/e0lbe4fOu/3uJWP+4OH+gZtuXyiL9ew5qCjKmD94x7xlh/sHprwQBVwjQNLhmqGkI5UKkHRUKkZ5BBBAAAEEEEAAAacI2CjpGPb42to7unf0CbvuHX1t7R3DHl8upzy/uvuWOxfnclOoThlVjPmD9yx8SiQd85c8G4snDvcP3DFv2Zg/SNIxBa5LD5N0uHRg6dbUAiQdUxtRAgEEEEAAAQQQQMCZAjZKOnb3vd3W3pGbyDNyuVxbe4e4hyUUjra1dxw5dlofuWTSockyNEnHijWbFz++UlRb8nT9K3LU6QIkHU4fQdpftQBJR9V0nIgAAggggAACCCBgcwEbJR2H+0+1tXccPTEoyI6eGGxr7zjcf0pRlHeO5Q8FghF9TRFVrN34uvrOFHmLSlt7x38/s0addJwa9KhvVyHp0Oc172jPnoMbt/UW179xW29Pb/7GIvNeJB3m2VKzzQVIOmw+QDQPAQQQQAABBBBAoGoBGyUdiqL84pHfzv350u6evu6evtvuffQXj/xWUZQ1G3q+e+eiexY+NWUni6MKsXKHWJtD3J+iTjpe275XTugQR9vvXiLW7JjyWhSoocCm7fva2ju6Nvao6+za2NPW3rFpxz71zppvk3TUnJQKnSJA0uGUkaKdCCCAAAIIIIAAApUK2CvpiMUTjy3vuulHC2/60cLHlnfF4glFUW758eLHlncZefyKJuno2XNQJBfqlTjUSYdmTkfPnoP5ZVDX5JdB5VVnAZFryLBD89G8xpB0mGdLzTYXIOmw+QDRPAQQQAABBBBAAIGqBeyVdFTdDXGiTDrEVA4xX0N/nY6ePQfltI4Vazb/9zNrFj++UiQs02wMp1cqINMNuVFpDVWUJ+moAo1T3CFA0uGOcaQXCCCAAAIIIIAAAsUCdkk6YvHEy5t2PvSrVf/10HL5fuhXq9Zt2hVPJBVF2bHnzSmndYikY/6SZ+XtKoqi6Ccdh/sHxENYZEqy+PGV3MBS/IVSnz0i4yi+k8W8q5N0mGdLzTYXIOmw+QDRPAQQQAABBBBAAIGqBWyRdGSzuZ8seKKtveM/fvKQjDn+66Hl3/vJg23tHffc/1Qup8x/+Nmbbl+4a99bOl2VaYW6TM+eg/csfEpM09B5yqx8CIu6vLoetusj8Er3rle6d9XnWv9zbxRJR92ouZDdBEg67DYitAcBBBBAAAEEEECgVgK2SDpOnBppa+9Ys75n4gmz473L5XKdr25va+8YHPHmcspznZtu+fFiTRk1hCbpWPz4SvHgFbn0hjrpuGfhU3fMWyYW5hAreoz5g6K2xY+vlKeo62fbfQIkHe4bU3pkUICkwyAUxRBAAAEEEEAAAQQcJ2CLpGPfG0fa2juisXgxXzAUbWvvOHCoX1GUUDi/fbh/oLiY2KNJOoqLqZMOcdOKoig9ew7edPtCdbVimQ/CjmJA9+0h6XDfmNIjgwIkHQahKIYAAggggAACCCDgOAFbJB279r3V1t5Rzq6tvWNX3/hNK+rt4vIioRDzOMr9KZbwkMtzHO4f+I+7H1LHHKLaWDxxz8KnCDuKkV22h6TDZQNKd4wLkHQYt6IkAggggAACCCCAgLMEbJF0jHoDv35hfTm4p1e86vUFxFH1dnF543M6is9lT4MIpNKZQDg+4oucHg0NjARPDgdOjQaHvCGPLxSOROOFV6LwSk68EolEMpkUOxtEiW42ggBJRyOMMn1EAAEEEEAAAQQaU8AWSUdj0tPrOguk0hlvIHpqNOgLxmKJVCaTzeWUXE7JZLLxZNofip8aDY76wpFojKSjzkPD5SwRIOmwhJ2LIoAAAggggAACCNRBgKSjDshcwnqBUDQxMBIIRRK58kva5nK5UCRfzBeMiHkcYlYHczqsHz9aYIIASYcJqFSJAAIIIIAAAgggYAsBkg5bDAONMFUgEI4PecPJVMbIVZKpzJA37PWHJ25eyd+3wt0rRugo4ywBkg5njRetRQABBBBAAAEEEDAuQNJh3IqSjhQIRRND3nAmkzXe+kwmO+QN+0NR5nQYR6Ok4wRIOhw3ZDQYAQQQQAABBBBAwKAASYdBKIo5UiCVzgyMBAzO5lD3MJnKnxiNxcVsDuZ0qHHYdocASYc7xpFeIIAAAggggAACCBQLkHQUm7DHJQK5XM7jj4Qiier6E4okRn1huTopz16pjpGzbCtA0mHboaFhCCCAAAIIIIAAAtMUIOmYJiCn21cgmUqfGg3qLEGq3/RcLndqNCgexcKcDn0rjjpRgKTDiaNGmxFAAAEEEEAAAQSMCJB0GFGijCMF/KGYPxQv1/Sly576s4s+K46mUql/+KfW/7zrPk1hXzDm9eendZB0aGT46AIBkg4XDCJdQAABBBBAAAEEECgpQNJRkoWdjhfI5XLDY+F4Ml2yJ4se/O+m5pa5d9yjKEoikbzyK9e87/f/eNuOnZrCsURqyBuKx8dX60gkqrwRRlMtHxGwgwBJhx1GgTYggAACCCCAAAIImCFA0mGGKnVaL5DL5U57QiUfuTL/lw82Nbd8/7afKIoSi8VnXXnV7/3hR4pjDkVRMpns6VGSDutHkxaYIUDSYYYqdSKAAAIIIIAAAgjYQYCkww6jQBtqL5DNZgdGgrmctuZHlv6qqbnlp/f+Qhy4/K///gMtM3fu3qstV/icyyknhwOxWIy7V0r6sNPRAiQdjh4+Go8AAggggAACCCCgI0DSoYPDIQcLGEw6/upL//CBlpk7Xt9dsqskHSVZ2OkOAZIOd4wjvUAAAQQQQAABBBAoFiDpKDZhjxsEstn8jScl715Z/NCyCu5e8YSY0+GGLwj6UCRA0lFEwg4EEEAAAQQQQAABlwiQdLhkIOmGRiCbzQ6PhWOJlGa/+CjCjh/958/EUh2X//Xfv/8P/qR4Zkc8mR7yknSUJGSn4wVIOhw/hHQAAQQQQAABBBBAoIwASUcZGHY7XCCXy/mCUV8wVq4fjyz91YyZF4ujqVTqb6765x/Mza9Rqn75Q3GPjxVJ1SRsu0eApMM9Y0lPEEAAAQQQQAABBCYLkHRM9uCTWwRyuVw8kTw1GswVr0pqrI+5XO7UaDAUjvCUWWNglHKYAEmHwwaM5iKAAAIIIIAAAggYFiDpMExFQacJZDKZUV84FElU1/BQJDHsDcZisUQiwbNXqjPkLDsLkHTYeXRoGwIIIIAAAggggMB0BEg6pqPHubYWENM6BkYCyVSm0oYmU5mTw/5QOJIovEg6KgWkvP0FSDrsP0a0EAEEEEAAAQQQQKA6AZKO6tw4ywECuVwuk8n4Q9Ehb7jkQ1jK9SGTyQ55w15/fi1Sko5ySux3ugBJh9NHkPYjgAACCCCAAAIIlBMg6Sgnw343CORyuXQ6PRaIDHnDBmd2JFOZIW94xBuIRqPyvhXmdLjhq4E+TBYg6ZjswScEEEAAAQQQQAAB9wiQdLhnLOlJSQERdvhD0YGRQCiS0FmgNJfLhSKJk8N+jy8YieTvW0kWXjLvSCSqXPKjZMPYiYC1AiQd1vpzdQQQQAABBBBAAAHzBNyZdJweHBocGjZPjZqdJSDCjlg8MTIWOjUa9Ifi8WQ6k8nmckoup2Qy2Vgi5QvGTo0GhzwBfyAfc4jnrZB0OGugaW1FAiQdFXFRGAEEEEAAAQQQQMBBAq5KOo72H9+2Y+esK2Y3Nbc0Nbd84Ytf296z62j/cQeNB001SUCs2ZFKpSLRmNcfHvLmI4+BkeDJ4cCpkeDp0cCwxz/m84dCIRFzyAkd4r4V7l4xaVyo1kIBkg4L8bk0AggggAACCCCAgKkCLkk6vGO+K758tQg4Zl151bHjJ/uPnfjsrK+KPVd+5Zqk7dqkAAAgAElEQVQxn9+44+7evosu+YKYFXJd65zO1es05+7u7Tvr7Bmi8pJ/zph5cclJJfPmL7qudY6mtuKP6gYUH2VPdQK5wiuTyaTT6VQqJeZrjI6Oer1ev98fDAbD4XCs8JKrkDKnozpqznKEAEmHI4aJRiKAAAIIIIAAAghUIeCSpOP6G27+4B//2X0dD2zq3hYORzoWPNix4MFQKLype9u8+YvO+dDH2/7tVn2dKcOLpuaWWVfMDocjiqLs7u2bffV1YltRlM7V6+QhcVQGJZqLGkw6RJ1GMhFN/Xw0IiAij2zh5fP5AoFAOByORCKxWCxeeJF0GGGkjNMFSDqcPoK0HwEEEEAAAQQQQKCcgBuSjlAo3NTcImde7Ot7Y9YVV8264qpN3du27diZy+VWrOxsam6JRmPlFDT71UGGnNOhjjPUBXSSjnA4Im+lKTn1Q52eaNogzpWd0hzlY60EAoGAuGMlGo2SdNRKlXocIUDS4YhhopEIIIAAAggggAACVQi4Iel46+0jTc0tu3v7stnsBRd/Tp0pvOf95+7re+P1Xb1NzS39x07oA82bv0h9bvG2nLgx5QQQcfdKcVqhmdOhSUw0s0Xk0XnzF8lL63eBo5UKkHRUKkZ51wiQdLhmKOkIAggggAACCCCAgEbA8UlHOp3+6Mcu+ft//GY2m922Y2dTc8vhd45ec23bNde2ya6m0+nZV193/icvk3tKbsy5de7u3j5N3CDndKhPkRmE2Kme7qG+e6WipENUsql7m/q+GFH/4NDwRZd8QbRN3Qy2py9A0jF9Q2pwqABJh0MHjmYjgAACCCCAAAIITCng+KRje8+upuaW04NDiqIMDY80Nbd85nNfbjn3/JZzz7/q6n9duWqNIDh2/GRTc8vevgPlRIzcaSLvkTEj6biudc68+Ys0NcvWaiaDyP1sTFOApGOagJzuXAGSDueOHS1HAAEEEEAAAQQQ0BdwfNKx4/XdTc0tHu+Y6OcLL66+6up/FUnHn/7Zpe9+3wdHRj2Kohw/MdDU3LJn7359Ds2EDkVR1HM65HbN716RszbKJR27e/s+/NGLmNYx5fBVWoCko1IxyrtGgKTDNUNJRxBAAAEEEEAAAQQ0Ao5POsTdK9dc25ZOp2XfxN0rb7z5VlNzy47Xd2cymdlXX/exT3wml8vJMiU3rmudU7w8h9wjnx3buXqd+sEo+nevyNNLbogFOGQN5ZIOMeVk3vxFJZvNzqoFSDqqpuNEpwuQdDh9BGk/AggggAACCCCAQDkBxycdiqKIRGN3b9/O3Xv/11l/pA4UPvkX/zeXy/Xs3NPU3PL24SPlFOStKxf+5aySacK8+YvU+zUfZU4h6t/d2yeeMmt8nQ5x60rxjBJRobh1RXOVcn1hf0UCJB0VcVHYTQIkHW4aTfqCAAIIIIAAAgggoBZwQ9IhnjL74ktdwWBoU/e2Td3bxFNm9/W9Ibq6ctUag0+ZVUcY5bY1t7ToPGVWDS22p1xuo+ScDnVLiutkz3QESDqmo8e5jhYg6XD08NF4BBBAAAEEEEAAAR0BNyQdInr4oxmfeKnz5e4tO9LpdMeCBzsWPJhKpbq37Ohcve5/f/iCtn+7VUdBc0hO8ZDTQzpXr5Nl5JQNuUcz26K4gCxpJOkQ80HkKcUTQ+QhNqYvQNIxfUNqcKgASYdDB45mI4AAAggggAACCEwp4JKkw+Mdu+LLV4tgYtaVVx07fvKdI/2fv/xvxZ4rv3LNmM+vb6FeZPSss2do1v4U63eIdTqKZ1iIpGNwaHjWFbPFFdWreKivO2XSURyyNDW3iLU81PWwXSsBko5aSVKP4wRIOhw3ZDQYAQQQQAABBBBAwKCAS5IO0duj/cdXvbT2Ay0zRdzwB+ec17l6Xf+xEwYtKNaAAiQdDTjodFkIkHTwlYAAAggggAACCCDgVgFXJR1ikJLJVO++/fsPHEylUm4dNvpVKwGSjlpJUo/jBEg6HDdkNBgBBBBAAAEEEEDAoIALkw6DPacYAoqikHTwZdCwAiQdDTv0dBwBBBBAAAEEEHC9AEmH64eYDuoJkHTo6XDM1QIkHa4eXjqHAAIIIIAAAgg0tABJR0MPP50n6eBroGEFSDoadujpOAIIIIAAAggg4HoBkg7XDzEd1BMg6dDT4ZirBUg6XD28dA4BBBBAAAEEEGhoAZKOhh5+Ok/SwddAwwqQdDTs0NNxBBBAAAEEEEDA9QIkHa4fYjqoJ0DSoafDMVcLkHS4enjpHAIIIIAAAggg0NACJB0NPfx0nqSDr4GGFSDpaNihp+MIIIAAAggggIDrBUg6XD/EdFBPgKRDT4djrhYg6XD18NI5BBBAAAEEEECgoQVIOhp6+Ok8SQdfAw0rQNLRsENPxxFAAAEEEEAAAdcLkHS4fojpoJ4ASYeeDsdcLUDS4erhpXMIIIAAAggggEBDC5B0NPTw03mSDr4GGlaApKNhh56OI4AAAggggAACrhcg6XD9ENNBPQGSDj0djrlagKTD1cNL5xBAAAEEEEAAgYYWIOlo6OGn8yQdfA00rABJR8MOPR1HAAEEEEAAAQRcL0DS4fohpoN6AiQdejocc7UASYerh5fOIYAAAggggAACDS1Qp6QjnswFIllvMDPi541ALQW8wUwgko0nc9V9H5N0VOfGWS4QIOlwwSDSBQQQQAABBBBAAIGSAqYnHfFkjoCDfKcOAt5gpoq8g6Sj5N8L7GwEAZKORhhl+ogAAggggAACCDSmgLlJRyiWrcOvuFwCASkQimUr+k4m6aiIi8JuEiDpcNNo0hcEEEAAAQQQQAABtYCJSQcxh/z1m416ClQUdpB0qP86YLuhBEg6Gmq46SwCCCCAAAIIINBQAmYlHfFkrp6/3HItBNQCxm9jIeloqL/v6KxagKRDrcE2AggggAACCCCAgJsEzEo6WJtD/Ys323UW8AYzBr9LSToMQlHMfQIkHe4bU3qEAAIIIIAAAgggIARMSTqY0FHnX+y5XLGAwWkdJB38VdiwAiQdDTv0dBwBBBBAAAEEEHC9gClJRyDCQqS1fJBq8a/x7JlSIBAxtDQpSYfr/46jg+UESDrKybAfAQQQQAABBBBAwOkCpiQd3Loy5e/hFDBbwOANLCQdTv8rjPZXLUDSUTUdJyKAAAIIIIAAAgjYXMCUpMPsX2KpHwEjAka+90g6jChRxpUCJB2uHFY6hQACCCCAAAIIIKAoCkkHt5m4VsDIdzhJhxElyrhSgKTDlcNKpxBAAAEEEEAAAQTclnQs747dvCR085LQ8u6Ykf/nTxl3Cxj5DifpMKJEGVcKkHS4cljpFAIIIIAAAggggICrko67fx2e2er5RkfgGx2Bma2eu38dnv6v8U9tiM1s9XxzQeCV3sQnbvQ+tWE8QNl/LHXprWMzWz0l35+40ftKb0JcXZRU7xnxZ+5+Ot/Uu58+00KxR9R26a1jX73LV1yzppLp9871NRj5DifpMKJEGVcKkHS4cljpFAIIIIAAAggggIB7ko7dh5MzWz1L10bFb+9L10Zntnp2H05O85d5mXQ83BX9xI1emTWI/OLSW8f2H0upL3F0KP3Vu3yaYprM4psL8kGM+i0iDxGmiO1vLgiIyr+5ICBqu/vpsKxWfUW2dQSMfIeTdBhRoowrBUg6XDmsdAoBBBBAAAEEEEDAPUnH8u785Ish3/iSE0O+zMxWT6X3sBRnEOo8Qmx/c0FgxJ8xmHSoc4qZrZ4fLgt94kbvV+/yXT7Xt3J7XJ2JjPgzJB06mUV1h4x8h5N0GFGijCsFSDpcOax0CgEEEEAAAQQQQMA9ScervYmZrZ7X9o3fM/LavvzHVyduITH4e7IMJmR5kT6IdEPulElHcQ4i9sjJF2JKSLlicn/JOR3yqNyQ1apbwraOgJHvcJIOI0qUcaUASYcrh5VOIYAAAggggAACCLgn6RjxZ74+z//5H/iWro0uXRv93PfHvn6ff8SfOTmaPjmaPnI6PTwx3UPnF2PNnI5Lbx17akNMzMI4OpT+5oJAceShU9uIPyOSDvV6HJry6gU7mNOhwZn+RyPf4SQdRpQo40oBkg5XDiudQgABBBBAAAEEEHBV0tE/lL55SfCCG70X3Oi9eUmwfyg94s9cOy/whdt8n77F+92Hg1P+5izndIjlNi69dezV3oRYH3Tl9rh6nQ71AqJyzoV6Q2Yi+muXypU+1BV+9S7fP/7czzodU47XlAWMfIeTdBhRoowrBUg6XDmsdAoBBBBAAAEEEEDAVUmH5vfe057MD5aFZrZ6Lvmu99OF56Rcebtvf7/eGqXFSceOg0mxmsanb8k/aUU+e0UEE/Kj+tKaG15E0vHVu3xHC8mLuqRcdlTs1MzpUOcmYpu7V9R6RraNfIeTdBhRoowrBUg6XDmsdAoBBBBAAAEEEEDAJUnH0aH0wpWRG+4PXnOv/5p7/dfO8/cdTZ7ypP/yZu+nbvGKX4kvvMk764djJ0fzEz3KvWX0IOOJ/cdS8oGvcpqGfEysSDo0z1spmXQUxxZij5zToVmRVLZQhi9yDxvGBYx8h5N0GFGijCsFSDpcOax0CgEEEEAAAQQQQMANScfgWOZL/+mb2er59C1jmqTjih/5/vK7Y+IX40/d4v3zOd7jI2WTDhFYiMkX6rRCTN/46l2+HQeTYuUOTdIhCsvMQn2uXLu05JwOzW/s4sS7nw6LlhSHI8zp0IhN+dHIdzhJhxElyrhSgKTDlcNKpxBAAAEEEEAAAQTckHRseSM5s9Uz//mwZs3R057MNfcG8gnIrWOXfNc7s9VzyyPBU56ySYdMKMS6pCJWEDtntnq+uSAgJnqImR3y7hXNMhyfuNH7ixWRT9zolRNANAWK8wu5XqlMOvYfS8lbXZjTMWWcoVPAyHc4SYcRJcq4UoCkw5XDSqcQQAABBBBAAAEE3JB0rNgan9nqeWewdIRx85Lgp2/xzvqh7xv/lX8Ui85bBBwyd5BPTpG3mYjnsMgCMsKQUy3kM2XlHv05HZons8hURU4P+Z9nx5B06AzZlIeMfIeTdBhRoowrBUg6XDmsdAoBBBBAAAEEEEDADUnHM6/FZrZ6yv3SO+zLvHMqfXwk/6zZcmXEfvEc2f3HUuKjyB1E6CBvJxEf5XNSyt2Tog5NZCBSPJtD7BHRiThFU3/xKeWuqN+1hj1q5DucpMOIEmVcKUDS4cphpVMIIIAAAggggAACbkg69h5J/nBZqGF/mafjOgJGvsNJOowoUcaVAiQdrhxWOoUAAggggAACCCDghqRD5xddDjW4gJHvcJIOI0qUcaUASYcrh5VOIYAAAggggAACCJB06K3c0eAxgQu6b+Q7nKTDiBJlXClA0uHKYaVTCCCAAAIIIIAAAmYlHd4gCQICFgt4gxkj3+EkHUaUKONKAZIOVw4rnUIAAQQQQAABBBAwK+kIRLIumBFAFxwtEIhkjXyHk3QYUaKMKwVIOlw5rHQKAQQQQAABBBBAwKykI57MOfqXZBrvAoF4MmfkO5ykw4gSZVwpQNLhymGlUwgggAACCCCAAAJmJR2KonADiwvCAud2weCtK4qikHTw92DDCpB0NOzQ03EEEEAAAQQQQMD1AqHCK1x4RSKRaDQai8Xi8Xii8EoWXinV63cMijCtw7kxgQtabnBCB0mHwW9nirlSgKTDlcNKpxBAAAEEEEAAAQRMnNORrzrGah0Wr8rpgsyiii6EYoZW6BDf/8zp4O/BhhUg6WjYoafjCCCAAAIIIICA6wXMmtMh4Ag7qvhFnVOmI1BRzMGcDtf/BUcHdQRIOnRwOIQAAggggAACCCDgaAFzkw5FUeLJHGt2TOdXd841KOANZozftCK/aZnTISnYaDQBko5GG3H6iwACCCCAAAIINI6A6UmHoIwnc4FIlsjD4C/tFDMu4A1mApFsFRmH+Mok6Wicv+zoqUaApEMDwkcEEEAAAQQQQAAB1wjUKelwjRcdcZkASYfLBpTuGBcg6TBuRUkEEEAAAQQQQAABZwmQdDhrvGhtjQVIOmoMSnXOESDpcM5Y0VIEEEAAAQQQQACBygRIOirzorTLBEg6/l979wIlWV3fi/4s1sm6rEOua8FK5MZ7NZxg1NwjJiASI484o2jEV4OCPGdQVIzOJDcaIyS8Mijiieec0Nybm3NyzPGqIG8j6GEgvN8g0AMqb5gZYLp7Xj0z/ZxHV/W1anf/Kar3TNXu6Wqm9+/D6lX86z//3rV/n19Vr9Xf/teukjVUOe0LSDrat7KSAAECBAgQIEBgfglIOuZXv5ztLAtIOmYZ1OHmj4CkY/70ypkSIECAAAECBAgUE5B0FPOyumQCko6SNVQ57QtIOtq3spIAAQIECBAgQGB+CUg65le/nO0sC0g6ZhnU4eaPgKRj/vTKmRIgQIAAAQIECBQTkHQU87K6ZAKSjpI1VDntC0g62reykgABAgQIECBAYH4JSDrmV7+c7SwLSDpmGdTh5o+ApGP+9MqZEiBAgAABAgQIFBOQdBTzsrpkApKOkjVUOe0LSDrat7KSAAECBAgQIEBgfglIOuZXv5ztLAtIOmYZ1OHmj4CkY/70ypkSIECAAAECBAgUE5B0FPOyumQCko6SNVQ57QtIOtq3spIAAQIECBAgQGB+CUg65le/nO0sC0g6ZhnU4eaPgKRj/vTKmRIgQIAAAQIECBQTkHQU87K6ZAKSjpI1VDntC0g62reykgABAgQIECBAYH4JSDrmV7+c7SwLSDpmGdTh5o+ApGP+9MqZEiBAgAABAgQIFBMoSdLxi18+NTIyOjw8cv+DD09MTLywcvULK1dPTEzc/+DD2fzTzzxXDMbqGAKSjhh9VmWOgKQjB8UUAQIECBAgQIBAKQRKknT823/3W6//33/vN9/wtr323v/Nv3fYr+3zhl/b5w1v/r3D9tp7/2z+f/lf/49S9EsRsywg6ZhlUIebPwKSjvnTK2dKgAABAgQIECBQTKAkScdee+//0eNO/ftL/+utt9315a+e96Mf//S6f/nJV/7q/Ftvu+u/dP/jR487da+9928J8/Cjjx182MLevv6JiYlvffvSvfbev/Hr1/c74OFHH0sH6e3rP/iwhdnMDT+5afEZS9M/NQ6GhoYXHN3VeJzG8YKju4aGhhvXp/G3vn3pt759abpr0CEBSUeHYB12zxeQdOz5PXKGBAgQIECAAAECMxMoT9Jx9bXX74zgqmt+PIOkozG8aMw1ske54Sc3ZTlFlmXc8JObch99aGi46/jFjRFJWpaOkGYaB5KORo3OjSUdnbN15D1cQNKxhzfI6REgQIAAAQIECMxYoGxJx9XXXp++fvTjn2Yu7SQdi89YmnZbZClDupsNmvZ0LD5jabbn4oaf3NS0MrubcpB2ko7pW0hyj9kYvsy45b6xUUDS0ahhHEpA0hGq3YolQIAAAQIECIQSKFXS8aMf/7QxIPiN33pr1st2ko6JiYnGd6/s+klww09uyoKPtKFjZxs07OnYteRr/q+Sjte8BU7gtRKQdLxW8h6XAAECBAgQIECg0wKlSjp2hlU06WjcppFdgyMLUA743UN6+/qzdCNLOr717UuzfRaSjp3h7+Hzko49vEFOr3MCko7O2ToyAQIECBAgQIDAaytQqqTjkZ7HTjj5s01fj/Q81n7S8ev7HfDr+x1wzvnfzN6ZsviMpVnSccNPbhoaGl58xtLevv5vffvSX9/vgD9414I77rw3m5mYmGgMR7JYJLtyR/tXJG35BhYXKO3ES0XS0QlVx5wXApKOedEmJ0mAAAECBAgQIDADAUnHJFp2nY5s10ZjbDF9T8fSvzj7jjvvbbr6xuzu6Xj40ce6jl+8s49lmUGbfcvOBCQdO5MxX3oBSUfpW6xAAgQIECBAgEBYgVIlHTvrYvt7OtKnzKZDZds60t1sMP3qG7ufdGSXQU0fWPutb1+aPoN2+ie/NJ2PuzMWkHTMmM43zncBScd876DzJ0CAAAECBAgQ2JlAqZKOpiuSFvrslXRF0kd6Hj/gdw9pvLJp4zi7Kkdu0tG4bK+998/ebDJ9ZepEYzjSeGXT9AErjSFL+1dLTcc3aEdA0tGOkjWlFJB0lLKtiiJAgAABAgQIEJiYmChV0jExMZE+Yvbqa69PDZ7xno6lf3H2b7/54D9414LsohvpgNPzi8bYIi2bmJiYvjL9a+O3pCAj7emYvixd/TT9k8HuC0g6dt/QEeapgKRjnjbOaRMgQIAAAQIECLQUKFvSkVvwDJKO7Pqg6XKki89Yml3CIzv+9PyiMbZoPIc2r0iaUozpSUf6p8bDGs+WgKRjtiQdZ94JSDrmXcucMAECBAgQIECAQJsC5Uk6Pv7JRf+l+x/vvPv+L3/1vB9ff+OPr7/xy1897+57H/jPl/y/Xccv3mvv/XchkvKI7A0j6b0nExMT6S0kvX39B/zuIdm1MwolHU3XLk2nkRuOZI/S+EaY7ONs03cZzK6ApGN2PR1tHglIOuZRs5wqAQIECBAgQIBAIYGSJB3/9t/91ht++6DfetPb99p7/4MOOerX9nnDr+3zhoMOOWqvvfdP84VcLA4iIOkI0mhlTheQdEw3MUOAAAECBAgQIFAOgZIkHfc98LPR0bHh4ZEHHnpkYmLihZWrV656cWJi4v4HH87mf/bIinI0TBWzKyDpmF1PR5tHApKOedQsp0qAAAECBAgQIFBIoCRJR6GaLSaQBCQdicIgmoCkI1rH1UuAAAECBAgQiCMg6YjTa5XmCEg6clBMxRCQdMTosyoJECBAgAABAhEFJB0Ru67mJCDpSBQG0QQkHdE6rl4CBAgQIECAQBwBSUecXqs0R0DSkYNiKoaApCNGn1VJgAABAgQIEIgoIOmI2HU1JwFJR6IwiCYg6YjWcfUSIECAAAECBOIISDri9FqlOQKSjhwUUzEEJB0x+qxKAgQIECBAgEBEAUlHxK6rOQlIOhKFQTQBSUe0jquXAAECBAgQIBBHQNIRp9cqzRGQdOSgmIohIOmI0WdVEiBAgAABAgQiCkg6InZdzUlA0pEoDKIJSDqidVy9BAgQIECAAIE4ApKOOL1WaY6ApCMHxVQMAUlHjD6rkgABAgQIECAQUUDSEbHrak4Cko5EYRBNQNIRrePqJUCAAAECBAjEEZB0xOm1SnMEJB05KKZiCEg6YvRZlQQIECBAgACBiAKSjohdV3MSkHQkCoNoApKOaB1XLwECBAgQIEAgjoCkI06vVZojIOnIQTEVQ0DSEaPPqiRAgAABAgQIRBSQdETsupqTgKQjURhEE5B0ROu4egkQIECAAAECcQQkHXF6rdIcAUlHDoqpGAKSjhh9ViUBAgQIECBAIKKApCNi19WcBCQdicIgmoCkI1rH1UuAAAECBAgQiCMg6YjTa5XmCEg6clBMxRCQdMTosyoJECBAgAABAhEFJB0Ru67mJCDpSBQG0QQkHdE6rl4CBAgQIECAQBwBSUecXqs0R0DSkYNiKoaApCNGn1VJgAABAgQIEIgoIOmI2HU1JwFJR6IwiCYg6YjWcfUSIECAAAECBOIISDri9FqlOQKSjhwUUzEEJB0x+qxKAgQIECBAgEBEAUlHxK6rOQlIOhKFQTQBSUe0jquXAAECBAgQIBBHQNIRp9cqzRGQdOSgmIohIOmI0WdVEiBAgAABAgQiCkg6InZdzUlA0pEoDKIJSDqidVy9BAgQIECAAIE4ApKOOL1WaY6ApCMHxVQMAUlHjD6rkgABAgQIECAQUUDSEbHrak4Cko5EYRBNQNIRrePqJUCAAAECBAjEEZB0xOm1SnMEJB05KKZiCEg6YvRZlQQIECBAgACBiAKSjohdV3MSkHQkCoNoApKOaB1XLwECBAgQIEAgjoCkI06vVZojIOnIQTEVQ0DSEaPPqiRAgAABAgQIRBSQdETsupqTgKQjURhEE5B0ROu4egkQIECAAAECcQQkHXF6rdIcAUlHDoqpGAKSjhh9ViUBAgQIECBAIKKApCNi19WcBCQdicIgmoCkI1rH1UuAAAECBAgQiCMg6YjTa5XmCEg6clBMxRCQdMTosyoJECBAgAABAhEFJB0Ru67mJCDpSBQG0QQkHdE6rl4CBAgQIECAQBwBSUecXqs0R0DSkYNiKoaApCNGn1VJgAABAgQIEIgoIOmI2HU1JwFJR6IwiCYg6YjWcfUSIECAAAECBOIISDri9FqlOQKSjhwUUzEEJB0x+qxKAgQIECBAgEBEAUlHxK6rOQlIOhKFQTQBSUe0jquXAAECBAgQIBBHQNIRp9cqzRGQdOSgmIohIOmI0WdVEiBAgAABAgQiCkg6InZdzUlA0pEoDKIJSDqidVy9BAgQIECAAIE4ApKOOL1WaY6ApCMHxVQMAUlHjD6rkgABAgQIECAQUUDSEbHrak4Cko5EYRBNQNIRrePqJUCAAAECBAjEEZB0xOm1SnMEJB05KKZiCEg6YvRZlQQIECBAgACBiAKSjohdV3MSkHQkCoNoApKOaB1XLwECBAgQIEAgjoCkI06vVZojIOnIQTEVQ0DSEaPPqiRAgAABAgQIRBSQdETsupqTgKQjURhEE5B0ROu4egkQIECAAAECcQQkHXF6rdIcAUlHDoqpGAKSjhh9ViUBAgQIECBAIKKApCNi19WcBCQdicIgmoCkI1rH1UuAAAECBAgQiCMg6YjTa5XmCEg6clBMxRCQdMTosyoJECBAgAABAhEFJB0Ru67mJCDpSBQG0QQkHdE6rl4CBAgQIECAQBwBSUecXqs0R0DSkYNiKoaApCNGn1VJgAABAgQIEIgoIOmI2HU1JwFJR6IwiCYg6YjWcfUSIECAAAECBOIISDri9FqlOQKSjhwUUzEEJB0x+qxKAgQIECBAgEBEAUlHxK6rOQlIOhKFQTQBSUe0jquXAAECBAgQIBBHQNIRp9cqzRGQdOSgmIohIOmI0WdVEiBAgAABAsZx/acAACAASURBVAQiCkg6InZdzUlA0pEoDKIJSDqidVy9BAgQIECAAIE4ApKOOL1WaY6ApCMHxVQMAUlHjD6rkgABAgQIECAQUUDSEbHrak4Cko5EYRBNQNIRrePqJUCAAAECBAjEEZB0xOm1SnMEJB05KKZiCEg6YvRZlQQIECBAgACBiAKSjohdV3MSkHQkCoNoApKOaB1XLwECBAgQIEAgjoCkI06vVZojIOnIQTEVQ0DSEaPPqiRAgAABAgQIRBSQdETsupqTgKQjURhEE5B0ROu4egkQIECAAAECcQQkHXF6rdIcAUlHDoqpGAKSjhh9ViUBAgQIECBAIKKApCNi19WcBCQdicIgmoCkI1rH1UuAAAECBAgQiCMg6YjTa5XmCEg6clBMxRCQdMTosyoJECBAgAABAhEFJB0Ru67mJCDpSBQG0QQkHdE6rl4CBAgQIECAQBwBSUecXqs0R0DSkYNiKoaApCNGn1VJgAABAgQIEIgoIOmI2HU1JwFJR6IwiCYg6YjWcfUSIECAAAECBOIISDri9FqlOQKSjhwUUzEEJB0x+qxKAgQIECBAgEBEAUlHxK6rOQlIOhKFQTQBSUe0jquXAAECBAgQIBBHQNIRp9cqzRGQdOSgmIohIOmI0WdVEiBAgAABAgQiCkg6InZdzUlA0pEoDKIJSDqidVy9BAgQIECAAIE4ApKOOL1WaY6ApCMHxVQMAUlHjD6rkgABAgQIECAQUUDSEbHrak4Cko5EYRBNQNIRrePqJUCAAAECBAjEEZB0xOm1SnMEJB05KKZiCEg6YvRZlQQIECBAgACBiAKSjohdV3MSkHQkCoNoApKOaB1XLwECBAgQIEAgjoCkI06vVZojIOnIQTEVQ0DSEaPPqiRAgAABAgQIRBSQdETsupqTgKQjURhEE5B0ROu4egkQIECAAAECcQQkHXF6rdIcAUlHDoqpGAKSjhh9ViUBAgQIECBAIKKApCNi19WcBCQdicIgmoCkI1rH1UuAAAECBAgQiCMg6YjTa5XmCEg6clBMxRCQdMTosyoJECBAgAABAhEFJB0Ru67mJCDpSBQG0QQkHdE6rl4CBAgQIECAQBwBSUecXqs0R0DSkYNiKoaApCNGn1VJgAABAgQIEIgoIOmI2HU1JwFJR6IwiCYg6YjWcfUSIECAAAECBOIISDri9FqlOQKSjhwUUzEEJB0x+qxKAgQIECBAgEBEAUlHxK6rOQlIOhKFQTQBSUe0jquXAAECBAgQIBBHQNIRp9cqzRGQdOSgmIohIOmI0WdVEiBAgAABAgQiCkg6InZdzUlA0pEoDKIJSDqidVy9BAgQIECAAIE4ApKOOL1WaY6ApCMHxVQMAUlHjD6rkgABAgQIECAQUUDSEbHrak4Cko5EYRBNQNIRrePqJUCAAAECBAjEEZB0xOm1SnMEJB05KKZiCEg6YvRZlQQIECBAgACBiAKSjohdV3MSkHQkCoNoApKOaB1XLwECBAgQIEAgjoCkI06vVZojIOnIQTEVQ0DSEaPPqiRAgAABAgQIRBSQdETsupqTgKQjURhEE5B0ROu4egkQIECAAAECcQQkHXF6rdIcAUlHDoqpGAKSjhh9ViUBAgQIECBAIKKApCNi19WcBCQdicIgmoCkI1rH1UuAAAECBAgQiCMg6YjTa5XmCEg6clBMxRCQdMTosyoJECBAgAABAhEFJB0Ru67mJCDpSBQG0QQkHdE6rl4CBAgQIECAQBwBSUecXqs0R0DSkYNiKoaApCNGn1VJgAABAgQIEIgoIOmI2HU1JwFJR6IwiCYg6YjWcfUSIECAAAECBOIISDri9FqlOQKSjhwUUzEEJB0x+qxKAgQIECBAgEBEAUlHxK6rOQlIOhKFQTQBSUe0jquXAAECBAgQIBBHQNIRp9cqzRGQdOSgmIohIOmI0WdVEiBAgAABAgQiCkg6InZdzUlA0pEoDKIJSDqidVy9BAgQIECAAIE4ApKOOL1WaY6ApCMHxVQMAUlHjD6rkgABAgQIECAQUUDSEbHrak4Cko5EYRBNQNIRrePqJUCAAAECBAjEEZB0xOm1SnMEJB05KKZiCEg6YvRZlQQIECBAgACBiAKSjohdV3MSkHQkCoNoApKOaB1XLwECBAgQIEAgjoCkI06vVZojIOnIQTEVQ0DSEaPPqiRAgAABAgQIRBSQdETsupqTgKQjURhEE5B0ROu4egkQIECAAAECcQQkHXF6rdIcAUlHDoqpGAKSjhh9ViUBAgQIECBAIKKApCNi19WcBCQdicIgmoCkI1rH1UuAAAECBAgQiCMg6YjTa5XmCEg6clBMxRCQdMTosyoJECBAgAABAhEFJB0Ru67mJCDpSBQG0QQkHdE6rl4CBAgQIECAQBwBSUecXqs0R0DSkYNiKoaApCNGn1VJgAABAgQIEIgoIOmI2HU1JwFJR6IwiCYg6YjWcfUSIECAAAECBOIISDri9FqlOQKSjhwUUzEEJB0x+qxKAgQIECBAgEBEAUlHxK6rOQlIOhKFQTQBSUe0jquXAAECBAgQIBBHQNIRp9cqzRGQdOSgmIohIOmI0WdVEiBAgAABAgQiCkg6InZdzUlA0pEoDKIJSDqidVy9BAgQIECAAIE4ApKOOL1WaY6ApCMHxVQMAUlHjD6rkgABAgQIECAQUUDSEbHrak4Cko5EYRBNQNIRrePqJUCAAAECBAjEEZB0xOm1SnMEJB05KKZiCEg6YvRZlQQIECBAgACBiAKSjohdV3MSkHQkCoNoApKOaB1XLwECBAgQIEAgjoCkI06vVZojIOnIQTEVQ0DSEaPPqiRAgAABAgQIRBSQdETsupqTgKQjURhEE5B0ROu4egkQIECAAAECcQQkHXF6rdIcAUlHDoqpGAKSjhh9ViUBAgQIECBAIKKApCNi19WcBCQdicIgmoCkI1rH1UuAAAECBAgQiCMg6YjTa5XmCEg6clBMxRCQdMTosyoJECBAgAABAhEFJB0Ru67mJCDpSBQG0QQkHdE6rl4CBAgQIECAQBwBSUecXqs0R0DSkYNiKoaApCNGn1VJgAABAgQIEIgoIOmI2HU1JwFJR6IwiCYg6YjWcfUSIECAAAECBOIISDri9FqlOQKSjhwUUzEEJB0x+qxKAgQIECBAgEBEAUlHxK6rOQlIOhKFQTQBSUe0jquXAAECBAgQIBBHQNIRp9cqzRGQdOSgmIohIOmI0WdVEiBAgAABAgQiCkg6InZdzUlA0pEoDKIJSDqidVy9BAgQIECAAIE4ApKOOL1WaY6ApCMHxVQMAUlHjD6rkgABAgQIECAQUUDSEbHrak4Cko5EYRBNQNIRrePqJUCAAAECBAjEEZB0xOm1SnMEJB05KKZiCEg6YvRZlQQIECBAgACBiAKSjohdV3MSkHQkCoNoApKOaB1XLwECBAgQIEAgjoCkI06vVZojIOnIQTEVQ0DSEaPPqiRAgAABAgQIRBSQdETsupqTgKQjURhEE5B0ROu4egkQIECAAAECcQQkHXF6rdIcAUlHDoqpGAKSjhh9ViUBAgQIECBAIKKApCNi19WcBCQdicIgmoCkI1rH1UuAAAECBAgQiCMg6YjTa5XmCEg6clBMxRCQdMTosyoJECBAgAABAhEFJB0Ru67mJCDpSBQG0QQkHdE6rl4CBAgQIECAQBwBSUecXqs0R0DSkYNiKoaApCNGn1VJgAABAgQIEIgoIOmI2HU1JwFJR6IwiCYg6YjWcfUSIECAAAECBOIISDri9FqlOQKSjhwUUzEEJB0x+qxKAgQIECBAgEBEAUlHxK6rOQlIOhKFQTQBSUe0jquXAAECBAgQIBBHQNIRp9cqzRGQdOSgmIohIOmI0WdVEiBAgAABAgQiCkg6InZdzUlA0pEoDKIJSDqidVy9BAgQIECAAIE4ApKOOL1WaY6ApCMHxVQMAUlHjD6rkgABAgQIECAQUUDSEbHrak4Cko5EYRBNQNIRrePqJUCAAAECBAjEEZB0xOm1SnMEJB05KKZiCEg6YvRZlQQIECBAgACBiAKSjohdV3MSkHQkCoNoApKOaB1XLwECBAgQIEAgjoCkI06vVZojIOnIQTEVQ0DSEaPPqiRAgAABAgQIRBSQdETsupqTgKQjURhEE5B0ROu4egkQIECAAAECcQQkHXF6rdIcAUlHDoqpGAKSjhh9ViUBAgQIECBAIKKApCNi19WcBCQdicIgmoCkI1rH1UuAAAECBAgQiCMg6YjTa5XmCEg6clBMxRCQdMTosyoJECBAgAABAhEFJB0Ru67mJCDpSBQG0QQkHdE6rl4CBAgQIECAQBwBSUecXqs0R0DSkYNiKoaApCNGn1VJgAABAgQIEIgoIOmI2HU1JwFJR6IwiCYg6YjWcfUSIECAAAECBOIISDri9FqlOQKSjhwUUzEEJB0x+qxKAgQIECBAgEBEAUlHxK6rOQlIOhKFQTQBSUe0jquXAAECBAgQIBBHQNIRp9cqzRGQdOSgmIohIOmI0WdVEiBAgAABAgQiCkg6InZdzUlA0pEoDKIJSDqidVy9BAgQIECAAIE4ApKOOL1WaY6ApCMHxVQMAUlHjD6rkgABAgQIECAQUUDSEbHrak4Cko5EYRBNQNIRrePqJUCAAAECBAjEEZB0xOm1SnMEJB05KKZiCEg6YvRZlQQIECBAgACBiAKSjohdV3MSkHQkCoNoApKOaB1XLwECBAgQIEAgjoCkI06vVZojIOnIQTEVQ0DSEaPPqiRAgAABAgQIRBSQdETsupqTgKQjURhEE5B0ROu4egkQIECAAAECcQQkHXF6rdIcAUlHDoqpGAKSjhh9ViUBAgQIECBAIKKApCNi19WcBCQdicIgmoCkI1rH1UuAAAECBAgQiCMg6YjTa5XmCEg6clBMxRCQdMTosyoJECBAgAABAhEFJB0Ru67mJCDpSBQG0QQkHdE6rl4CBAgQIECAQBwBSUecXqs0R0DSkYNiKoaApCNGn1VJgAABAgQIEIgoIOmI2HU1JwFJR6IwiCYg6YjWcfUSIECAAAECBOIISDri9FqlOQKSjhwUUzEEJB0x+qxKAgQIECBAgEBEAUlHxK6rOQlIOhKFQTQBSUe0jquXAAECBAgQIBBHQNIRp9cqzRGQdOSgmIohIOmI0WdVEiBAgAABAgQiCkg6InZdzUlA0pEoDKIJSDqidVy9BAgQIECAAIE4ApKOOL1WaY6ApCMHxVQMAUlHjD6rkgABAgQIECAQUUDSEbHrak4Cko5EYRBNQNIRrePqJUCAAAECBAjEEZB0xOm1SnMEJB05KKZiCEg6YvRZlQQIECBAgACBiAKSjohdV3MSkHQkCoNoApKOaB1XLwECBAgQIEAgjoCkI06vVZojIOnIQTEVQ0DSEaPPqiRAgAABAgQIRBSQdETsupqTgKQjURhEE5B0ROu4egkQIECAAAECcQQkHXF6rdIcAUlHDoqpGAKSjhh9ViUBAgQIECBAIKKApCNi19WcBCQdicIgmoCkI1rH1UuAAAECBAgQiCMg6YjTa5XmCEg6clBMxRCQdMTosyoJECBAgAABAhEFJB0Ru67mJCDpSBQG0QQkHdE6rl4CBAgQIECAQBwBSUecXqs0R0DSkYNiKoaApCNGn1VJgAABAgQIEIgoIOmI2HU1JwFJR6IwiCYg6YjWcfUSIECAAAECBOIISDri9FqlOQKSjhwUUzEEJB0x+qxKAgQIECBAgEBEAUlHxK6rOQlIOhKFQTQBSUe0jquXAAECBAgQIBBHQNIRp9cqzRGQdOSgmIohIOmI0WdVEiBAgAABAgQiCkg6InZdzUlA0pEoDKIJSDqidVy9BAgQIECAAIE4ApKOOL1WaY6ApCMHxVQMAUlHjD6rkgABAgQIECAQUUDSEbHrak4Cko5EYRBNQNIRrePqJUCAAAECBAjEEZB0xOm1SnMEJB05KKZiCEg6YvRZlQQIECBAgACBiAKSjohdV3MSkHQkCoNoApKOaB1XLwECBAgQIEAgjoCkI06vVZojIOnIQTEVQ0DSEaPPqiRAgAABAgQIRBSQdETsupqTgKQjURhEE5B0ROu4egkQIECAAAECcQQkHXF6rdIcAUlHDoqpGAKSjhh9ViUBAgQIECBAIKKApCNi19WcBCQdicIgmoCkI1rH1UuAAAECBAgQiCMg6YjTa5XmCEg6clBMxRCQdMTosyoJECBAgAABAhEFJB0Ru67mJCDpSBQG0QQkHdE6rl4CBAgQIECAQBwBSUecXqs0R0DSkYNiKoaApCNGn1VJgAABAgQIEIgoIOmI2HU1JwFJR6IwiCYg6YjWcfUSIECAAAECBOIISDri9FqlOQKSjhwUUzEEJB0x+qxKAgQIECBAgEBEAUlHxK6rOQlIOhKFQTQBSUe0jquXAAECBAgQIBBHQNIRp9cqzRGQdOSgmIohIOmI0WdVEiBAgAABAgQiCkg6InZdzUlA0pEoDKIJSDqidVy9BAgQIECAAIE4ApKOOL1WaY6ApCMHxVQMAUlHjD6rkgABAgQIECAQUUDSEbHrak4Cko5EYRBNQNIRrePqJUCAAAECBAjEEZB0xOm1SnMEJB05KKZiCEg6YvRZlQQIECBAgACBiAKSjohdV3MSkHQkCoNoApKOaB1XLwECBAgQIEAgjoCkI06vVZojIOnIQTEVQ0DSEaPPqiRAgAABAgQIRBSQdETsupqTgKQjURhEE5B0ROu4egkQIECAAAECcQQkHXF6rdIcAUlHDoqpGAKSjhh9ViUBAgQIECBAIKKApCNi19WcBCQdicIgmoCkI1rH1UuAAAECBAgQiCMg6YjTa5XmCEg6clBMxRCQdMTosyoJECBAgAABAhEFJB0Ru67mJCDpSBQG0QQkHdE6rl4CBAgQIECAQBwBSUecXqs0R0DSkYNiKoaApCNGn1VJgAABAgQIEIgo8NokHTvGq4Mj1Q2bK30bK2vW+yLQlsDL68f7NlbWb64MjlR3jFdn5fUq6ZgVRgeZjwKSjvnYNedMgAABAgQIECDQjsBcJx07xqsDg5WX14+/vG48u13TMDbfKMCnUWP682RgsLL7eYeko50fE9aUUkDSUcq2KooAAQIECBAgQGBiYmJOk46RsWrvhvTX+/GG3RzGGQuHYg69GyojY7u1uUPS4edgWAFJR9jWK5wAAQIECBAgUHqBuUs6BkcqaR9H49/qjQnspsDgSGXGL1RJx4zpfON8F5B0zPcOOn8CBAgQIECAAIGdCcxR0pHt5ujdUPFFoBMCM97ZIenY2Y8G86UXkHSUvsUKJECAAAECBAiEFZiLpGPHeHXN+vHsfSu123resWZ9LfUw5jBbz4GZXbND0hH2Z5/CJR2eAwQIECBAgAABAmUVmIukY2DQVg4CHRcYGJzJe1gkHWX90aaulgKSjpZEFhAgQIAAAQIECMxTgY4nHTvGs6uQZns63BLooMAMtnVIOubpTy6nvfsCko7dN3QEAgQIECBAgACBPVOg40nH0Ggt6fBFYA4EhkYLfw6LpGPP/MHkrOZAQNIxB8geggABAgQIECBA4DUR6HjSsWFLFnPU/5K/oXbbW79dY8xhtp8DG7YUfgOLpOM1+bnjQfcEAUnHntAF50CAAAECBAgQINAJgY4nHWsHbOggMEcCawckHZ34KeGY5RSQdJSzr6oiQIAAAQIECBCYmOh40jG1iWO8d8N4/RNYxuu7OSbH9f0d5ms4fDKE3XHo2yjp8FONQLsCko52pawjQIAAAQIECBCYbwJzkHS88o6V7H0rbgl0TqDoC9C7V4qKWV8aAUlHaVqpEAIECBAgQIAAgSaBjicdfRsrvgjMmUDT87vlXUlHSyILyiog6ShrZ9VFgAABAgQIECAwN0lHtf6LrlsCHRco+pKWdBQVs740ApKO0rRSIQQIECBAgAABAk0Cc5N02NZBYI4Emp7fLe9KOloSWVBWAUlHWTurLgIECBAgQIAAAUnHHP0GPmdv3wj+QEVf0pKOomLWl0ZA0lGaViqEAAECBAgQIECgSWAOko7xht+9jbNghUOnHJqe3y3vSjpaEllQVgFJR1k7qy4CBAgQIECAAIE5SDoq/fWLkvYP1H65bWf8/R8u32vv/XO/Tjh1yc6Oc+6F3dm3pDXPvzh4wqlLHnuqt29j5dxlk/+61977f+rUJbUzaft82jlna/YQz6IvaUlHUTHrSyMg6ShNKxVCgAABAgQIECDQJDAHScd438bsqzI1SDMznF/x5Jo3HnhIUxRyzrLupuM/9+KWE05dsuLJ3r6N4+csu+R7P7yxb+P4TXf0nPGnZ9VXztr5ND3u1F3HL9zff71zxbuP+ti/f+thS7+y7PmXBqckCxyn6fnd8q6koyWRBWUVkHSUtbPqIkCAAAECBAgQmIOkY2ofR8PHzU7ugMj2euz2/LnLus9Z1p0dM3unTP/GygmnLklRyAmnLjlnWff3fri8f2NlKumYPKu0/pX9Jrt9Po3VOX5TX3bhfP8jz739kAU/uOKmnz22+hMnfWHx57/68tptu1if61z0JS3pKCpmfWkEJB2laaVCCBAgQIAAAQIEmgTmIOlo2sEx+3fPWXbJOcsuefXf/2uPctMdPQe9c8GKJ9fsZE/H7J/J9HMw077AOcsu+cwXvta7YUffxvEHe174g3e9/64Hnmz/27OVTc/vlnclHS2JLCirgKSjrJ1VFwECBAgQIECAQMeTjv6B6tpN1bX123bG6XIbaUdG0+CIBV33P/r89HevpGVHLOh64eWh/oFqdqg3HnjIY0/1nXth9w+uWL52U/XmO1Z89otnt38+7ZyzNbvv2bex8omT/vR//OCGtZuq/QPVlWuG3/uBE3547S1FbYu+pCUdRcWsL42ApKM0rVQIAQIECBAgQIBAk8AcJB21a3/O7OvcC7sPX9D1/EuDu/72cy/sPvfC7qY1z780eMYXz/pQ16LvX7H8jC+ede6F3d+/Ynn/QOXmO3rO+OJZTYvdfc0Fnn9p8PAFXVmPspP51GlLGu+2eYZNz++WdyUdLYksKKuApKOsnVUXAQIECBAgQIDAXCQda+tJx9pNtbyj/fHjT/ce9M6FN9/RU/uuXX5vlnQ0rTn3wu5//M41nzptyeNP9/YPVD77xbNuvqNn7aZa0vHZetLRtL7Qufne9vvYptXL67Z99LjPfL+276b2PHmxb/T9Hz7pB1fWwqlCj1X0JS3pKCpmfWkEJB2laaVCCBAgQIAAAQIEmgTmIulo86/xTcsad2p86rQladdG9sf/9F6V3MHhC7q+/q1/fOyp3k+dVvuU2edfGswGaU/HY0/1Hr6g67GnaiGIrz1E4LNfOjt1+efP9L/7yI/eevfjRc+t6fnd8q6koyWRBWUVkHSUtbPqIkCAAAECBAgQ6HjSsba+I6Po7c139Hyoa9ELLw2u3VT7k/7aTZXJjRt5R0t7Opoe5YWXawHH40/3Nh4t29PxeD0EaTx+0/emxzU/ZwI/veXBgw87+oFHn+vfOH7e1y99/zEnru4bKfroRV/Sko6iYtaXRkDSUZpWKoQAAQIECBAgQKBJoONJR//AeP3P8gVuH3uq96B3Lqi/b2X85jt69tn3gLRx49wLL5l+tHrSkTOftnJMXfGhdg7ZdTqmrtZR4KymP66Z2RXo2zj+rf/8ndf9xoH7vv4t/+Hg99794JMzOH7T87vlXUlHSyILyiog6ShrZ9VFgAABAgQIECDQ8aSj6N/k1w7Utm+kaKP2QSoNOztql9u4syc75uNP9aZPYKl/rsrk7o/0iNmejh9cuby2PeTlwabvOvfC7rTSDo49R6B3w/ZVa4ZnfD5FX9KSjqJi1pdGQNJRmlYqhAABAgQIECBAoEmg40lH2tNRv67k5B4K42y3AodZd2h6fre8K+loSWRBWQUkHWXtrLoIECBAgAABAgQ6nnTU/jifvrKrbKS7aWA+o+Cw2w5FX9KSjqJi1pdGQNJRmlYqhAABAgQIECBAoElgbpOOFG0YEOiMQNPzu+VdSUdLIgvKKiDpKGtn1UWAAAECBAgQINDxpGPdpsq6zVW3BOZGoOhLWtJRVMz60ghIOkrTSoUQIECAAAECBAg0CXQ86Vi7qbKu/td7twTmQKDp+d3yrqSjJZEFZRWQdJS1s+oiQIAAAQIECBDoeNKxbnN9T4dbAnMiUPQlLekoKmZ9aQQkHaVppUIIECBAgAABAgSaBDqedNjTQWAuBZqe3y3vSjpaEllQVgFJR1k7qy4CBAgQIECAAIGOJx31PR2VydvaNTvyvsxnLBx226HoS1rSUVTM+tIISDpK00qFECBAgAABAgQINAl0POnI/p5fuxrl1NU6jJl07jnQ9PxueVfS0ZLIgrIKSDrK2ll1ESBAgAABAgQIdDzpyN/EkbuzwySB3RYo+pKWdBQVs740ApKO0rRSIQQIECBAgAABAk0Cc5F0rK//+jr3t794uveIBV2/eLp33ebK+s2Vnz/de9A7F/7rXT1zfyYecc4Emp7fLe9KOloSWVBWAUlHWTurLgIECBAgQIAAgY4nHeu3VGfwdcvdK445dvGq3qFVvUPHHLv4lrtXtHOQxsWreoeOWNi11977p6+3H7Igjffae/8jFnat6h1Kh73squXnfaM73TWYpwJFX9KSjqJi1pdGQNJRmlYqhAABAgQIECBAoEmg80lHfT/F+s2V9VtqGysmv3Y+vuyq5SeetuSWu3qOOXbRqjWDtUHXolW9g43fe9lVy1NmceJpS9IxV60ZPKZr0S139azfUjnxtCXnfb27tq1jYW1bxy+e7j3xtCWregcvu2r5EQu6Vq0ZbDqfWtLx9e7aoXZ+bo3nYNwJq9vuWfFHf/yxf//Ww/78L5etruVQU0+YtvvS9PxueVfS0ZLIgrIKSDrK2ll1ESBAgAABAgQIdD7peNWejspOdgq8Ml9LOhYtndrTJFQilAAAHihJREFUMXjioqUp1MgGRyzs+s73/yXbf1GLLRZ2venAQ6av+dWejlvuXrHPvgc0/VN297KrltfP5JXHPe8b3Q17Ol6Zf/UJm8926HTE4aEVz7/9kAWXX33To79c/cmT//TTZ/5V38btRf2LvqQlHUXFrC+NgKSjNK1UCAECBAgQIECAQJNA55OOtI+jvcErezq6Fv3Xf77miAVdDz767EHvXFjbqTF1hLT/Iluc5l/Z01FfectdPZ/70lnpX9PgvK9315KOzZXGvSHTA5HJrR9TD5q+3aBDAud9vfuzX/zauk3j6zdXHnl85cGHHX3vQ08Vfaym53fLu5KOlkQWlFVA0lHWzqqLAAECBAgQIECg80nHlvr7QWq31dqbESa/djqu7+lYcsvdPUcs7Drm2EW/eKZ3/ZbKL57pq4Udd9felrJ+S7UxoThx0ZJ0iY1VvYPHHLuovqx2/Fvu7mljT0d2StXzvlGPP6bOMzuNNs95qqh2a7Q+62Ojw7rN4588+Qvf/eENmfnqvqEFHzz+yutuaVzTzrjoS1rSUVTM+tIISDpK00qFECBAgAABAgQINAl0PulIV1jIrrnQ6nYy6ahfp+PBR5+d/s6Uy65aPhlt1Ddl1K7TsaXyuS+ddcvdPbU9HcdOXqdj/eZa0lHb0zHtEV8JNRrO7cTTaolJbQdBff3kbpFp3zv9aGZmReBX12Q5YmFX/V1F9Wtz1K+00tiRNh+l6fnd8q6koyWRBWUVkHSUtbPqIkCAAAECBAgQ6HzSsaWyob6Po83btKfjmGMXPdjzbO16os/0Xl7/YJQNWyonLlpyeT3pOL/2OSmVy2sX9Viyob5943NfOivt6cge69Zd7uloPJ/V9c0gt9b3jGTz6RHXFzx/62cm0Ldx28c+8ZnLrlqe+a9ZO3r0R066vHY5lWLPn6IvaUlHUTHrSyMg6ShNKxVCgAABAgQIECDQJND5pGNz7bIL6zeP1/8m33p82VU3ps9eefDRZ45Y0PWLp9fUL8xxyfrNtU9Uqe/puLH+OSnjkzsvpo6/as2W9Nkr6zePT16no7Yv41WPW79Ox42N51P/QJaP1z6QZeo8z/t693lfv6RxjXGhPjaZt/O9n1tydjJ/4tn+dx/1kTvue7zocZqe3y3vSjpaEllQVgFJR1k7qy4CBAgQIECAAIGOJx0bBqvZ18apwYbB6i7Gl19d++yVW+9Zccyxix9a8dwRC7t++Wzf5VcvP/8b3RsGqycuWnr51csvv7rhU2YXLU3HX903dMyxi2+9Z8XG+srpFxltnDlyYdfqvqENg9Vb71nxxgMPvvWeFek4Gwar53+j+/Krl+/iPIvWZf2u+75hsHrjbQ8dfNjRDz/2/PotlQsuuvToD5+0Zu1oUbeiL2lJR1Ex60sjIOkoTSsVQoAAAQIECBAg0CTQ+aRjS6X2y2rbt/U3pCy99e6eWtLRk3OdjlrScVU9+NhSqcciS9Lx629CWXzr3T2NM0cs7Lr8quXZzOq+oRMXLfnls33pfC6/evk++x5QizkaznB1b+2aEem70tEa1xjPusD6LZW/+/t/ft1vHLjv69/y9kPee9/PnpqBfNPzu+VdSUdLIgvKKiDpKGtn1UWAAAECBAgQIND5pGNqB0e2P6LN27Sn48j6no70XdmejrQ7IM2f/43ubL9GtlMjmz9x0dJ99j3gtvpmjWzmxVrSsfSJZ/uyI/xq80jj+iee7UsXQG2cT48y/XHNzLrAuk07Xlo7MmPzoi9pSUdRMetLIyDpKE0rFUKAAAECBAgQINAk0Pmko7ZXonZRSbcE5kCg6fnd8q6koyWRBWUVkHSUtbPqIkCAAAECBAgQ6HzSMVip/33eLYG5ECj6kpZ0FBWzvjQCko7StFIhBAgQIECAAAECTQKdTzqy3RyDDXs6jJl07DnQ9PxueVfS0ZLIgrIKSDrK2ll1ESBAgAABAgQIdDzp2Fjf0+GWwNwIFH1JSzqKillfGgFJR2laqRACBAgQIECAAIEmgY4nHa7QQWAuBZqe3y3vSjpaEllQVgFJR1k7qy4CBAgQIECAAIHOJx21PR2TXxumBhvrb14wz2HWnwNFX9KSjqJi1pdGQNJRmlYqhAABAgQIECBAoEmg40nHxqGqLwJzJtD0/G55V9LRksiCsgpIOsraWXURIECAAAECBAh0POkYGKr6IjBnAkVf0pKOomLWl0ZA0lGaViqEAAECBAgQIECgSaDjSUft7QlD2VfVuE7BoYPPh6bnd8u7ko6WRBaUVUDSUdbOqosAAQIECBAgQKDjScec/THfAxEYGKoWfUlLOoqKWV8aAUlHaVqpEAIECBAgQIAAgSaBjicdG4cqA/U9HXN/++RzvUcu7Hryud7sHJ54rvcdhy687Z6euT8TjzhnAk3P75Z3JR0tiSwoq4Cko6ydVRcBAgQIECBAgEDHk46iGw1uu2fFPvsdsNfe++d+7bPfAbfds6LxmC/1Dx25sOuH1yxvnBwYqmbzjQc56J0LGu8eubDrpf6h9F0/vGb5BRd1p7sG81Sg6Eta0lFUzPrSCEg6StNKhRAgQIAAAQIECDQJdDzpmLpIx+TOjuxu9hf+3PFt9/Qcc+yiF/sHp695sX/wmGMX3XZPz2339LRKQ3pOXLzk/Iu6n6hv63jiud4nnus9cfGSl/oHL79m+ZELu6Yf//Jrlp9/UXfagZJ7bkVrsb6o5+33rXjPH3/sd9562P/11WUvrR2a/hxo2Zem53fLu5KOlkQWlFVA0lHWzqqLAAECBAgQIECg40nHQP3dK/Xbajvj2+7p+fCxi16qJR219Rdc1D211aLyUv/gh2tJx4qmNVOHnTz+55ecVd/3UdlFIDK1B6SWv2TnNvVAlexx0/zUwPwrVh0yefjx5w5654Irrr3psSdWH3/KFz7zha+u27S96GMVfUlLOoqKWV8aAUlHaVqpEAIECBAgQIAAgSaBjicd6a/6bV6pIUsxvnL2RY3vNMnGf3n2RdmejjaPeds9PZ9bctb0x73gou7La+92qVx+zfLpj5Jm6m9vGWzzsaY/ipmiAhdc1P3ZL31t4+D4xqFKzy9XHvyHRz/wyFNF/Zue3y3vSjpaEllQVgFJR1k7qy4CBAgQIECAAIGOJx2bhquTXyNTg+Hqpp2Pb793xYePW/zy2qFsTbbVIhu/vHbow8ctvv2+FRdc1J3yiNzBBd/s3jRcvf3enV7y44prljedwwUXddcmp87timuWn7R4adOaorVYnzwnKXbe94GhyvGn/On3r7whM1+zdnjhn5xwzY9vKWpY9CUt6SgqZn1pBCQdpWmlQggQIECAAAECBJoEOp50DAxXNg1XB+p5x9Q4m8mfv+3eng8ft/iltUNNccav/uA/mXTcu6LpOLffu+LzS86uP0rjkSs7m7/gou4f1kONxuOctHjJFdcsT+dZTzqWNByzFtM0rp8am8/vY1Gfl9YOZleWTc5THSl2/Kbnd8u7ko6WRBaUVUDSUdbOqosAAQIECBAgQKDjSccrf5NPmzt2OUh7Ol7ZZDFcvaL+wSgp6ciOmRakRKPpsVrs6Wg4jaYjb5p6xKYDuts5gfWbt3/8k2dMbqsZrvZvGPvAR09Od9t/3KIvaUlHUTHrSyMg6ShNKxVCgAABAgQIECDQJDAHSUftb/Kb6js72rm9vb6n4+W1gzvZ07Ho9ntXbBqu1LOJyXFTonHkwq7am1+Gsz0dZ01/9BSRpPO5ov6BLNl3Zesn3zVT5MzT0aY/opl2BM5c+tcXXFR729Gm4crTK9f+0VEfvfuBnxdVbXp+t7wr6WhJZEFZBSQdZe2suggQIECAAAECBOYg6Zi6Kkd2jYZWt2lPx+Q1MhrWT+68uG9Fbc/FtbWLiV5xbe3KGrffV3/3SsPKTSPVkxYvzb2ER5o88n31QGSkdjmPNx54cC1AaTjCBd+sX7ajYabxX407IXDzHQ8d8odHP/Lz5weGKn978aVHf+Skvg2jteCjSBeKvqQlHUXFrC+NgKSjNK1UCAECBAgQIECAQJPAHCQdlfqf5Wu39Ws3vHI3d/72e3v22e+AlEc0DfbZ74Db7+158vnedxy68Iprlr/pzYdccFH37ff2fH7JWbnHf/mVqz/UHvfltYMnLV7y1PO92UMPDFeuuGZ5dsx0MpuGK9k1I+pvnXjV2bZz/o3HsT45N7KkcZPPwND4f+r+59f9xoH7vv4tbz/kvQ8++lRa2f5xmp7fLe9KOloSWVBWAUlHWTurLgIECBAgQIAAgblJOurvXqn9ZX7qnSw7H6d3r9T/kv+q9ZPvWLlvRXatytrRans3ljSlIXvtvX/tY1OGKyctXlpLMWp7QCaP8/LaoXrS0Ze+t/5Wl8HssZ56vu9Nbz4kO1rj/OQ7L3Z+zun408/Z9xY12TC4o3fd8Izdir6kJR1FxawvjYCkozStVAgBAgQIECBAgECTwNwkHa/aGVHPBcwQ6IhA0/O75V1JR0siC8oqIOkoa2fVRYAAAQIECBAgMCdJR303xOZsT4Qxh04+B4q+pCUdRcWsL42ApKM0rVQIAQIECBAgQIBAk0DHk47NI1VfBOZMoOn53fKupKMlkQVlFZB0lLWz6iJAgAABAgQIEJiTpGO0FnZsqd9uNubQyedA0Ze0pKOomPWlEZB0lKaVCiFAgAABAgQIEGgSmJOkw7YOAnMl0PT8bnlX0tGSyIKyCkg6ytpZdREgQIAAAQIECHQ+6Rit7+bIbrOdHY0z5hs1+Oz286HoS1rSUVTM+tIISDpK00qFECBAgAABAgQINAl0PukYqWye/KpODSr1qzaY5zD7z4Gm53fLu5KOlkQWlFVA0lHWzqqLAAECBAgQIEBgDpKOySt0ZNfpcEugowJFX9KSjqJi1pdGQNJRmlYqhAABAgQIECBAoElgDpKO9Hd7AwIdF2h6fre8K+loSWRBWQUkHWXtrLoIECBAgAABAgQ6nnRsqV95wS2BuREo+pKWdBQVs740ApKO0rRSIQQIECBAgAABAk0Cko7am2t8lUag6fnd8q6koyWRBWUVkHSUtbPqIkCAAAECBAgQ6HzSMVYdHJsYrN9uGa3WB7WZLTufv+q6m/bae//cr5NPX1r73objPL2q76j3dT2zqq9pfhfHL3o+1u+6X8lnw5Ztq/sGtoxW2lzf2MfZ6lfRl7Sko6iY9aURkHSUppUKIUCAAAECBAgQaBLofNLRsR0Ty77ZPT0NedObD3l6ZV9pdijsUYVsHqlce/0t7zh04VsPes+3L/nvG7Zsazq96//nHZ88+cyNg9uz+SV/cd4bDzw4+zr8vR977sV12fwLL29Y+uXzf+dth731oPf83d//U//G0ab1bz3oPUu/fP6Tz61pOn47d5ue3y3vSjpaEllQVgFJR1k7qy4CBAgQIECAAIGOJx1TmzjSzo60rSMNsh0f6W4atJhfdnH3Vdctv+uBFR/5xOK+9UODYxN964dOPn1pfX9HOsjsP25DRdmjtDjP0qxfftv97zh0wW33PPKzFU8fufDjF337/3l1aRNf/euLLvmH72aTA0Pbu44/47/9jyueWdX/zKq+519at2l4x+BY9ZfPvPi2dxz+6TO/0vOL5+996Ocf/NjJCz90Qr191ZNPX/q1cy5+ZlX/L5958WvnXPzOd39gVe/Ghodoy7noS1rSUVTM+tIISDpK00qFECBAgAABAgQINAl0POnYMlpp+FN8Nm68za6R0TjT7vpl3+y+8rrlW0YrV163/OTTl24ZrfauGzz59KVPr+ytP2K7x5k6Q+sbu9Dcl80j46d+5s++fcl/z2z/9c6H3vWeP3nh5Q1TetW1A2PHn3LmnfevyGZ61w1+5LjF9bvVqTW14599/n/8/JKzNo9MPtbKNRsPO/xDV1x745bRysmnL132ze7s+CvXbDzqfV3paFNPocYzzMbN59n0/G55V9LRksiCsgpIOsraWXURIECAAAECBAh0POlo+Jt84z6LnY6XXZzznpTGd6kc9b6u713+48aZ6eP65Tx2+hBFT8n6wbFaivTBj518x32PZhrPvbj20D/64L0P/TzhPP7kyg8ft+jF/k3ZzDOr+g5+1/v/5m//7qj3df3V33xz5ZoNg2PVvvVDH/joSTfdfn/6rsZBLem4uDubufmOBw5/78eef2ld44J2xkVf0pKOomLWl0ZA0lGaViqEAAECBAgQIECgSaDjSUft+pS1S3VUBsfqt9m48Xbn88u+2X3U+7p61w1OHuHVxzn59CVXXbf8yuuW16/N0Zv9Np7t6chd/8qZvPo45psF8nyeXtn7+4cuvPP+nqyPfeuGPnLcorvqOzgy7SuvvfG0M/5sS22zRq3jz67uP3Pp2Zf8w3cfeOSJ0z//5cMO/9DKNRueWdn3jkMXZt81MLT9f958z/evuP77V1z/s56nsz0dKbQ64C2H/vSmu2fQx6bnd8u7ko6WRBaUVUDSUdbOqosAAQIECBAgQKDjSUc7f4fPXfPMqr7ff9fCux5YkfuvV123/Kj3dWXXd0iX6tjJdTps7pgFgRf7Ny38k+NTO1au2fCeP/5oujs4Vv3Cn//1d753dW6z1g6MfuCjJ113/S0v9m/646OPyzaGrNs09vX/+H9/+syvHPKHR2dbOdKeji2jlbsffOz//IMjb7nrodwD7mKy6Eta0lFUzPrSCEg6StNKhRAgQIAAAQIECDQJdDzpqF+jIfs7f+02+xqcGtT//p8//6uPVqlftaH2ryefviSNB0crd97fs89+B6S//zcNrrxueTvHt6b9XgyOVtYOjH7o46dcce2Nmdv9j/zysMM/9Nzq/uwgq/sGPvCREx/qeSodc+3A6Mo1GzaPjA+OVjaPjJ9w6hdqF1WpXewjuxhHJTvOxsFtHz/+M5f8w3dTl1Nf/vwvL0hN38XzJK3P1jQ9v1velXS0JLKgrAKSjrJ2Vl0ECBAgQIAAAQIdTzqGtlaHtk5MfbU7vuuBxz7yicX9G4amvnHiwou7L7z40qm71at/dNMppy8d2jpxyulLfzV+dnX/Kacv7d8wdOHFl179o5vqy9p9rHTMqcHEzM556ttL+7jfvexHCz74yRf7Ng0Mbfv0mV85c+lZg2PVzGp6vx5+7Om3vePwO+59dGjrxC13Pfh7v3/EQz1PDW2duOPeRw54y6E/vOanm0fGN4/s+Id/uux33nbYY0+8MLS1esrpS6daXH3qhd53H/nh7172o6K9KPqSlnQUFbO+NAKSjtK0UiEECBAgQIAAAQJNAh1POrJfhgvdPrv6lfet3PXAisbtG8su7h7aWnsvxtU/qn3eytDW2keT/mr8zKq+U05f2rd+6ML6R89ma9zOrsDA0La/+Ktl++z726/7zQPff8ynnl3dn47/ne9d/dW/uaixy1tGK//0/135ut88cL//7S37vv4t1/zLTVtGK9n6G2+9923vODzbiVNLQ+57NJs/5fSlaXvOPvv+9t/87d8NDG1rPGY746bnd8u7ko6WRBaUVUDSUdbOqosAAQIECBAgQKDjScfU3+SznQ5t3V548aXpN96j3tc1tbOj9r1f+LOzb7r9gaPe15UW5A6avmsG59CwK6Stc46zfmBo+8bBbY31Do5VP33mV25Yfud058GxSv1aKpXG9dl4/eat6zePTZ/fzZmiL2lJR1Ex60sjIOkoTSsVQoAAAQIECBAg0CTQ8aSj9nf4sdoujMm//2fjxtv6Ho3JNeYbBbLxHu+zaWj7zXc88GLfwCu9bqxibs+/6fnd8q6koyWRBWUVkHSUtbPqIkCAAAECBAgQ6HjSUf87f3Y1B7cEOi5Q9CUt6SgqZn1pBCQdpWmlQggQIECAAAECBJoEOp90ZBetdEtgTgSant8t70o6WhJZUFYBSUdZO6suAgQIECBAgACBzicdtc9e8UVgjgSKvqQlHUXFrCdAgAABAgQIECBAgMAeLtD5pGOs9okbQ24JzIlA0debpKOomPUECBAgQIAAAQIECBDYwwU6n3TY0EFgDgWKvt4kHUXFrCdAgAABAgQIECBAgMAeLtDxpGN4a3V4W/Y1YVyn4NDB50PR15uko6iY9QQIECBAgAABAgQIENjDBTqfdNRijonhbRMj9VtjDp17DgxvK/xyk3QUJvMNBAgQIECAAAECBAgQ2LMFOp50jGQbOrKdHW4JdFJgZFu16MutaNJRrRZ+iKKnZD0BAgQIECBAgAABAgQIzFigWq12POkY257t6Ui3U+9cmNzrYT4JTEy9zadpxnwm0NphbEfh10LRpKNSqRR+DN9AgAABAgQIECBAgAABAnMlMD4+npKO4fp/IyMjo6OjY2NjW+v/bav/t73hv39T9Ny2jzf+gpqu2WFAYPYFto8XfXpOFE06duwonqYUPinfQIAAAQIECBAgQIAAAQIzFNi6dWvHk45KdSJ7A4tbAp0WqBR/Z0nRpGPr1q0zfLX5NgIECBAgQIAAAQIECBDovMDw8HDHk46JiYmtO6b+er+18sobNIwnr2DCpP702O3nw9YdxXOOiQJ7OrZt27Z169axsbHx8eJbRzr/YvYIBAgQIECAAAECBAgQILB9+/YUcwwNDQ0PD2dvXUnvXsneurJt27aGN69sL/zulYmJidq2ju12dlQ7vaMh9PG3155mM/iv/T0dKemwrWMGzr6FAAECBAgQIECAAAECcyAwNDSUm3SM1f/bunXrrCUdExMTOyrZ1Tqy/QtuCcyywI6ZXid0BknH2NjY9u3b5+Al6iEIECBAgAABAgQIECBAoH2BsbGxLOYYHBzMNnSkPR0dSTomJia2j0+MbvdFYPYFZnAh0vRSaSfpSJlfdp3esbGx0dFRYUcyNCBAgAABAgQIECBAgMBrLpAuRJrFHOmtKy0/eGX79hm9eyUVvKMyMbK96ovArAlsq854N0f2tCyUdKQ3sGRhx7Zt29Jz24AAAQIECBAgQIAAAQIEXiuBxt0cTUlHdoWO7CNm05+xGy/SsbtJR3bNjq07qqPba5FH2uKRjUfqOz7Mc2jz+bBtvDqza3M0vvZmkHRk1yUdHR3NokGfO9voaUyAAAECBAgQIECAAIG5FNi+fXu6Nsf0K3TkbuhouhzpLCQdWcGV6sT28erWHROjO2zxIFBAYGxH7aN8ts9GxpE9FdtMOrZv356Ff+kNLNm2jpGRkeHh4dHR0W3bto2Pj1erM7os6lz+GPBYBAgQIECAAAECBAgQmOcC1Wp1x44dW7duTR8o23h5jp1doSNdjrRpQ8esJR3zXNXpl0egaNKRvYElbevIdnYM1/8bmvovvcYMCBAgQIAAAQIECBAgQGBuBKZ+Iat9smy6EGn6cNkUc0zf0CHpKM9v+CrJBNpPOna2rSM37MheY3PzevYoBAgQIECAAAECBAgQCCuQAo5sMD3myK7QkZKO6Rs6JB3ygbIJzCDpaNzWkb2HJQs7sneyZK+rphebuwQIECBAgAABAgQIECDQOYHsF7FsK0d2bY7GC5GmmCN3Q4eko2y/56unUNKRtnXsIuxozDvSi61zr2dHJkCAAAECBAgQIECAQECB9NtWGoxM/Tda/2+s/l92pcWdfeRK2t/xb/xuTKBMAkWTjp2FHU2bO7KXWHrJGRAgQIAAAQIECBAgQIBAJwSm8o3a/xszjqY3rexsN0cWdkg6yvRrvlomdifpSDs7sguUZpFh9tLKbhtfcsYECBAgQIAAAQIECBAgMOsCjb+CZb+UpYyj8U0rkg6//wcSmEHS0bitozHsaMw70haPxledMQECBAgQIECAAAECBAjMukAKOBozjvZjDtfpCBQBBCm1naQjvXeraZDe67WLvKPxJWdMgAABAgQIECBAgAABAh0SyC7J0XRhjl1v5Ui/4nn3SpAEIEqZu5N0NG3uyIKPxleXMQECBAgQIECAAAECBAjMmUDjX6Ozccoydj2QdESJAILUuZtJR/Zqmf5yknrM2c8yD0SAAAECBAgQIECAQGSBnf06tutoo+lfJR1BEoAoZc5K0rHrvGNnLzzzBAgQIECAAAECBAgQIDDrAk0pRjt3JR1RIoAgdU5POlIaml5v7bwwGtekbzQgQIAAAQIECBAgQIAAgbkRaPylrOhY0hEkAYhS5s6SjsaXYtEXifUECBAgQIAAAQIECBAgMI8EJB1RIoAgdQ4ODg4NDY2MjGQfdJQ+lEjSMY9+KjlVAgQIECBAgAABAgQI7I6ApCNIAhClTEnH7vw48L0ECBAgQIAAAQIECBAogYCkI0oEEKTOxqQj+1Tn7Dod9nSU4KeVEggQIECAAAECBAgQINCOwP8PJrc2ub3zpjIAAAAASUVORK5CYII=;" vertex="1" parent="1">
          <mxGeometry x="550" y="140" width="235.96" height="155.83" as="geometry" />
        </mxCell>
        <mxCell id="A-Cyk1RoJ9tYtj40iDa4-23" value="" style="edgeStyle=orthogonalEdgeStyle;rounded=0;orthogonalLoop=1;jettySize=auto;html=1;entryX=1;entryY=0.75;entryDx=0;entryDy=0;" edge="1" parent="1" source="A-Cyk1RoJ9tYtj40iDa4-7" target="A-Cyk1RoJ9tYtj40iDa4-3">
          <mxGeometry relative="1" as="geometry">
            <mxPoint x="250" y="220" as="targetPoint" />
          </mxGeometry>
        </mxCell>
        <mxCell id="A-Cyk1RoJ9tYtj40iDa4-24" value="显示自动化返回的数据" style="edgeLabel;html=1;align=center;verticalAlign=middle;resizable=0;points=[];" vertex="1" connectable="0" parent="A-Cyk1RoJ9tYtj40iDa4-23">
          <mxGeometry x="-0.033" relative="1" as="geometry">
            <mxPoint as="offset" />
          </mxGeometry>
        </mxCell>
        <mxCell id="A-Cyk1RoJ9tYtj40iDa4-7" value="&lt;span style=&quot;color: rgb(111, 117, 122); font-family: &amp;quot;Encode Sans&amp;quot;, -apple-system, BlinkMacSystemFont, &amp;quot;Segoe UI&amp;quot;, Roboto, &amp;quot;Helvetica Neue&amp;quot;, Arial, sans-serif, &amp;quot;Apple Color Emoji&amp;quot;, &amp;quot;Segoe UI Emoji&amp;quot;, &amp;quot;Segoe UI Symbol&amp;quot;; font-size: 16px; text-align: start; background-color: rgb(255, 255, 255);&quot;&gt;Selenium&lt;br&gt;(自动化控制)&lt;/span&gt;" style="rounded=0;whiteSpace=wrap;html=1;" vertex="1" parent="1">
          <mxGeometry x="330" y="120" width="120" height="200" as="geometry" />
        </mxCell>
        <mxCell id="A-Cyk1RoJ9tYtj40iDa4-10" value="" style="edgeStyle=orthogonalEdgeStyle;rounded=0;orthogonalLoop=1;jettySize=auto;html=1;" edge="1" parent="1" source="A-Cyk1RoJ9tYtj40iDa4-8" target="A-Cyk1RoJ9tYtj40iDa4-1">
          <mxGeometry relative="1" as="geometry" />
        </mxCell>
        <mxCell id="A-Cyk1RoJ9tYtj40iDa4-13" value="分配给用户登录充值管理平台的账号" style="edgeLabel;html=1;align=center;verticalAlign=middle;resizable=0;points=[];" vertex="1" connectable="0" parent="A-Cyk1RoJ9tYtj40iDa4-10">
          <mxGeometry x="-0.0776" relative="1" as="geometry">
            <mxPoint as="offset" />
          </mxGeometry>
        </mxCell>
        <mxCell id="A-Cyk1RoJ9tYtj40iDa4-11" value="" style="edgeStyle=orthogonalEdgeStyle;rounded=0;orthogonalLoop=1;jettySize=auto;html=1;" edge="1" parent="1" source="A-Cyk1RoJ9tYtj40iDa4-8" target="A-Cyk1RoJ9tYtj40iDa4-9">
          <mxGeometry relative="1" as="geometry" />
        </mxCell>
        <mxCell id="A-Cyk1RoJ9tYtj40iDa4-12" value="将分配的账号，配置到云平台的团队中" style="edgeLabel;html=1;align=center;verticalAlign=middle;resizable=0;points=[];" vertex="1" connectable="0" parent="A-Cyk1RoJ9tYtj40iDa4-11">
          <mxGeometry x="-0.0927" y="1" relative="1" as="geometry">
            <mxPoint as="offset" />
          </mxGeometry>
        </mxCell>
        <mxCell id="A-Cyk1RoJ9tYtj40iDa4-8" value="泰森后台来分配账号" style="rounded=0;whiteSpace=wrap;html=1;" vertex="1" parent="1">
          <mxGeometry x="80" y="400" width="120" height="60" as="geometry" />
        </mxCell>
        <mxCell id="A-Cyk1RoJ9tYtj40iDa4-9" value="配置分配的账号，用户可以单点过来" style="rounded=0;whiteSpace=wrap;html=1;" vertex="1" parent="1">
          <mxGeometry x="610" y="400" width="120" height="60" as="geometry" />
        </mxCell>
        <mxCell id="A-Cyk1RoJ9tYtj40iDa4-16" value="" style="edgeStyle=orthogonalEdgeStyle;rounded=0;orthogonalLoop=1;jettySize=auto;html=1;entryX=0;entryY=0.25;entryDx=0;entryDy=0;" edge="1" parent="1" source="A-Cyk1RoJ9tYtj40iDa4-14" target="A-Cyk1RoJ9tYtj40iDa4-7">
          <mxGeometry relative="1" as="geometry">
            <mxPoint x="260" y="175" as="targetPoint" />
            <Array as="points">
              <mxPoint x="250" y="170" />
              <mxPoint x="250" y="170" />
            </Array>
          </mxGeometry>
        </mxCell>
        <mxCell id="A-Cyk1RoJ9tYtj40iDa4-17" value="通过自动化，&lt;br&gt;控制云平台，&lt;br&gt;添加子用户" style="edgeLabel;html=1;align=center;verticalAlign=middle;resizable=0;points=[];" vertex="1" connectable="0" parent="A-Cyk1RoJ9tYtj40iDa4-16">
          <mxGeometry x="-0.011" relative="1" as="geometry">
            <mxPoint as="offset" />
          </mxGeometry>
        </mxCell>
        <mxCell id="A-Cyk1RoJ9tYtj40iDa4-14" value="添加账号" style="rounded=0;whiteSpace=wrap;html=1;" vertex="1" parent="1">
          <mxGeometry x="100" y="160" width="80" height="30" as="geometry" />
        </mxCell>
        <mxCell id="A-Cyk1RoJ9tYtj40iDa4-18" value="" style="edgeStyle=orthogonalEdgeStyle;rounded=0;orthogonalLoop=1;jettySize=auto;html=1;entryX=-0.01;entryY=0.18;entryDx=0;entryDy=0;entryPerimeter=0;" edge="1" parent="1" target="A-Cyk1RoJ9tYtj40iDa4-5">
          <mxGeometry relative="1" as="geometry">
            <mxPoint x="450" y="170" as="sourcePoint" />
            <mxPoint x="520" y="170" as="targetPoint" />
            <Array as="points">
              <mxPoint x="520" y="170" />
            </Array>
          </mxGeometry>
        </mxCell>
        <mxCell id="A-Cyk1RoJ9tYtj40iDa4-19" value="添加用户" style="edgeLabel;html=1;align=center;verticalAlign=middle;resizable=0;points=[];" vertex="1" connectable="0" parent="A-Cyk1RoJ9tYtj40iDa4-18">
          <mxGeometry x="-0.011" relative="1" as="geometry">
            <mxPoint as="offset" />
          </mxGeometry>
        </mxCell>
      </root>
    </mxGraphModel>
  </diagram>
</mxfile>
